<?xml version="1.0" encoding="utf-8"?>
<!-- Generator: Adobe Illustrator 25.2.3, SVG Export Plug-In . SVG Version: 6.00 Build 0)  -->
<svg version="1.1" id="圖層_1" xmlns="http://www.w3.org/2000/svg" xmlns:xlink="http://www.w3.org/1999/xlink" x="0px" y="0px"
	 viewBox="0 0 394 385" style="enable-background:new 0 0 394 385;" xml:space="preserve">
<style type="text/css">
	.st0{fill:#FFFFFF;}
</style>
<g>
	<g>
		<g>
			<path class="st0" d="M277.9,197.3H117.3V36.6h160.6V197.3z M118.1,196.4H277V37.5H118.1V196.4z"/>
			<path class="st0" d="M278.5,197.8H116.7V36h161.8V197.8z M118.7,195.8h157.7V38.1H118.7V195.8z"/>
		</g>
		<g>
			<path class="st0" d="M197.6,197.3c-26.3,0-51-10.2-69.5-28.8c-18.6-18.6-28.8-43.3-28.8-69.5c0-26.3,10.2-51,28.8-69.5
				c18.6-18.6,43.3-28.8,69.5-28.8c26.3,0,51,10.2,69.5,28.8c18.6,18.6,28.8,43.3,28.8,69.5c0,26.3-10.2,51-28.8,69.5
				C248.6,187,223.9,197.3,197.6,197.3z M197.6,1.5c-53.7,0-97.5,43.7-97.5,97.5c0,53.7,43.7,97.5,97.5,97.5
				c53.7,0,97.5-43.7,97.5-97.5C295.1,45.2,251.3,1.5,197.6,1.5z"/>
			<path class="st0" d="M197.6,197.8c-26.4,0-51.3-10.3-69.9-29c-18.7-18.7-29-43.5-29-69.9c0-26.4,10.3-51.3,29-69.9
				c18.7-18.7,43.5-29,69.9-29c26.4,0,51.3,10.3,69.9,29c18.7,18.7,29,43.5,29,69.9c0,26.4-10.3,51.3-29,69.9
				C248.9,187.6,224,197.8,197.6,197.8z M197.6,2c-53.4,0-96.9,43.5-96.9,96.9c0,53.4,43.5,96.9,96.9,96.9s96.9-43.5,96.9-96.9
				C294.5,45.5,251,2,197.6,2z"/>
		</g>
		<g>
			<rect x="99.7" y="98.5" class="st0" width="195.8" height="0.9"/>
			<rect x="99.1" y="97.9" class="st0" width="197" height="2"/>
		</g>
		<g>
			<rect x="197.2" y="1" class="st0" width="0.9" height="195.8"/>
			<rect x="196.6" y="0.4" class="st0" width="2" height="197"/>
		</g>
		<g>
			<g>
				<path class="st0" d="M277.5,197.3c-0.1,0-0.2,0-0.3-0.1L117.4,37.4c-0.2-0.2-0.2-0.4,0-0.6c0.2-0.2,0.4-0.2,0.6,0l159.8,159.8
					c0.2,0.2,0.2,0.4,0,0.6C277.7,197.2,277.6,197.3,277.5,197.3z"/>
				<path class="st0" d="M277.5,197.8c-0.3,0-0.5-0.1-0.7-0.3L117,37.8c-0.4-0.4-0.4-1,0-1.4c0.4-0.4,1-0.4,1.4,0l159.8,159.8
					c0.2,0.2,0.3,0.4,0.3,0.7c0,0.3-0.1,0.5-0.3,0.7C278,197.7,277.7,197.8,277.5,197.8z"/>
			</g>
			<g>
				<path class="st0" d="M117.7,197.3c-0.1,0-0.2,0-0.3-0.1c-0.2-0.2-0.2-0.4,0-0.6L277.2,36.7c0.2-0.2,0.4-0.2,0.6,0
					c0.2,0.2,0.2,0.4,0,0.6L118,197.1C117.9,197.2,117.8,197.3,117.7,197.3z"/>
				<path class="st0" d="M117.7,197.8c-0.3,0-0.5-0.1-0.7-0.3c-0.4-0.4-0.4-1,0-1.4L276.8,36.3c0.4-0.4,1-0.4,1.4,0
					c0.2,0.2,0.3,0.4,0.3,0.7c0,0.3-0.1,0.5-0.3,0.7L118.4,197.5C118.2,197.7,118,197.8,117.7,197.8z"/>
			</g>
			<g>
				<path class="st0" d="M188.2,61.6C188.2,61.6,188.2,61.6,188.2,61.6c-0.1,0-3.3-0.1-5.1-2.1c-0.9-1-1.3-2.3-1.2-3.9
					c0,0,0-0.8-1-1.8c0,0-1.7-2.1,0.7-4.9l0,0c0,0,1-1.3,0.9-3c0,0,0,0,0,0c0-0.2,0.2-4,3.5-5.6c0.4-0.9,2.5-4.6,8.7-3.3
					c0.9-0.2,6.6-1.5,9.2,2.7c0.6,1,1.8,2.8,2.6,3.1c0,0,0.1,0,0.1,0.1c0.1,0.1,2.8,2.4,2.4,4.7c0.4,0.8,2.1,4.2,0,6.4
					c0,1.8-0.8,5-3.6,5.3c-0.2,0-0.4-0.2-0.5-0.4c0-0.2,0.2-0.4,0.4-0.5c2.9-0.2,2.8-4.5,2.8-4.6c0-0.1,0-0.2,0.1-0.3
					c2-2-0.1-5.6-0.1-5.7c-0.1-0.1-0.1-0.2-0.1-0.3c0.4-1.8-1.7-3.7-2-4c-1.3-0.6-2.8-3.1-2.9-3.4c-2.4-3.9-8.2-2.3-8.3-2.3
					c-0.1,0-0.1,0-0.2,0c-6.4-1.4-7.9,2.9-7.9,2.9c0,0.1-0.1,0.2-0.2,0.3c-2.8,1.3-3.1,4.6-3.1,4.9c0.1,1.9-1,3.5-1.1,3.5
					c-1.9,2.3-0.7,3.7-0.7,3.7c1.3,1.4,1.3,2.4,1.3,2.5c-0.1,1.3,0.2,2.4,1,3.2c1.6,1.7,4.5,1.8,4.5,1.8c0.2,0,0.4,0.2,0.4,0.4
					C188.6,61.4,188.4,61.6,188.2,61.6z"/>
				<path class="st0" d="M188.2,62.1L188.2,62.1c-0.4,0-3.6-0.1-5.5-2.2c-1-1.1-1.5-2.6-1.4-4.3c0,0,0,0,0,0c0,0,0-0.6-0.9-1.4
					c0-0.1-2-2.4,0.6-5.6c0.1-0.2,0.8-1.3,0.8-2.6l0,0l0-0.1c0-0.2,0.2-4.2,3.6-6c0.6-1.1,2.9-4.7,9.2-3.5c1.4-0.3,7-1.4,9.7,3
					c0.8,1.4,1.9,2.7,2.3,2.9c0.1,0,0.2,0.1,0.3,0.2c0.3,0.3,2.9,2.5,2.6,5.1c0.5,1,2,4.4,0,6.8c-0.1,2.1-1.1,5.4-4.2,5.6
					c-0.5,0.1-1.1-0.4-1.1-0.9c0-0.6,0.4-1.1,0.9-1.1c2.3-0.2,2.3-3.9,2.3-4c0-0.3,0.1-0.5,0.3-0.7c1.7-1.7-0.1-4.8-0.2-5
					c-0.1-0.2-0.2-0.5-0.1-0.7c0.3-1.2-1-2.6-1.8-3.4c-1.4-0.7-2.8-3.1-3.1-3.6c-2.2-3.5-7.6-2-7.6-2c-0.2,0-0.3,0.1-0.5,0
					c-5.8-1.2-7.2,2.4-7.2,2.5c-0.1,0.3-0.3,0.5-0.5,0.6c-2.5,1.2-2.8,4.3-2.8,4.4c0.1,2.1-1.1,3.8-1.2,3.8c-1.6,1.9-0.7,3-0.7,3
					c1.5,1.5,1.4,2.7,1.4,2.9c-0.1,1.1,0.2,2.1,0.8,2.7c1.4,1.5,4,1.6,4.1,1.6c0.3,0,0.5,0.1,0.7,0.3c0.2,0.2,0.3,0.5,0.3,0.7
					C189.2,61.7,188.7,62.1,188.2,62.1z M188.2,61L188.2,61L188.2,61L188.2,61z"/>
			</g>
			<g>
				<path class="st0" d="M182.2,61.3c-0.1,0-0.2,0-0.3-0.1c-2.8-2.1-6.2-3.4-9.6-3.6l-0.3,0c-0.9-0.1-1.8-0.1-2.6-0.6
					c-0.2-0.1-0.4-0.3-0.6-0.4c-0.2-0.1-0.4-0.3-0.5-0.4c-0.6-0.3-1.4-0.4-2-0.4l-9.2-0.7c-0.2,0-0.4-0.2-0.4-0.5
					c0-0.2,0.2-0.4,0.5-0.4l9.2,0.7c0.8,0.1,1.6,0.1,2.4,0.5c0.2,0.1,0.4,0.3,0.6,0.4c0.2,0.1,0.3,0.3,0.5,0.3
					c0.6,0.4,1.4,0.4,2.2,0.5l0.4,0c3.6,0.3,7.2,1.6,10.1,3.8c0.2,0.1,0.2,0.4,0.1,0.6C182.5,61.2,182.4,61.3,182.2,61.3z"/>
				<path class="st0" d="M182.2,61.9c-0.2,0-0.4-0.1-0.6-0.2c-2.7-2-6-3.3-9.3-3.5l-0.3,0c-0.9-0.1-1.9-0.1-2.9-0.6
					c-0.2-0.1-0.5-0.3-0.7-0.4c-0.2-0.1-0.3-0.2-0.5-0.3c-0.5-0.3-1.2-0.3-1.8-0.4l-9.2-0.7c-0.6,0-1-0.5-0.9-1.1
					c0-0.6,0.5-1,1.1-0.9l9.2,0.7c0.8,0.1,1.8,0.1,2.6,0.6c0.2,0.1,0.5,0.3,0.7,0.5c0.2,0.1,0.3,0.2,0.5,0.3c0.5,0.3,1.2,0.3,2,0.4
					l0.4,0c3.7,0.3,7.4,1.7,10.4,3.9c0.4,0.3,0.5,1,0.2,1.4C182.8,61.7,182.5,61.9,182.2,61.9z"/>
			</g>
			<g>
				<path class="st0" d="M158.2,53.8c-0.1,0-0.2,0-0.3-0.1c-3.4-2.9-8.1-4-12.2-5l-6.7-1.5c-2.2-0.5-4.6-1.2-5.7-3.3
					c-0.2-0.4-0.3-0.7-0.4-1.1c-0.1-0.2-0.2-0.5-0.2-0.7c-0.6-1.5-2.1-2.8-4-3.6c-1.8-0.7-3.8-0.9-5.7-1.1c-0.2,0-0.4-0.2-0.4-0.5
					c0-0.2,0.2-0.4,0.5-0.4c2,0.2,4,0.4,5.9,1.1c2.2,0.8,3.8,2.3,4.5,4.1c0.1,0.2,0.2,0.5,0.3,0.8c0.1,0.4,0.2,0.7,0.4,1
					c0.9,1.7,3.1,2.4,5.1,2.8l6.7,1.5c4.2,1,9,2.1,12.6,5.1c0.2,0.2,0.2,0.4,0,0.6C158.4,53.7,158.3,53.8,158.2,53.8z"/>
				<path class="st0" d="M158.2,54.3c-0.2,0-0.5-0.1-0.7-0.2c-3.3-2.8-7.9-3.9-12-4.8l-6.7-1.5c-2.3-0.5-4.9-1.3-6.1-3.6
					c-0.2-0.4-0.3-0.8-0.5-1.2c-0.1-0.2-0.1-0.4-0.2-0.7c-0.6-1.4-1.9-2.6-3.7-3.2c-1.7-0.7-3.6-0.8-5.5-1c-0.6-0.1-1-0.6-0.9-1.1
					c0-0.3,0.2-0.5,0.4-0.7c0.2-0.2,0.5-0.3,0.7-0.2c2,0.2,4.1,0.4,6,1.1c2.3,0.9,4.1,2.5,4.9,4.4c0.1,0.3,0.2,0.5,0.3,0.8
					c0.1,0.3,0.2,0.6,0.3,0.9c0.8,1.5,2.9,2.1,4.7,2.5l6.7,1.5c4.3,1,9.1,2.1,12.8,5.3c0.2,0.2,0.3,0.4,0.4,0.7
					c0,0.3-0.1,0.5-0.2,0.7C158.7,54.2,158.5,54.3,158.2,54.3z M122.9,37.1C122.9,37.1,122.9,37.1,122.9,37.1
					C122.9,37.1,122.9,37.1,122.9,37.1z"/>
			</g>
			<g>
				<path class="st0" d="M130.9,47.4c-1.4,0-2.7-0.9-3.2-2.2c-0.1-0.4-0.2-0.7-0.2-1.1c0-0.2-0.1-0.5-0.1-0.7
					c-0.1-0.3-0.3-0.9-0.7-1c-0.1,0-0.3-0.1-0.4-0.1c-0.1,0-0.3,0-0.4-0.1c-0.6-0.1-1.2-0.6-1.6-0.9c-0.6-0.5-1.2-1.1-1.8-1.7
					c-0.2-0.2-0.2-0.5,0-0.6c0.2-0.2,0.4-0.2,0.6,0c0.5,0.6,1.1,1.1,1.7,1.6c0.4,0.3,0.8,0.7,1.2,0.8c0.1,0,0.2,0,0.3,0
					c0.2,0,0.4,0.1,0.6,0.1c0.6,0.2,1.1,0.8,1.3,1.6c0.1,0.3,0.1,0.5,0.2,0.8c0.1,0.3,0.1,0.6,0.2,0.9c0.4,1.1,1.6,1.8,2.7,1.6
					c0.2,0,0.5,0.1,0.5,0.4c0,0.2-0.1,0.5-0.4,0.5C131.2,47.4,131.1,47.4,130.9,47.4z"/>
				<path class="st0" d="M130.9,48c-1.6,0-3.2-1.1-3.7-2.6c-0.1-0.4-0.2-0.8-0.3-1.1c0-0.2-0.1-0.4-0.1-0.6
					c-0.1-0.3-0.2-0.6-0.4-0.6c-0.1,0-0.2,0-0.3-0.1c-0.2,0-0.3,0-0.5-0.1c-0.7-0.2-1.3-0.6-1.9-1.1c-0.6-0.5-1.2-1.1-1.8-1.8
					c-0.2-0.2-0.3-0.5-0.3-0.7c0-0.3,0.1-0.5,0.3-0.7c0.2-0.2,0.4-0.3,0.7-0.3c0.3,0,0.5,0.1,0.7,0.3c0.5,0.6,1.1,1.1,1.7,1.6
					c0.3,0.3,0.7,0.6,1,0.6c0.1,0,0.1,0,0.2,0c0.2,0,0.5,0.1,0.8,0.2c0.8,0.3,1.4,1,1.6,2c0.1,0.3,0.1,0.5,0.2,0.8
					c0.1,0.3,0.1,0.6,0.2,0.8c0.3,0.8,1.2,1.3,2.1,1.2c0.5-0.1,1.1,0.3,1.2,0.8c0.1,0.6-0.3,1.1-0.8,1.2C131.3,48,131.1,48,130.9,48
					z"/>
			</g>
			<g>
				<path class="st0" d="M188.5,79.1c-1,0-2-0.1-3-0.4c-3.3-0.9-6.1-3.2-7.6-6.3c-0.2-0.5-0.6-0.9-1-1.4c-0.3-0.4-0.7-0.7-0.9-1.1
					c-1.7-2.6-4.4-3.5-7.3-4.5l-0.7-0.2c-1.3-0.4-2.6-1-3.8-1.5l-8.3-3.6c-4.9-2.1-9.9-4.3-14.6-7l-0.7-0.4c-1.8-1-3.7-2.1-5.7-2.5
					c-0.8-0.1-1.6-0.2-2.4-0.2c-1.4-0.1-2.8-0.2-4.1-0.7c-1.4-0.6-2.5-1.7-3.6-2.8c-1.4-1.4-2.7-2.7-4.5-2.9c-0.2,0-0.4-0.2-0.4-0.5
					c0-0.2,0.2-0.4,0.5-0.4c2.1,0.2,3.6,1.7,5,3.1c1,1,2.1,2.1,3.4,2.6c1.2,0.5,2.5,0.6,3.8,0.7c0.8,0,1.7,0.1,2.5,0.2
					c2.2,0.4,4.1,1.5,6,2.6l0.7,0.4c4.7,2.6,9.7,4.8,14.5,6.9l8.3,3.6c1.2,0.5,2.5,1.1,3.7,1.5l0.7,0.2c3.1,1,6,2,7.8,4.8
					c0.2,0.3,0.5,0.7,0.8,1c0.4,0.5,0.9,1,1.2,1.6c1.4,2.8,4,5,7.1,5.8c3,0.8,6.4,0.2,9-1.6c0.2-0.1,0.5-0.1,0.6,0.1
					c0.1,0.2,0.1,0.5-0.1,0.6C193.2,78.4,190.9,79.1,188.5,79.1z"/>
				<path class="st0" d="M188.5,79.7c-1.1,0-2.1-0.1-3.1-0.4c-3.5-0.9-6.4-3.4-8-6.6c-0.2-0.4-0.6-0.8-0.9-1.2
					c-0.3-0.4-0.7-0.8-1-1.2c-1.5-2.4-4.2-3.3-7-4.2l-0.7-0.2c-1.3-0.5-2.6-1-3.8-1.5l-8.3-3.6c-4.9-2.1-9.9-4.3-14.7-7l-0.7-0.4
					c-1.8-1-3.6-2.1-5.5-2.4c-0.7-0.1-1.5-0.2-2.3-0.2c-1.4-0.1-2.9-0.2-4.3-0.8c-1.5-0.7-2.7-1.8-3.8-2.9c-1.3-1.3-2.6-2.6-4.1-2.7
					c-0.6,0-1-0.5-0.9-1.1c0-0.3,0.2-0.5,0.4-0.7c0.2-0.2,0.5-0.3,0.7-0.2c2.3,0.2,3.9,1.8,5.4,3.3c1,1,2,2,3.2,2.5
					c1.1,0.5,2.3,0.5,3.6,0.6c0.9,0,1.7,0.1,2.6,0.3c2.3,0.4,4.2,1.6,6.2,2.6l0.7,0.4c4.6,2.6,9.6,4.8,14.5,6.9l8.3,3.6
					c1.2,0.5,2.5,1.1,3.7,1.5l0.7,0.2c3.2,1.1,6.2,2.1,8.1,5.1c0.2,0.3,0.5,0.6,0.8,0.9c0.5,0.5,1,1.1,1.3,1.7
					c1.3,2.7,3.8,4.7,6.7,5.5c2.9,0.8,6.1,0.2,8.5-1.5c0.5-0.3,1.1-0.2,1.4,0.3c0.3,0.5,0.2,1.1-0.3,1.4
					C193.5,78.9,191,79.7,188.5,79.7z M120.1,43.4C120.1,43.4,120.1,43.4,120.1,43.4C120.1,43.4,120.1,43.4,120.1,43.4z"/>
			</g>
			<g>
				<path class="st0" d="M205.3,61.7C205.3,61.7,205.3,61.7,205.3,61.7c-1.6,0-3.3-0.7-4.3-2c-0.2-0.2-0.1-0.5,0-0.6
					c0.2-0.2,0.5-0.1,0.6,0c0.9,1,2.3,1.7,3.6,1.7c0,0,0,0,0,0c1.4,0,2.7-0.6,4.1-1.2c1.2-0.5,2.5-1.1,3.8-1.3c0.9-0.1,1.7,0,2.5,0
					c0.7,0.1,1.4,0.1,2.1,0.1c1.8-0.1,3.4-1,5.1-1.8c0.9-0.5,1.9-0.9,2.8-1.3c2.6-1,5.3-1.1,7.9-1.3c0.3,0,0.4,0.2,0.5,0.4
					c0,0.2-0.2,0.4-0.4,0.5c-2.6,0.2-5.2,0.3-7.7,1.3c-0.9,0.4-1.8,0.8-2.7,1.3c-1.7,0.9-3.5,1.8-5.5,1.9c-0.8,0.1-1.5,0-2.2-0.1
					c-0.8-0.1-1.6-0.1-2.4,0c-1.2,0.1-2.4,0.7-3.6,1.2C208.4,61.1,206.9,61.7,205.3,61.7z"/>
				<path class="st0" d="M205.3,62.3L205.3,62.3c-1.8,0-3.6-0.8-4.8-2.2c-0.2-0.2-0.3-0.5-0.3-0.7c0-0.3,0.1-0.5,0.3-0.7
					c0.4-0.4,1.1-0.3,1.4,0.1c0.8,0.9,2,1.5,3.2,1.5c1.3,0,2.6-0.6,3.9-1.2c1.3-0.6,2.5-1.2,4-1.3c0.9-0.1,1.8,0,2.6,0
					c0.7,0.1,1.4,0.1,2,0.1c1.7-0.1,3.2-0.9,4.9-1.8c0.9-0.5,1.9-1,2.9-1.3c2.6-1,5.4-1.2,8.1-1.4c0.6,0,1,0.4,1.1,1
					c0,0.3-0.1,0.5-0.3,0.7c-0.2,0.2-0.4,0.3-0.7,0.3c-2.5,0.2-5.2,0.3-7.5,1.2c-0.9,0.3-1.8,0.8-2.7,1.3c-1.8,0.9-3.6,1.8-5.7,2
					c-0.8,0.1-1.6,0-2.3-0.1c-0.8-0.1-1.5-0.1-2.3,0c-1.1,0.1-2.2,0.6-3.4,1.2C208.6,61.6,207.1,62.3,205.3,62.3z M205.3,61.4l0,0.3
					L205.3,61.4C205.3,61.4,205.3,61.4,205.3,61.4z M233.8,54.3L233.8,54.3L233.8,54.3L233.8,54.3z"/>
			</g>
			<g>
				<path class="st0" d="M234.9,53.2c-0.1,0-0.3-0.1-0.3-0.2c-0.1-0.2-0.1-0.5,0.1-0.6c1.7-1.3,3.9-2,5.7-2.6l10.1-3.2
					c1.7-0.5,3.5-1.1,5-2.2c0.7-0.5,1.3-1.1,1.9-1.8c0.4-0.5,0.9-0.9,1.4-1.3c2.5-2.2,5.7-3.3,8.5-4.3c0.2-0.1,0.5,0,0.6,0.3
					c0.1,0.2,0,0.5-0.3,0.6c-2.8,1-5.9,2-8.2,4.1c-0.5,0.4-0.9,0.9-1.3,1.3c-0.6,0.7-1.3,1.3-2,1.9c-1.6,1.2-3.5,1.8-5.3,2.3
					l-10.1,3.2c-1.9,0.6-3.9,1.2-5.5,2.4C235.1,53.2,235,53.2,234.9,53.2z"/>
				<path class="st0" d="M234.9,53.8c-0.3,0-0.6-0.2-0.8-0.4c-0.3-0.4-0.2-1.1,0.2-1.4c1.8-1.4,4-2,5.9-2.6l10.1-3.2
					c1.7-0.5,3.4-1.1,4.8-2.1c0.7-0.5,1.2-1.1,1.8-1.7c0.4-0.5,0.9-0.9,1.4-1.4c2.5-2.3,5.8-3.4,8.7-4.4c0.5-0.2,1.1,0.1,1.3,0.6
					c0.1,0.3,0.1,0.5,0,0.8c-0.1,0.2-0.3,0.4-0.6,0.5c-2.7,0.9-5.8,2-8,4c-0.4,0.4-0.9,0.8-1.3,1.3c-0.6,0.7-1.3,1.4-2.1,1.9
					c-1.7,1.2-3.7,1.9-5.4,2.4l-10.1,3.2c-1.9,0.6-3.8,1.2-5.3,2.3C235.3,53.7,235.1,53.8,234.9,53.8z M234.8,52.7
					C234.8,52.7,234.8,52.7,234.8,52.7C234.8,52.7,234.8,52.7,234.8,52.7z"/>
			</g>
			<g>
				<path class="st0" d="M261.3,47.2c-0.5,0-0.9,0-1.4-0.1c-0.2,0-0.4-0.3-0.4-0.5c0-0.2,0.2-0.4,0.5-0.4c1.2,0.2,2.5,0.2,3.2-0.6
					c0.3-0.3,0.4-0.8,0.5-1.2c0.1-0.4,0.2-0.7,0.4-1.1c0.5-1.1,1.6-1.7,2.6-2.3c0.9-0.5,1.7-1,2.2-1.7c0.1-0.2,0.4-0.3,0.6-0.1
					c0.2,0.1,0.3,0.4,0.1,0.6c-0.6,0.9-1.5,1.5-2.5,2c-0.9,0.5-1.8,1-2.2,1.9c-0.1,0.3-0.2,0.6-0.3,0.9c-0.1,0.5-0.3,1.1-0.7,1.5
					C263.3,47,262.3,47.2,261.3,47.2z"/>
				<path class="st0" d="M261.3,47.8c-0.4,0-0.9,0-1.5-0.1c-0.3,0-0.5-0.2-0.7-0.4c-0.2-0.2-0.2-0.5-0.2-0.8c0-0.3,0.2-0.5,0.4-0.7
					c0.2-0.2,0.5-0.2,0.8-0.2c1,0.1,2.2,0.2,2.6-0.4c0.2-0.2,0.3-0.6,0.4-1c0.1-0.4,0.2-0.8,0.4-1.2c0.6-1.2,1.8-1.9,2.8-2.5
					c0.8-0.5,1.6-0.9,1.9-1.5c0.3-0.5,0.9-0.6,1.4-0.3c0.2,0.1,0.4,0.4,0.5,0.6c0.1,0.3,0,0.5-0.1,0.8c-0.7,1.1-1.7,1.7-2.7,2.2
					c-0.9,0.5-1.6,1-2,1.6c-0.1,0.2-0.2,0.5-0.3,0.8c-0.2,0.6-0.3,1.2-0.8,1.8C263.7,47.4,262.7,47.8,261.3,47.8z"/>
			</g>
			<g>
				<path class="st0" d="M203.5,78.6c-1.5,0-2.9-0.3-4.2-1c-0.2-0.1-0.3-0.4-0.2-0.6c0.1-0.2,0.4-0.3,0.6-0.2
					c3.3,1.8,7.9,0.9,10.3-2c0.6-0.7,1.1-1.5,1.6-2.3c0.6-1,1.3-2.1,2.2-3c1.9-1.9,4.6-2.5,7.1-3.2c0.4-0.1,0.7-0.2,1.1-0.3
					c7.7-2,14.7-6.1,21.5-10c2.8-1.6,5.8-3.3,8.7-4.9c1.3-0.7,2.6-1.3,4-1.4c0.6-0.1,1.1,0,1.7,0c0.4,0,0.7,0,1.1,0
					c2.4,0,4.6-1.2,6.3-2.2c2.2-1.3,4.2-2.8,6.1-4.5c0.2-0.2,0.5-0.2,0.6,0c0.2,0.2,0.2,0.5,0,0.6c-1.9,1.8-4,3.3-6.3,4.6
					c-1.8,1-4.1,2.2-6.7,2.3c-0.4,0-0.7,0-1.1,0c-0.5,0-1-0.1-1.5,0c-1.3,0.1-2.5,0.7-3.7,1.3c-2.9,1.5-5.8,3.2-8.7,4.9
					c-6.8,4-13.9,8.1-21.7,10.1c-0.4,0.1-0.7,0.2-1.1,0.3c-2.4,0.6-5,1.2-6.7,2.9c-0.8,0.8-1.4,1.8-2,2.8c-0.5,0.8-1,1.7-1.7,2.4
					C208.9,77.5,206.2,78.6,203.5,78.6z"/>
				<path class="st0" d="M203.5,79.2c-1.6,0-3.1-0.4-4.5-1.1c-0.5-0.3-0.7-0.9-0.4-1.4c0.3-0.5,0.9-0.7,1.4-0.4
					c3.1,1.6,7.3,0.8,9.6-1.8c0.6-0.7,1.1-1.5,1.5-2.2c0.7-1.1,1.3-2.2,2.3-3.1c2-2,4.7-2.7,7.4-3.3c0.4-0.1,0.7-0.2,1.1-0.3
					c7.6-2,14.6-6,21.3-10c2.9-1.7,5.8-3.4,8.7-4.9c1.4-0.7,2.7-1.4,4.3-1.5c0.6-0.1,1.2,0,1.7,0c0.4,0,0.7,0,1,0
					c2.3,0,4.4-1.1,6-2.1c2.2-1.3,4.2-2.8,6-4.4c0.4-0.4,1.1-0.4,1.4,0.1c0.2,0.2,0.3,0.5,0.3,0.7c0,0.3-0.1,0.5-0.3,0.7
					c-1.9,1.8-4.1,3.4-6.4,4.7c-1.8,1.1-4.3,2.3-7,2.4c-0.4,0-0.8,0-1.1,0c-0.5,0-1,0-1.4,0c-1.2,0.1-2.3,0.7-3.5,1.3
					c-2.9,1.5-5.8,3.2-8.6,4.8c-6.9,4-14,8.1-21.8,10.2c-0.4,0.1-0.7,0.2-1.1,0.3c-2.4,0.6-4.8,1.2-6.4,2.8
					c-0.8,0.7-1.3,1.7-1.9,2.7c-0.5,0.9-1.1,1.7-1.7,2.5C209.3,77.9,206.4,79.2,203.5,79.2z M271.5,43.3L271.5,43.3L271.5,43.3
					L271.5,43.3z"/>
			</g>
			<g>
				<path class="st0" d="M195.5,72.4C195.5,72.4,195.5,72.4,195.5,72.4c-0.3,0-0.4-0.2-0.4-0.5c0.1-1.4,0-2.8-0.1-4.2
					c0-0.2,0.2-0.4,0.4-0.5c0.2,0,0.4,0.2,0.5,0.4c0.1,1.4,0.1,2.8,0.1,4.3C195.9,72.2,195.7,72.4,195.5,72.4z"/>
				<path class="st0" d="M195.5,73L195.5,73c-0.3,0-0.6-0.1-0.8-0.3c-0.2-0.2-0.3-0.5-0.3-0.7c0.1-1.4,0-2.7-0.1-4.1
					c0-0.3,0.1-0.5,0.2-0.7c0.2-0.2,0.4-0.3,0.7-0.4c0.5,0,1.1,0.4,1.1,0.9c0.1,1.4,0.1,2.9,0.1,4.3C196.5,72.6,196,73,195.5,73z"/>
			</g>
			<g>
				<path class="st0" d="M195.7,99.1c-0.2,0-0.3-0.1-0.4-0.3l-0.7-2.1c-0.1-0.2,0-0.5,0.3-0.6c0.2-0.1,0.5,0,0.6,0.3l0.7,2.1
					c0.1,0.2,0,0.5-0.3,0.6C195.8,99.1,195.7,99.1,195.7,99.1z"/>
				<path class="st0" d="M195.7,99.7c-0.4,0-0.8-0.3-1-0.7l-0.7-2.1c-0.1-0.3-0.1-0.5,0-0.8c0.1-0.2,0.3-0.4,0.6-0.5
					c0.5-0.2,1.1,0.1,1.3,0.6l0.7,2.1c0.2,0.5-0.1,1.1-0.6,1.3C195.9,99.6,195.8,99.7,195.7,99.7z"/>
			</g>
			<g>
				<path class="st0" d="M126.8,62.6c0,0-0.1,0-0.1,0c-2.9-1-5.9-1.7-9-2.1c-0.2,0-0.4-0.2-0.4-0.5c0-0.2,0.2-0.4,0.5-0.4
					c3.1,0.4,6.2,1.1,9.2,2.1c0.2,0.1,0.3,0.3,0.3,0.6C127.1,62.4,127,62.6,126.8,62.6z"/>
				<path class="st0" d="M126.8,63.1c-0.1,0-0.2,0-0.3-0.1c-2.9-1-5.8-1.7-8.8-2c-0.6-0.1-1-0.6-0.9-1.1c0-0.3,0.2-0.5,0.4-0.7
					c0.2-0.2,0.5-0.2,0.7-0.2c3.2,0.4,6.3,1.1,9.3,2.1c0.3,0.1,0.5,0.3,0.6,0.5c0.1,0.2,0.1,0.5,0,0.8
					C127.6,62.9,127.2,63.1,126.8,63.1z M117.7,60.2L117.7,60.2L117.7,60.2z"/>
			</g>
			<g>
				<path class="st0" d="M135.8,65.8C135.8,65.8,135.8,65.8,135.8,65.8c-2.1,0-4.1-0.5-6-1.1c-0.7-0.2-1.4-0.4-2.1-0.5
					c-3.3-0.8-5.8-0.6-7.6,0.5c-0.2,0.1-0.5,0.1-0.6-0.2c-0.1-0.2-0.1-0.5,0.2-0.6c2.1-1.2,4.8-1.4,8.3-0.6c0.7,0.2,1.4,0.4,2.2,0.6
					c1.9,0.5,3.8,1,5.7,1c0.9,0,1.8-0.1,2.7-0.2c0.4,0,0.8-0.1,1.2-0.1c3-0.3,6-0.1,9,0.1c2.9,0.2,5.8,0.4,8.7,0.1
					c0.6-0.1,1.3-0.1,1.9-0.2c0.8-0.1,1.7-0.2,2.6-0.3c1.3-0.1,2.6-0.1,3.9,0c1.5,0,3.1,0.1,4.7-0.1c1.4-0.2,2.8-0.5,4.2-0.9
					c0.8-0.2,1.7-0.4,2.6-0.6c2.9-0.6,5.2-0.5,7.2,0.3c0.2,0.1,0.5,0.2,0.7,0.3c0.9,0.4,1.7,0.8,2.5,0.6c0.2-0.1,0.5,0.1,0.5,0.3
					c0.1,0.2-0.1,0.5-0.3,0.5c-1.1,0.3-2.2-0.2-3.1-0.6c-0.2-0.1-0.5-0.2-0.7-0.3c-1.8-0.7-3.9-0.8-6.7-0.3
					c-0.9,0.2-1.7,0.4-2.6,0.6c-1.4,0.3-2.9,0.7-4.3,0.9c-1.6,0.2-3.2,0.1-4.8,0.1c-1.3,0-2.6-0.1-3.9,0c-0.8,0.1-1.7,0.2-2.5,0.3
					c-0.6,0.1-1.3,0.2-1.9,0.2c-2.9,0.3-5.9,0.1-8.8-0.1c-2.9-0.2-5.9-0.4-8.9-0.1c-0.4,0-0.8,0.1-1.1,0.1
					C137.7,65.6,136.8,65.8,135.8,65.8z"/>
				<path class="st0" d="M135.8,66.3L135.8,66.3c-2.1,0-4.2-0.5-6.1-1.1c-0.7-0.2-1.4-0.4-2.1-0.5c-3.1-0.7-5.5-0.6-7.2,0.4
					c-0.5,0.3-1.1,0.1-1.4-0.4c-0.1-0.2-0.2-0.5-0.1-0.8c0.1-0.3,0.2-0.5,0.5-0.6c2.2-1.3,5-1.5,8.7-0.6c0.7,0.2,1.4,0.4,2.1,0.5
					c1.9,0.5,3.8,1,5.6,1c0.8,0,1.6-0.1,2.4-0.2l0.3,0c0.4,0,0.8-0.1,1.2-0.1c3-0.3,6.1-0.1,9.1,0.1c2.9,0.2,5.8,0.4,8.6,0.1
					c0.6-0.1,1.3-0.1,1.9-0.2c0.9-0.1,1.7-0.2,2.6-0.3c1.3-0.1,2.7-0.1,4,0c1.5,0,3.1,0.1,4.6-0.1c1.4-0.2,2.8-0.5,4.2-0.8
					c0.9-0.2,1.8-0.4,2.6-0.6c3.1-0.6,5.5-0.5,7.5,0.3c0.2,0.1,0.5,0.2,0.7,0.3c0.8,0.4,1.5,0.7,2.1,0.5c0.5-0.2,1.1,0.2,1.3,0.7
					c0.1,0.3,0,0.5-0.1,0.8c-0.1,0.2-0.4,0.4-0.6,0.5c-1.3,0.4-2.5-0.2-3.5-0.6c-0.2-0.1-0.5-0.2-0.7-0.3c-1.7-0.7-3.7-0.7-6.3-0.2
					c-0.8,0.2-1.7,0.4-2.5,0.6c-1.4,0.4-2.9,0.7-4.4,0.9c-1.6,0.2-3.3,0.1-4.9,0.1c-1.3,0-2.5-0.1-3.8,0c-0.8,0.1-1.7,0.2-2.5,0.3
					c-0.6,0.1-1.3,0.2-1.9,0.2c-3,0.3-6,0.1-8.9-0.1c-2.9-0.2-5.9-0.4-8.8-0.1c-0.4,0-0.8,0.1-1.1,0.1
					C137.8,66.2,136.8,66.3,135.8,66.3z M135.8,65.5l0,0.3L135.8,65.5C135.8,65.5,135.8,65.5,135.8,65.5z"/>
			</g>
			<g>
				<path class="st0" d="M185.6,102.5c-0.1,0-0.3-0.1-0.3-0.2c-0.2-0.2-0.5-0.4-0.9-0.5c-0.4-0.1-0.8-0.3-1.1-0.6
					c-0.5-0.4-0.7-1.1-0.7-1.5c-0.4-2.2,0.2-4.3,0.7-5.8l0-0.1c0.2-0.5,0.3-0.9,0.3-1.3c0-0.2,0.1-0.5,0.4-0.5
					c0.2,0,0.5,0.1,0.5,0.4c0.1,0.6-0.1,1.2-0.3,1.8l0,0.1c-0.5,1.4-1.1,3.4-0.7,5.3c0.1,0.5,0.3,0.9,0.5,1.1
					c0.2,0.2,0.5,0.3,0.8,0.4c0.4,0.2,0.9,0.3,1.3,0.8c0.2,0.2,0.1,0.5-0.1,0.6C185.8,102.4,185.7,102.5,185.6,102.5z"/>
				<path class="st0" d="M185.6,103c-0.3,0-0.6-0.1-0.8-0.4c-0.1-0.1-0.4-0.2-0.6-0.3c-0.4-0.1-0.9-0.3-1.3-0.7
					c-0.6-0.6-0.8-1.3-0.9-1.8c-0.5-2.3,0.2-4.6,0.8-6.1c0.2-0.5,0.3-0.8,0.3-1.1c0-0.3,0-0.5,0.2-0.8c0.2-0.2,0.4-0.4,0.7-0.4
					c0.3,0,0.5,0,0.8,0.2c0.2,0.2,0.4,0.4,0.4,0.7c0.1,0.8-0.1,1.5-0.3,2c-0.5,1.4-1.1,3.3-0.7,5.1c0.1,0.4,0.2,0.6,0.3,0.7
					c0.1,0.1,0.4,0.2,0.6,0.3c0.5,0.2,1.1,0.4,1.5,0.9c0.4,0.4,0.3,1.1-0.2,1.4C186.1,103,185.8,103,185.6,103z"/>
			</g>
			<g>
				<path class="st0" d="M188.8,109.7c-0.2,0-0.4-0.2-0.4-0.4c-0.2-1.8-0.5-3.5-1.6-4.5c-0.2-0.2-0.2-0.4,0-0.6
					c0.2-0.2,0.4-0.2,0.6,0c1.4,1.2,1.7,3.2,1.9,5.1C189.3,109.5,189.1,109.7,188.8,109.7C188.9,109.7,188.8,109.7,188.8,109.7z"/>
				<path class="st0" d="M188.8,110.3c-0.5,0-1-0.4-1-0.9c-0.2-1.7-0.4-3.3-1.4-4.2c-0.2-0.2-0.3-0.4-0.3-0.7c0-0.3,0.1-0.5,0.3-0.7
					c0.4-0.4,1-0.5,1.4-0.1c1.5,1.4,1.9,3.5,2.1,5.5c0.1,0.6-0.3,1.1-0.9,1.1L188.8,110.3z M189,109.3
					C189,109.3,189,109.3,189,109.3C189,109.3,189,109.3,189,109.3z"/>
			</g>
			<g>
				<path class="st0" d="M202.1,109.1c-0.1,0-0.2,0-0.3-0.1c-0.2-0.2-0.2-0.4,0-0.6c1.1-1.2,1.7-2.8,1.8-4.4c0-0.2,0.2-0.4,0.5-0.4
					c0.2,0,0.4,0.2,0.4,0.5c-0.1,1.8-0.8,3.5-2,4.9C202.4,109.1,202.3,109.1,202.1,109.1z"/>
				<path class="st0" d="M202.2,109.7c-0.2,0-0.5-0.1-0.7-0.3c-0.2-0.2-0.3-0.4-0.3-0.7c0-0.3,0.1-0.5,0.3-0.7c1-1.1,1.5-2.5,1.6-4
					c0-0.6,0.5-1,1.1-1c0.3,0,0.5,0.1,0.7,0.3c0.2,0.2,0.3,0.5,0.3,0.7c-0.1,1.9-0.8,3.8-2.1,5.3
					C202.7,109.6,202.4,109.7,202.2,109.7z"/>
			</g>
			<g>
				<path class="st0" d="M206.6,102.2c-0.2,0-0.4-0.1-0.4-0.4c0-0.2,0.1-0.5,0.4-0.5c0.5-0.1,0.9-0.5,1.1-1.1
					c0.2-0.6,0.2-1.3,0.1-1.9c-0.1-1.6-0.5-3.1-1-4.6c-0.2-0.5-0.3-0.9-0.7-1.1c-0.2-0.1-0.3-0.4-0.2-0.6c0.1-0.2,0.4-0.3,0.6-0.2
					c0.6,0.3,0.9,1,1.1,1.6c0.5,1.6,0.9,3.2,1,4.8c0.1,0.7,0.1,1.5-0.2,2.3C208.2,101.4,207.5,102,206.6,102.2
					C206.7,102.2,206.7,102.2,206.6,102.2z"/>
				<path class="st0" d="M206.6,102.8c-0.5,0-0.9-0.4-1-0.8c0-0.3,0-0.5,0.2-0.8c0.2-0.2,0.4-0.4,0.7-0.4c0.3,0,0.5-0.3,0.7-0.7
					c0.2-0.5,0.2-1.1,0.1-1.7c-0.1-1.5-0.4-3-0.9-4.5c-0.1-0.4-0.3-0.7-0.4-0.8c-0.5-0.3-0.7-0.9-0.4-1.4c0.3-0.5,0.9-0.7,1.4-0.4
					c0.8,0.4,1.2,1.2,1.4,1.9c0.5,1.6,0.9,3.3,1,5c0.1,0.8,0.1,1.7-0.2,2.5c-0.4,1.1-1.2,1.9-2.2,2L206.6,102.8z M206.7,101.9
					C206.7,101.9,206.7,101.9,206.7,101.9L206.7,101.9L206.7,101.9z"/>
			</g>
			<g>
				<path class="st0" d="M183.7,147.6c-0.2,0-0.3-0.1-0.4-0.3c-1.7-4.2-2.7-8.5-3-13c-0.2-2.3-0.1-4.6-0.1-6.8l0.1-14.1
					c0-3.1,0.1-6.7,1.4-9.8c0.1-0.2,0.3-0.3,0.6-0.2c0.2,0.1,0.3,0.3,0.2,0.6c-1.2,3-1.3,6.4-1.3,9.5l-0.1,14.1c0,2.2,0,4.5,0.1,6.7
					c0.3,4.4,1.3,8.7,2.9,12.8c0.1,0.2,0,0.5-0.2,0.6C183.8,147.6,183.8,147.6,183.7,147.6z"/>
				<path class="st0" d="M183.7,148.2c-0.4,0-0.8-0.3-0.9-0.6c-1.7-4.2-2.7-8.7-3-13.2c-0.2-2.3-0.1-4.6-0.1-6.8l0.1-14.2
					c0-3.2,0.1-6.8,1.4-10c0.1-0.3,0.3-0.4,0.6-0.6c0.3-0.1,0.5-0.1,0.8,0c0.3,0.1,0.4,0.3,0.6,0.6c0.1,0.3,0.1,0.5,0,0.8
					c-1.2,2.9-1.2,6.3-1.3,9.3l-0.1,14.1c0,2.2,0,4.5,0.1,6.7c0.3,4.3,1.3,8.6,2.9,12.6c0.2,0.5,0,1.1-0.6,1.3
					C184,148.2,183.8,148.2,183.7,148.2z M183.8,147.1L183.8,147.1L183.8,147.1z"/>
			</g>
			<g>
				<path class="st0" d="M184.7,197c-0.2,0-0.4-0.2-0.4-0.4c0-1.6,0.1-3.1,0.3-4.6c0.2-1.9,0.4-4,0.2-5.9c-0.3-2.8-1.5-5.4-2.6-7.9
					c-0.6-1.4-1.3-2.9-1.8-4.4c-1.6-4.8-1.8-10.2-0.5-15.1c0.1-0.4,0.2-0.8,0.3-1.2c0.3-1,0.6-2.1,0.7-3.1c0.1-0.9,0.1-1.8,0.1-2.7
					c0-1.2,0-2.4,0.2-3.6c0.1-0.2,0.3-0.4,0.5-0.3c0.2,0.1,0.4,0.3,0.3,0.5c-0.2,1.1-0.2,2.2-0.2,3.4c0,0.9,0,1.9-0.1,2.8
					c-0.1,1.1-0.4,2.2-0.8,3.3c-0.1,0.4-0.2,0.8-0.3,1.2c-1.3,4.8-1.1,10,0.5,14.6c0.5,1.5,1.1,2.9,1.7,4.3c1.1,2.6,2.3,5.3,2.6,8.2
					c0.2,2,0,4.1-0.2,6.1c-0.1,1.5-0.3,3-0.3,4.5C185.1,196.8,184.9,197,184.7,197C184.7,197,184.7,197,184.7,197z"/>
				<path class="st0" d="M184.7,197.6L184.7,197.6c-0.6,0-1-0.4-1-1c0-1.6,0.1-3.2,0.3-4.7c0.2-1.9,0.4-3.9,0.2-5.8
					c-0.3-2.7-1.4-5.3-2.5-7.8c-0.6-1.5-1.3-2.9-1.8-4.5c-1.6-4.9-1.8-10.4-0.5-15.5c0.1-0.4,0.2-0.8,0.4-1.3c0.3-1,0.6-2,0.7-3
					c0.1-0.8,0.1-1.8,0.1-2.6c0-1.2,0-2.5,0.2-3.8c0.1-0.3,0.2-0.5,0.4-0.6c0.2-0.1,0.5-0.2,0.8-0.1c0.5,0.1,0.9,0.7,0.8,1.2
					c-0.2,1-0.2,2.1-0.2,3.3c0,0.9,0,1.9-0.1,2.9c-0.1,1.2-0.5,2.3-0.8,3.4c-0.1,0.4-0.2,0.8-0.3,1.2c-1.2,4.7-1.1,9.7,0.5,14.3
					c0.5,1.4,1.1,2.9,1.7,4.3c1.2,2.7,2.3,5.4,2.7,8.4c0.2,2.1,0,4.2-0.2,6.2c-0.1,1.5-0.3,3-0.3,4.5
					C185.7,197.1,185.2,197.6,184.7,197.6L184.7,197.6z"/>
			</g>
			<g>
				<path class="st0" d="M195.5,197.4c-0.2,0-0.3-0.1-0.4-0.3l-2.5-5.9c-0.8-1.8-1.5-3.6-2.1-5.4c-1.1-3.8-1.1-7.8-1.1-11.6
					c0-2.8,0-5.6-0.4-8.4c-0.1-0.6-0.2-1.2-0.3-1.8c-0.2-1.1-0.4-2.3-0.5-3.4c-0.2-2.3,0.2-4.7,0.9-6.8c0.2-0.7,0.5-1.4,0.8-2
					c0.5-1.2,1-2.4,1.3-3.6c0.3-1.7,0.1-3.6-0.1-5.4c-0.3-2.1-0.5-4.2,0.1-6.3c0.3-1.1,0.9-2.2,1.4-3.2c0.3-0.6,0.6-1.2,0.9-1.8
					c0.9-1.9,1.2-4.1,1.1-6.2c0-0.2,0.2-0.4,0.4-0.5c0.2,0,0.4,0.2,0.5,0.4c0.2,2.3-0.2,4.5-1.1,6.6c-0.3,0.6-0.6,1.2-0.9,1.8
					c-0.6,1-1.1,2-1.4,3c-0.5,1.9-0.3,3.9,0,6c0.2,1.8,0.5,3.8,0.1,5.6c-0.3,1.3-0.8,2.6-1.3,3.8c-0.3,0.6-0.6,1.3-0.8,2
					c-0.7,2.1-1,4.3-0.9,6.5c0.1,1.1,0.3,2.2,0.5,3.3c0.1,0.6,0.2,1.2,0.3,1.8c0.4,2.8,0.4,5.7,0.4,8.5c0,3.8,0,7.7,1.1,11.4
					c0.5,1.8,1.3,3.6,2,5.3l2.5,5.9c0.1,0.2,0,0.5-0.2,0.6C195.6,197.4,195.5,197.4,195.5,197.4z"/>
				<path class="st0" d="M195.5,198c-0.4,0-0.8-0.2-0.9-0.6l-2.5-5.9c-0.8-1.8-1.5-3.6-2.1-5.5c-1.1-3.9-1.1-7.9-1.1-11.8
					c0-2.8,0-5.6-0.4-8.3c-0.1-0.6-0.2-1.2-0.3-1.8c-0.2-1.1-0.4-2.3-0.5-3.5c-0.2-2.4,0.2-4.8,1-7.1c0.3-0.7,0.6-1.4,0.8-2.1
					c0.5-1.2,1-2.3,1.2-3.5c0.3-1.6,0.1-3.4-0.1-5.2c-0.3-2.1-0.5-4.4,0.1-6.5c0.3-1.2,0.9-2.3,1.5-3.3c0.3-0.5,0.6-1.1,0.9-1.7
					c0.8-1.8,1.2-3.9,1-5.9c0-0.6,0.4-1.1,0.9-1.1c0.6,0,1.1,0.4,1.1,0.9c0.2,2.4-0.2,4.7-1.2,6.9c-0.3,0.6-0.6,1.3-1,1.9
					c-0.6,1-1.1,1.9-1.3,2.9c-0.5,1.8-0.3,3.7,0,5.7c0.2,1.9,0.5,3.9,0.1,5.8c-0.3,1.4-0.8,2.7-1.4,3.9c-0.3,0.6-0.6,1.3-0.8,1.9
					c-0.7,2-1,4.1-0.9,6.2c0.1,1.1,0.3,2.2,0.5,3.3c0.1,0.6,0.2,1.2,0.3,1.8c0.4,2.9,0.4,5.8,0.5,8.6c0,3.8,0,7.7,1.1,11.3
					c0.5,1.8,1.3,3.6,2,5.3l2.5,5.9c0.1,0.2,0.1,0.5,0,0.8c-0.1,0.3-0.3,0.5-0.5,0.6C195.8,197.9,195.6,198,195.5,198z"/>
			</g>
			<g>
				<path class="st0" d="M197.5,196.1c-0.2,0-0.4-0.2-0.4-0.4c-0.1-3.8-0.2-7.8-1.3-11.5c-0.1-0.3-0.2-0.7-0.3-1
					c-0.2-0.5-0.3-1-0.4-1.5c-0.5-2-0.7-4-0.8-6c0-0.2,0.2-0.4,0.4-0.5c0.2,0,0.4,0.2,0.5,0.4c0.1,1.9,0.3,3.9,0.8,5.8
					c0.1,0.5,0.3,1,0.4,1.4c0.1,0.3,0.2,0.7,0.3,1c1.1,3.8,1.2,7.8,1.3,11.7C198,195.9,197.8,196.1,197.5,196.1
					C197.5,196.1,197.5,196.1,197.5,196.1z"/>
				<path class="st0" d="M197.5,196.7L197.5,196.7c-0.6,0-1-0.4-1-1c-0.1-3.8-0.2-7.7-1.3-11.4c-0.1-0.3-0.2-0.7-0.3-1
					c-0.2-0.5-0.3-1-0.4-1.5c-0.5-2-0.7-4.1-0.8-6.1c0-0.3,0.1-0.5,0.2-0.7c0.2-0.2,0.4-0.3,0.7-0.4c0.6,0,1.1,0.4,1.1,0.9
					c0.1,1.9,0.3,3.9,0.8,5.7c0.1,0.4,0.3,0.9,0.4,1.3c0.1,0.4,0.3,0.8,0.4,1.2c1.1,3.9,1.2,8,1.3,11.9c0,0.3-0.1,0.5-0.3,0.7
					C198.1,196.6,197.8,196.7,197.5,196.7L197.5,196.7z"/>
			</g>
			<g>
				<path class="st0" d="M194.6,173.6c-0.2,0-0.3-0.1-0.4-0.3c-1.8-4.4-2.1-9.3-1-13.9c0.1-0.5,0.2-0.9,0.4-1.4
					c0.4-1.3,0.7-2.5,0.7-3.8c0-0.9-0.1-1.7-0.3-2.6c-0.1-0.6-0.2-1.3-0.2-1.9c-0.1-1.3,0-2.7,0.2-4c0.1-0.9,0.2-1.8,0.2-2.7
					c0-2.2-0.4-4.5-0.9-6.7c0-0.2,0.1-0.5,0.3-0.5c0.2,0,0.5,0.1,0.5,0.3c0.5,2.2,0.9,4.5,0.9,6.9c0,0.9-0.1,1.9-0.2,2.8
					c-0.1,1.3-0.3,2.5-0.2,3.8c0,0.6,0.1,1.2,0.2,1.8c0.1,0.9,0.3,1.8,0.3,2.7c0,1.4-0.4,2.7-0.8,4c-0.1,0.4-0.3,0.9-0.4,1.3
					c-1.1,4.4-0.8,9.2,0.9,13.4c0.1,0.2,0,0.5-0.2,0.6C194.7,173.6,194.6,173.6,194.6,173.6z"/>
				<path class="st0" d="M194.6,174.2c-0.4,0-0.8-0.2-0.9-0.6c-1.8-4.5-2.2-9.6-1-14.3c0.1-0.5,0.2-0.9,0.4-1.4
					c0.4-1.3,0.7-2.4,0.7-3.6c0-0.8-0.1-1.6-0.3-2.5c-0.1-0.6-0.2-1.3-0.3-2c-0.1-1.4,0-2.8,0.2-4.1c0.1-0.9,0.2-1.8,0.2-2.7
					c0-2.2-0.4-4.4-0.9-6.6c-0.1-0.3,0-0.5,0.1-0.8c0.1-0.2,0.4-0.4,0.6-0.4c0.6-0.1,1.1,0.2,1.2,0.8c0.5,2.3,1,4.6,0.9,7
					c0,1-0.1,2-0.2,2.8c-0.1,1.2-0.3,2.5-0.2,3.7c0,0.6,0.1,1.2,0.2,1.8c0.1,0.9,0.3,1.9,0.3,2.9c0,1.5-0.4,2.8-0.8,4.1
					c-0.1,0.5-0.3,0.9-0.4,1.3c-1.1,4.3-0.7,8.9,0.9,13c0.1,0.3,0.1,0.5,0,0.8c-0.1,0.3-0.3,0.4-0.6,0.5
					C194.8,174.1,194.7,174.2,194.6,174.2z M193.6,136.3C193.6,136.3,193.6,136.3,193.6,136.3S193.6,136.3,193.6,136.3z"/>
			</g>
			<g>
				<path class="st0" d="M220.3,197c0,0-0.1,0-0.1,0l-11-3.7c-1.6-0.5-3.5-1.2-4.7-2.7c-1.2-1.5-1.4-3.5-1.5-5.6
					c-0.5-9.1-0.4-18.3,0.3-27.4c0.3-4.1,0.7-8.8,2.3-13.2c0.2-0.6,0.4-1.1,0.6-1.7c0.5-1.2,0.9-2.4,1.2-3.7
					c0.4-1.8,0.4-3.8,0.4-5.6c0-10.1-0.1-20.1-0.1-30.2c0-0.2,0.2-0.4,0.4-0.4c0,0,0,0,0,0c0.2,0,0.4,0.2,0.4,0.4
					c0.1,10.1,0.1,20.1,0.1,30.2c0,1.9,0,3.9-0.4,5.8c-0.3,1.3-0.8,2.6-1.2,3.8c-0.2,0.6-0.4,1.1-0.6,1.7c-1.5,4.3-1.9,9-2.2,13
					c-0.7,9-0.7,18.2-0.3,27.3c0.1,1.9,0.3,3.7,1.3,5.1c1.1,1.3,2.9,1.9,4.3,2.4l11,3.7c0.2,0.1,0.4,0.3,0.3,0.6
					C220.7,196.9,220.5,197,220.3,197z"/>
				<path class="st0" d="M220.3,197.6c-0.1,0-0.2,0-0.3-0.1l-11-3.7c-1.6-0.6-3.7-1.2-5-2.9c-1.3-1.7-1.5-3.7-1.7-5.9
					c-0.5-9.1-0.4-18.3,0.3-27.4c0.3-4.1,0.7-8.9,2.3-13.4c0.2-0.6,0.4-1.1,0.6-1.7c0.5-1.2,0.9-2.4,1.2-3.6
					c0.4-1.8,0.4-3.7,0.4-5.5c0-10.1-0.1-20.1-0.1-30.2c0-0.3,0.1-0.5,0.3-0.7c0.2-0.2,0.4-0.3,0.7-0.3c0.6,0,1,0.5,1,1
					c0.1,10.1,0.1,20.1,0.1,30.2c0,1.9,0,3.9-0.4,5.9c-0.3,1.4-0.8,2.6-1.3,3.9c-0.2,0.6-0.4,1.1-0.6,1.7c-1.5,4.2-1.9,8.8-2.2,12.8
					c-0.6,9-0.7,18.2-0.3,27.2c0.1,1.8,0.3,3.5,1.2,4.7c0.9,1.2,2.7,1.8,4.1,2.2l11,3.7c0.3,0.1,0.5,0.3,0.6,0.5
					c0.1,0.2,0.1,0.5,0.1,0.8C221.2,197.3,220.8,197.6,220.3,197.6z M208.1,103.3C208.1,103.3,208.1,103.3,208.1,103.3
					C208.1,103.3,208.1,103.3,208.1,103.3z"/>
			</g>
			<g>
				<path class="st0" d="M221.1,166.5c-0.1,0-0.3-0.1-0.3-0.2c-5.1-6.6-8.7-14.3-10.6-22.4l-0.1-0.4c-0.2-1-0.5-2.1-0.9-3
					c-0.6-1.2-1.6-2.2-2.5-3.1c-0.2-0.2-0.4-0.4-0.5-0.5c-3.4-3.6-6.1-7.9-7.8-12.6c-0.1-0.2,0-0.5,0.3-0.6c0.2-0.1,0.5,0,0.6,0.3
					c1.6,4.5,4.3,8.8,7.6,12.3c0.2,0.2,0.4,0.4,0.5,0.5c1,1,2,2,2.6,3.3c0.5,1,0.8,2.1,1,3.2l0.1,0.4c1.8,8,5.4,15.6,10.4,22.1
					c0.1,0.2,0.1,0.5-0.1,0.6C221.3,166.5,221.2,166.5,221.1,166.5z"/>
				<path class="st0" d="M221.1,167.1c-0.3,0-0.6-0.1-0.8-0.4c-5.1-6.6-8.8-14.5-10.7-22.7l-0.1-0.4c-0.2-1-0.4-2-0.9-2.9
					c-0.5-1.1-1.5-2-2.4-3l-0.5-0.6c-3.5-3.6-6.2-8.1-7.9-12.8c-0.1-0.3-0.1-0.5,0-0.8c0.1-0.2,0.3-0.4,0.6-0.5
					c0.5-0.2,1.1,0.1,1.3,0.6c1.6,4.5,4.2,8.6,7.5,12.1l0.5,0.5c1,1,2.1,2.1,2.8,3.5c0.5,1.1,0.8,2.2,1,3.4l0.1,0.4
					c1.8,7.9,5.3,15.5,10.3,21.9c0.2,0.2,0.2,0.5,0.2,0.8c0,0.3-0.2,0.5-0.4,0.7C221.6,167.1,221.3,167.1,221.1,167.1z"/>
			</g>
			<g>
				<path class="st0" d="M235.2,190C235.2,190,235.2,190,235.2,190c-2-0.3-3-2.4-3.3-4.2c-0.1-0.5-0.1-1-0.2-1.5
					c-0.1-1.2-0.2-2.4-0.7-3.3c-0.4-0.8-1.1-1.4-1.9-2.1c-0.1-0.1-0.3-0.2-0.4-0.4c-2.2-2.1-4.1-4.5-5.4-7.2
					c-0.4-0.8-0.7-1.7-0.4-2.5c0.1-0.2,0.3-0.3,0.6-0.2c0.2,0.1,0.3,0.3,0.2,0.6c-0.2,0.5,0.1,1.2,0.4,1.8c1.3,2.6,3.1,5,5.2,7
					c0.1,0.1,0.3,0.2,0.4,0.3c0.8,0.7,1.6,1.4,2.1,2.4c0.6,1.1,0.7,2.4,0.8,3.7c0,0.5,0.1,1,0.2,1.4c0.2,1.4,1,3.2,2.5,3.4
					c0.2,0,0.4,0.3,0.4,0.5C235.6,189.9,235.5,190,235.2,190z"/>
				<path class="st0" d="M235.2,190.6l-0.2,0c-2.3-0.4-3.4-2.7-3.7-4.7c-0.1-0.5-0.1-1-0.2-1.5c-0.1-1.2-0.2-2.2-0.7-3.1
					c-0.4-0.7-1.1-1.3-1.8-2l-0.4-0.4c-2.3-2.1-4.2-4.6-5.6-7.4c-0.4-0.8-0.8-1.9-0.4-3c0.2-0.5,0.8-0.8,1.3-0.6
					c0.3,0.1,0.5,0.3,0.6,0.5c0.1,0.3,0.1,0.5,0,0.8c-0.1,0.4,0.2,1.1,0.3,1.3c1.3,2.6,3,4.9,5.1,6.8l0.4,0.3
					c0.8,0.7,1.6,1.5,2.2,2.5c0.7,1.3,0.8,2.6,0.9,3.9c0,0.5,0.1,0.9,0.1,1.4c0.2,1.3,0.9,2.8,2,2.9c0.6,0.1,0.9,0.6,0.9,1.2
					C236.2,190.2,235.8,190.6,235.2,190.6z"/>
			</g>
			<g>
				<path class="st0" d="M236.1,176.6c-0.1,0-0.3-0.1-0.3-0.2c-2-2.7-3-6-4-9.2c-0.9-2.8-1.8-5.7-3.4-8.2c-0.7-1-1.4-1.9-2.2-2.9
					c-1-1.2-2-2.4-2.8-3.8c-1.2-2.1-1.7-4.5-2.3-6.8l-2.4-10.2c-1.1-4.7-2.2-9.5-4.2-13.9c-0.4-0.9-0.9-1.8-1.4-2.7
					c-1.6-3.1-3.3-6.3-3.2-9.9c0-0.2,0.2-0.4,0.4-0.4c0.2,0,0.4,0.2,0.4,0.4c0,3.3,1.6,6.5,3.1,9.5c0.5,0.9,0.9,1.8,1.4,2.8
					c2.1,4.5,3.2,9.3,4.3,14l2.4,10.2c0.5,2.2,1.1,4.6,2.2,6.6c0.7,1.3,1.7,2.5,2.7,3.7c0.8,0.9,1.6,1.9,2.2,2.9
					c1.7,2.6,2.6,5.5,3.5,8.4c1,3.1,2,6.3,3.9,8.9c0.1,0.2,0.1,0.5-0.1,0.6C236.2,176.5,236.2,176.6,236.1,176.6z"/>
				<path class="st0" d="M236.1,177.2c-0.3,0-0.6-0.2-0.8-0.4c-2.1-2.8-3.1-6.1-4.1-9.3c-0.9-2.8-1.8-5.7-3.3-8.1
					c-0.6-1-1.4-1.9-2.1-2.8c-1-1.2-2-2.5-2.8-3.9c-1.2-2.2-1.8-4.6-2.3-7l-2.4-10.2c-1.1-4.6-2.2-9.4-4.2-13.7
					c-0.4-0.9-0.9-1.8-1.3-2.7c-1.6-3.2-3.3-6.5-3.3-10.2c0-0.6,0.5-1,1-1c0.3,0,0.5,0.1,0.7,0.3c0.2,0.2,0.3,0.5,0.3,0.7
					c0,3.2,1.5,6.3,3.1,9.2c0.5,0.9,1,1.8,1.4,2.8c2.1,4.5,3.2,9.4,4.3,14.1l2.4,10.2c0.5,2.2,1.1,4.5,2.1,6.5
					c0.7,1.3,1.7,2.4,2.6,3.6c0.8,1,1.6,1.9,2.3,3c1.7,2.6,2.7,5.6,3.6,8.6c1,3.1,1.9,6.2,3.8,8.8c0.3,0.5,0.2,1.1-0.2,1.4
					C236.5,177.1,236.3,177.2,236.1,177.2z"/>
			</g>
			<g>
				<path class="st0" d="M250.6,179.8c-0.1,0-0.3-0.1-0.4-0.2c-0.3-0.5-0.9-0.6-2.1-0.5l-4.8,0.5c-1.8,0.2-3.8,0.2-4.9-1.2
					c-0.2-0.2-0.1-0.5,0.1-0.6c0.2-0.2,0.5-0.1,0.6,0.1c0.9,1.1,2.5,1.1,4.2,0.9l4.8-0.5c1-0.1,2.3-0.1,2.9,0.9
					c0.1,0.2,0.1,0.5-0.2,0.6C250.7,179.8,250.6,179.8,250.6,179.8z"/>
				<path class="st0" d="M250.6,180.4c-0.4,0-0.7-0.2-0.9-0.5c-0.1-0.1-0.3-0.3-1.5-0.2l-4.8,0.5c-2,0.2-4.1,0.2-5.4-1.4
					c-0.2-0.2-0.3-0.5-0.2-0.7c0-0.3,0.2-0.5,0.4-0.7c0.2-0.2,0.5-0.2,0.7-0.2c0.3,0,0.5,0.2,0.7,0.4c0.7,0.9,2.2,0.8,3.7,0.7
					l4.8-0.5c0.7-0.1,2.6-0.3,3.5,1.2c0.3,0.5,0.1,1.1-0.4,1.4C250.9,180.4,250.7,180.4,250.6,180.4z"/>
			</g>
			<g>
				<path class="st0" d="M169.4,136.8C169.4,136.8,169.4,136.8,169.4,136.8c-0.3,0-0.5-0.3-0.4-0.5c1.2-7.7,3.4-17.3,9.9-23.7
					c0.2-0.2,0.4-0.2,0.6,0c0.2,0.2,0.2,0.4,0,0.6c-6.3,6.3-8.5,15.7-9.7,23.2C169.8,136.7,169.7,136.8,169.4,136.8z"/>
				<path class="st0" d="M169.4,137.4l-0.2,0c-0.3,0-0.5-0.2-0.7-0.4c-0.2-0.2-0.2-0.5-0.2-0.8c1.2-7.7,3.4-17.5,10.1-24.1
					c0.4-0.4,1-0.4,1.4,0c0.4,0.4,0.4,1,0,1.4c-6.2,6.2-8.3,15.5-9.5,22.9C170.4,137.1,170,137.4,169.4,137.4z"/>
			</g>
			<g>
				<path class="st0" d="M144.3,180.5c-0.2,0-0.4-0.1-0.4-0.3c-0.1-0.2,0.1-0.5,0.3-0.5c5.3-1.7,7.2-8.3,7.7-11
					c0.3-1.4,0.5-2.9,0.7-4.3c0.5-3.4,0.9-6.9,2.5-10c1.5-3,3.9-5.4,6.2-7.8c2.4-2.4,4.9-5,6.3-8.1c0.1-0.2,0.4-0.3,0.6-0.2
					c0.2,0.1,0.3,0.4,0.2,0.6c-1.5,3.3-4,5.8-6.4,8.3c-2.3,2.3-4.6,4.7-6,7.5c-1.5,3-2,6.4-2.4,9.7c-0.2,1.4-0.4,2.9-0.7,4.3
					c-0.6,2.9-2.5,9.8-8.3,11.7C144.4,180.5,144.4,180.5,144.3,180.5z"/>
				<path class="st0" d="M144.3,181.1c-0.4,0-0.8-0.3-1-0.7c-0.1-0.3-0.1-0.5,0.1-0.8c0.1-0.2,0.3-0.4,0.6-0.5c5-1.6,6.8-8,7.3-10.6
					c0.3-1.4,0.5-2.9,0.7-4.3c0.5-3.4,1-7,2.6-10.2c1.5-3.1,4-5.5,6.3-7.9c2.4-2.4,4.8-4.9,6.2-7.9c0.2-0.5,0.8-0.7,1.3-0.5
					c0.3,0.1,0.4,0.3,0.5,0.6c0.1,0.3,0.1,0.5,0,0.8c-1.5,3.4-4.1,6-6.6,8.5c-2.2,2.3-4.5,4.6-5.9,7.4c-1.5,2.9-1.9,6.3-2.4,9.5
					c-0.2,1.5-0.4,2.9-0.7,4.4c-0.6,3-2.6,10.2-8.7,12.2C144.5,181.1,144.4,181.1,144.3,181.1z"/>
			</g>
			<g>
				<path class="st0" d="M154.5,186.7c-0.1,0-0.2-0.1-0.3-0.2c-1.1-1.3-0.9-3.2-0.5-5c1-4.5,2.2-9.7,5-13.8c0.6-1,1.4-1.9,2.1-2.8
					c1-1.3,2.1-2.6,2.8-4c0.7-1.3,1.2-2.7,1.6-4c0.4-1.3,0.9-2.6,1.5-3.8c1.3-2.7,3.4-4.9,5.4-7c1.9-2,3.8-4,5.1-6.3
					c0.2-0.3,0.4-0.7,0.5-1.1c0.3-0.6,0.6-1.1,0.9-1.7c0.8-1.2,1.7-2.3,2.7-3.3l0.4-0.4c4.1-4.4,7.7-9.4,10.7-14.7
					c0.1-0.2,0.4-0.3,0.6-0.2c0.2,0.1,0.3,0.4,0.2,0.6c-3,5.4-6.6,10.4-10.8,14.8l-0.4,0.4c-0.9,1-1.9,2-2.6,3.1
					c-0.3,0.5-0.6,1.1-0.9,1.6c-0.2,0.4-0.4,0.7-0.6,1.1c-1.3,2.5-3.3,4.5-5.2,6.5c-2,2.1-4,4.2-5.3,6.8c-0.6,1.2-1,2.4-1.5,3.7
					c-0.5,1.4-1,2.8-1.7,4.1c-0.8,1.5-1.9,2.9-2.9,4.2c-0.7,0.9-1.4,1.8-2,2.7c-2.7,4-3.9,9.1-4.9,13.5c-0.3,1.5-0.6,3.2,0.3,4.2
					c0.2,0.2,0.1,0.5-0.1,0.6C154.7,186.7,154.6,186.7,154.5,186.7z"/>
				<path class="st0" d="M154.5,187.3c-0.3,0-0.6-0.1-0.8-0.4c-1.3-1.5-1-3.5-0.6-5.5c1-4.6,2.2-9.8,5.1-14c0.7-1,1.4-1.9,2.1-2.8
					c1-1.3,2-2.5,2.8-3.9c0.7-1.2,1.1-2.6,1.6-3.9c0.4-1.3,0.9-2.6,1.5-3.9c1.4-2.8,3.5-5,5.5-7.1c1.8-1.9,3.7-3.9,5-6.2
					c0.2-0.3,0.4-0.7,0.5-1c0.3-0.5,0.6-1.2,0.9-1.7c0.8-1.3,1.8-2.3,2.8-3.4l0.4-0.4c4.1-4.4,7.7-9.3,10.6-14.5
					c0.3-0.5,0.9-0.7,1.4-0.4c0.2,0.1,0.4,0.3,0.5,0.6c0.1,0.3,0,0.5-0.1,0.8c-3,5.4-6.7,10.4-10.9,14.9l-0.4,0.4
					c-0.9,1-1.8,2-2.5,3c-0.3,0.5-0.6,1-0.8,1.6c-0.2,0.4-0.4,0.7-0.6,1.1c-1.4,2.5-3.4,4.6-5.3,6.6c-1.9,2-4,4.2-5.2,6.6
					c-0.6,1.1-1,2.4-1.4,3.6c-0.5,1.4-1,2.9-1.7,4.2c-0.8,1.6-1.9,2.9-3,4.2c-0.7,0.9-1.4,1.7-2,2.7c-2.6,3.9-3.8,8.9-4.8,13.3
					c-0.3,1.4-0.6,2.9,0.2,3.7c0.4,0.4,0.3,1.1-0.1,1.4C155,187.2,154.8,187.3,154.5,187.3z"/>
			</g>
			<g>
				<path class="st0" d="M191.7,64.4C191.7,64.4,191.7,64.4,191.7,64.4c-0.3,0-0.5-0.2-0.4-0.5c0.1-0.8-0.1-1.6-0.5-2.4l-0.1-0.1
					c-0.2-0.3-0.4-0.7-0.3-1.1c0-0.2,0.2-0.4,0.5-0.4c0.2,0,0.4,0.2,0.4,0.5c0,0.2,0.1,0.4,0.2,0.6l0.1,0.1c0.4,0.9,0.6,1.8,0.6,2.8
					C192.2,64.2,192,64.4,191.7,64.4z"/>
				<path class="st0" d="M191.7,64.9L191.7,64.9c-0.3,0-0.6-0.1-0.8-0.4c-0.2-0.2-0.3-0.5-0.2-0.7c0.1-0.7-0.1-1.4-0.4-2.1l-0.1-0.1
					c-0.2-0.3-0.4-0.8-0.4-1.4c0-0.3,0.2-0.5,0.4-0.7c0.2-0.2,0.5-0.2,0.8-0.2c0.5,0.1,1,0.6,0.9,1.1c0,0,0.1,0.2,0.2,0.3l0.1,0.1
					c0.5,1,0.7,2.1,0.6,3.1C192.7,64.5,192.3,64.9,191.7,64.9z"/>
			</g>
			<g>
				<path class="st0" d="M195.9,64.4C195.9,64.4,195.9,64.4,195.9,64.4c-0.2,0-0.3-0.1-0.4-0.2c-0.6-1.2-1.2-2.5-1.8-3.7
					c-0.1-0.2,0-0.5,0.2-0.6c0.2-0.1,0.5,0,0.6,0.2c0.5,1,1,2,1.5,3c0.6-1,1.2-2.1,1.7-3.2c0.1-0.2,0.4-0.3,0.6-0.2
					c0.2,0.1,0.3,0.4,0.2,0.6c-0.6,1.4-1.4,2.7-2.2,4C196.2,64.4,196,64.4,195.9,64.4z"/>
				<path class="st0" d="M195.9,65L195.9,65c-0.4,0-0.7-0.2-0.9-0.6c-0.6-1.2-1.2-2.5-1.8-3.7c-0.1-0.2-0.1-0.5,0-0.8
					c0.1-0.3,0.3-0.5,0.5-0.6c0.2-0.1,0.5-0.1,0.8,0c0.3,0.1,0.5,0.3,0.6,0.5c0.3,0.7,0.6,1.4,1,2c0.4-0.7,0.8-1.5,1.2-2.3
					c0.1-0.2,0.3-0.4,0.6-0.5c0.3-0.1,0.5-0.1,0.8,0c0.2,0.1,0.4,0.3,0.5,0.6c0.1,0.3,0.1,0.5,0,0.8c-0.6,1.4-1.4,2.8-2.2,4.1
					C196.6,64.8,196.2,65,195.9,65z"/>
			</g>
			<g>
				<path class="st0" d="M198.8,64.4C198.8,64.4,198.8,64.4,198.8,64.4c-0.3,0-0.4-0.2-0.4-0.5c0.1-1.4,0.5-2.7,1.3-3.8
					c0.1-0.2,0.4-0.2,0.6-0.1c0.2,0.1,0.2,0.4,0.1,0.6c-0.7,1-1.1,2.2-1.1,3.4C199.2,64.2,199,64.4,198.8,64.4z"/>
				<path class="st0" d="M198.8,64.9L198.8,64.9c-0.3,0-0.6-0.1-0.8-0.3c-0.2-0.2-0.3-0.5-0.3-0.7c0.1-1.5,0.6-2.9,1.4-4.1
					c0.2-0.2,0.4-0.4,0.7-0.4c0.3-0.1,0.5,0,0.8,0.2c0.5,0.3,0.6,1,0.3,1.4c-0.6,0.9-1,2-1,3.1C199.8,64.5,199.3,64.9,198.8,64.9z"
					/>
			</g>
			<g>
				<path class="st0" d="M263.4,68c-0.3,0-0.5,0-0.8,0c-0.2,0-0.4-0.2-0.4-0.5c0-0.2,0.2-0.4,0.5-0.4c1.8,0.2,3.4-0.4,5.2-1
					c1.6-0.6,3.2-1.1,4.9-1.1c0,0,0,0,0,0c0.2,0,0.4,0.2,0.4,0.4c0,0.2-0.2,0.4-0.4,0.4c0,0,0,0,0,0c-1.6,0-3.1,0.6-4.6,1.1
					C266.7,67.4,265.1,68,263.4,68z"/>
				<path class="st0" d="M263.4,68.5c-0.3,0-0.5,0-0.8,0c-0.3,0-0.5-0.2-0.7-0.4s-0.2-0.5-0.2-0.7c0.1-0.6,0.6-1,1.1-0.9
					c1.6,0.2,3.3-0.4,5-1c1.6-0.6,3.3-1.2,5.1-1.2c0.3,0,0.6,0.1,0.7,0.3c0.2,0.2,0.3,0.5,0.3,0.7c0,0.5-0.4,0.9-0.8,1l-0.1,0
					l-0.2,0c-1.4,0-2.9,0.5-4.4,1.1C266.9,68,265.2,68.5,263.4,68.5z"/>
			</g>
			<g>
				<path class="st0" d="M208.3,91c0,0-0.1,0-0.1,0c-0.2-0.1-0.4-0.3-0.3-0.5c0.6-2.2,0.9-3.9,1.1-5.3c0.2-1.3,0.4-2.6,0.9-4.1
					c0.8-2.8,2.2-5.2,3.9-6.7c2.2-1.9,3.9-2.3,6.7-2.5c2-0.1,4-0.2,6-0.2c2.2,0,4.5,0,6.7,0.3c0.6,0.1,1.3,0.2,1.9,0.3
					c1,0.2,2.1,0.4,3.1,0.4c1.8,0.1,3.6-0.1,5.3-0.3c2.9-0.4,5.8-1,8.7-1.8l0.2-0.1c1.5-0.4,3-0.8,4.6-0.6c0.5,0.1,0.9,0.2,1.4,0.3
					c0.3,0.1,0.5,0.1,0.8,0.2c1.7,0.4,3.5,0.2,5.2,0.1l9.2-0.7c0.2,0,0.4,0.2,0.5,0.4c0,0.2-0.2,0.4-0.4,0.5l-9.2,0.7
					c-1.8,0.1-3.6,0.3-5.4-0.1c-0.3-0.1-0.5-0.1-0.8-0.2c-0.4-0.1-0.8-0.2-1.3-0.3c-1.4-0.2-2.8,0.2-4.2,0.6l-0.2,0.1
					c-2.9,0.8-5.8,1.4-8.8,1.8c-1.7,0.3-3.6,0.5-5.5,0.4c-1.1-0.1-2.2-0.3-3.2-0.5c-0.6-0.1-1.2-0.2-1.8-0.3
					c-2.2-0.3-4.5-0.3-6.6-0.3c-2,0-4,0.1-6,0.2c-2.6,0.1-4.2,0.5-6.2,2.3c-1.6,1.4-2.9,3.6-3.6,6.3c-0.4,1.5-0.6,2.7-0.8,4
					c-0.2,1.5-0.5,3.1-1.1,5.4C208.7,90.9,208.5,91,208.3,91z"/>
				<path class="st0" d="M208.3,91.6l-0.3,0c-0.5-0.1-0.9-0.7-0.7-1.2c0.6-2.2,0.9-3.8,1.1-5.3c0.2-1.4,0.4-2.6,0.9-4.2
					c0.8-3,2.3-5.4,4.1-7c2.3-2,4.2-2.4,7-2.6c2-0.1,4.1-0.2,6.1-0.2c2.2,0,4.5,0,6.8,0.3c0.6,0.1,1.3,0.2,1.9,0.3
					c1,0.2,2,0.4,3.1,0.4c1.7,0.1,3.5-0.1,5.2-0.3c2.9-0.4,5.8-1,8.6-1.8l0.2-0.1c1.5-0.4,3.1-0.8,4.8-0.6c0.5,0.1,1,0.2,1.4,0.3
					c0.2,0.1,0.5,0.1,0.7,0.2c1.6,0.4,3.3,0.2,5,0.1l9.2-0.7c0.2,0,0.5,0.1,0.7,0.2c0.2,0.2,0.3,0.4,0.4,0.7c0,0.6-0.4,1-0.9,1.1
					l-9.2,0.7c-1.8,0.1-3.7,0.3-5.6-0.2c-0.3-0.1-0.5-0.1-0.8-0.2c-0.4-0.1-0.8-0.2-1.2-0.3c-1.3-0.2-2.6,0.2-4,0.6l-0.2,0.1
					c-2.9,0.8-5.9,1.4-8.8,1.9c-1.8,0.3-3.7,0.5-5.6,0.4c-1.1-0.1-2.2-0.3-3.3-0.5c-0.6-0.1-1.2-0.2-1.8-0.3
					c-2.2-0.3-4.4-0.3-6.5-0.3c-2,0-4,0.1-6,0.2c-2.5,0.1-3.9,0.5-5.8,2.1c-1.5,1.3-2.7,3.4-3.4,6c-0.4,1.4-0.6,2.7-0.8,4
					c-0.3,1.5-0.5,3.2-1.1,5.5C209.2,91.3,208.8,91.6,208.3,91.6z M273.5,70.4L273.5,70.4C273.5,70.4,273.5,70.4,273.5,70.4z"/>
			</g>
			<g>
				<path class="st0" d="M237.2,66.6c-0.3,0-0.5,0-0.8,0c-0.9-0.1-1.7-0.4-2.5-0.6c-0.4-0.1-0.9-0.3-1.4-0.4
					c-1.2-0.3-2.5-0.4-3.8-0.4c-0.9,0-1.7-0.1-2.6-0.2c-1.4-0.2-2.7-0.5-4-0.9c-1.6-0.4-3.2-0.9-4.9-0.9c-1.3-0.1-2.6,0.1-3.9,0.2
					l-12,1.2c-0.2,0-0.5-0.2-0.5-0.4c0-0.2,0.2-0.5,0.4-0.5l12-1.2c1.3-0.1,2.6-0.3,4-0.2c1.7,0.1,3.4,0.5,5.1,1
					c1.3,0.3,2.6,0.7,3.9,0.9c0.8,0.1,1.7,0.2,2.5,0.2c1.3,0.1,2.7,0.1,4,0.5c0.5,0.1,1,0.3,1.4,0.4c0.8,0.3,1.5,0.5,2.3,0.6
					c1.1,0.1,2.3-0.1,3.4-0.3l0.5-0.1c4.7-0.8,9.6-0.8,14.3,0l0.3,0.1c0.9,0.2,1.8,0.3,2.7,0.3c1.4-0.1,2.6-0.8,3.9-1.5
					c0.4-0.2,0.8-0.4,1.2-0.6c4.4-2.2,9.7-2.4,14.3-0.6c0.2,0.1,0.3,0.3,0.2,0.6c-0.1,0.2-0.3,0.3-0.6,0.2
					c-4.3-1.8-9.4-1.6-13.5,0.6c-0.4,0.2-0.8,0.4-1.2,0.6c-1.3,0.7-2.7,1.5-4.2,1.6c-1,0.1-2-0.1-2.9-0.3l-0.3-0.1
					c-4.6-0.8-9.3-0.8-14,0l-0.5,0.1C239.1,66.4,238.1,66.6,237.2,66.6z"/>
				<path class="st0" d="M237.2,67.1c-0.3,0-0.6,0-0.9,0c-0.9-0.1-1.8-0.4-2.6-0.6c-0.4-0.1-0.9-0.3-1.3-0.4
					c-1.2-0.3-2.4-0.4-3.7-0.4c-0.9,0-1.8-0.1-2.7-0.2c-1.4-0.2-2.8-0.5-4.1-0.9c-1.6-0.4-3.2-0.8-4.8-0.9c-1.2-0.1-2.5,0.1-3.8,0.2
					l-12,1.2c-0.6,0.1-1.1-0.4-1.1-0.9c-0.1-0.6,0.4-1.1,0.9-1.1l12-1.2c1.3-0.1,2.7-0.3,4.1-0.2c1.8,0.1,3.5,0.6,5.2,1
					c1.3,0.3,2.6,0.7,3.8,0.8c0.8,0.1,1.6,0.1,2.4,0.2c1.4,0.1,2.8,0.1,4.2,0.5c0.5,0.1,1,0.3,1.5,0.4c0.8,0.2,1.5,0.5,2.2,0.6
					c1,0.1,2.1-0.1,3.2-0.3l0.5-0.1c4.8-0.8,9.7-0.8,14.5,0l0.3,0.1c0.9,0.2,1.7,0.3,2.5,0.2c1.2-0.1,2.4-0.8,3.6-1.4
					c0.4-0.2,0.8-0.5,1.2-0.7c4.5-2.3,10-2.5,14.8-0.6c0.5,0.2,0.8,0.8,0.6,1.3c-0.2,0.5-0.8,0.8-1.3,0.6c-4.2-1.7-9.1-1.5-13.1,0.5
					c-0.4,0.2-0.7,0.4-1.1,0.6c-1.4,0.8-2.8,1.6-4.5,1.7c-1.1,0.1-2.1-0.1-3.1-0.3l-0.3-0.1c-4.6-0.8-9.2-0.8-13.8,0l-0.5,0.1
					C239.2,67,238.2,67.1,237.2,67.1z"/>
			</g>
			<g>
				<path class="st0" d="M182.9,90.3c-0.2,0-0.4-0.1-0.4-0.4c-0.7-4-1.9-8-3.4-11.8c-0.5-1.4-1.2-2.9-2.4-3.7
					c-1.4-0.9-3.2-0.9-5-0.8c-0.5,0-1,0-1.5,0c-1.5,0-2.9-0.2-4.3-0.4c-0.5-0.1-1.1-0.2-1.6-0.2c-3-0.4-6.1-0.4-9.2-0.4
					c-4.1,0-8.4-0.1-12.4-1c-0.5-0.1-1-0.2-1.5-0.4c-1.4-0.3-2.8-0.7-4.2-0.7c-1,0-2,0.1-3,0.2c-1.3,0.2-2.7,0.3-4.1,0.1
					c-0.5-0.1-1.1-0.2-1.6-0.3c-0.7-0.2-1.3-0.3-1.9-0.4c-0.8-0.1-1.6,0-2.5,0.2c-0.5,0.1-1,0.1-1.5,0.2c-1.8,0.1-3.2-0.3-4.1-1.2
					c-0.2-0.2-0.2-0.4,0-0.6c0.2-0.2,0.4-0.2,0.6,0c0.9,0.9,2.4,1,3.5,1c0.5,0,0.9-0.1,1.4-0.2c0.9-0.1,1.8-0.2,2.7-0.2
					c0.7,0.1,1.4,0.2,2,0.4c0.5,0.1,1,0.2,1.5,0.3c1.3,0.2,2.5,0,3.9-0.1c1-0.1,2.1-0.2,3.2-0.2c1.5,0.1,2.9,0.4,4.3,0.8
					c0.5,0.1,1,0.2,1.5,0.4c4,0.9,8.2,0.9,12.3,1c3,0,6.2,0.1,9.3,0.5c0.5,0.1,1.1,0.1,1.6,0.2c1.4,0.2,2.8,0.4,4.2,0.4
					c0.5,0,1,0,1.5,0c1.9-0.1,3.9-0.1,5.6,1c1.4,1,2.2,2.6,2.8,4.1c1.5,3.9,2.7,7.9,3.4,12C183.4,90.1,183.2,90.3,182.9,90.3
					C183,90.3,182.9,90.3,182.9,90.3z"/>
				<path class="st0" d="M182.9,90.9c-0.5,0-0.9-0.4-1-0.8c-0.7-4-1.8-7.9-3.3-11.7c-0.5-1.3-1.1-2.7-2.2-3.4
					c-1.2-0.8-2.9-0.8-4.7-0.7c-0.5,0-1,0-1.6,0c-1.5,0-3-0.2-4.4-0.4c-0.5-0.1-1.1-0.2-1.6-0.2c-3-0.4-6.1-0.4-9.1-0.4
					c-4.1,0-8.4-0.1-12.6-1c-0.5-0.1-1-0.2-1.5-0.4c-1.3-0.3-2.7-0.7-4-0.7c-1,0-2,0.1-3,0.2c-1.4,0.2-2.8,0.3-4.3,0.1
					c-0.6-0.1-1.1-0.2-1.7-0.3c-0.6-0.2-1.2-0.3-1.8-0.3c-0.8-0.1-1.6,0-2.4,0.1c-0.5,0.1-1,0.1-1.5,0.2c-2,0.1-3.6-0.4-4.6-1.4
					c-0.4-0.4-0.4-1,0-1.4c0.2-0.2,0.4-0.3,0.7-0.3c0,0,0,0,0,0c0.3,0,0.5,0.1,0.7,0.3c0.7,0.8,2,0.8,3,0.8c0.5,0,0.9-0.1,1.4-0.1
					c0.9-0.1,1.8-0.2,2.8-0.2c0.7,0.1,1.5,0.2,2.1,0.4c0.5,0.1,1,0.2,1.5,0.3c1.2,0.2,2.4,0,3.7-0.1c1.1-0.1,2.2-0.2,3.3-0.2
					c1.5,0.1,3,0.4,4.5,0.8c0.5,0.1,1,0.2,1.4,0.4c3.9,0.9,8.1,0.9,12.1,1c3.1,0,6.2,0.1,9.3,0.5c0.5,0.1,1.1,0.1,1.6,0.2
					c1.4,0.2,2.7,0.4,4.1,0.4c0.4,0,0.9,0,1.3,0l0.1,0c2-0.1,4.1-0.2,5.9,1.1c1.6,1.1,2.4,2.8,3,4.4c1.5,3.9,2.7,7.9,3.4,12.1
					c0,0.3,0,0.5-0.2,0.8c-0.2,0.2-0.4,0.4-0.7,0.4L182.9,90.9z M171.5,72.8l0,0.3c0,0,0,0,0.1,0L171.5,72.8z"/>
			</g>
			<g>
				<path class="st0" d="M195.4,58.6c-0.5,0-1-0.1-1.5-0.3c-2.9-1-4.2-4.7-4.2-4.9c-3.6-10.1,2.7-12.8,2.8-12.9
					c0.2-0.1,0.5,0,0.6,0.2c0.1,0.2,0,0.5-0.2,0.6c-0.2,0.1-5.6,2.5-2.3,11.8c0,0,1.3,3.5,3.7,4.4c1.1,0.4,2.4,0.2,3.7-0.6
					c0.5-0.4,6-5.5,2.5-13.7c0-0.1-1.2-2.8-6.7-2.3c-0.2,0-0.5-0.2-0.5-0.4c0-0.2,0.2-0.5,0.4-0.5c6.2-0.5,7.5,2.7,7.6,2.8
					c3.8,9-2.7,14.6-2.8,14.7c0,0,0,0-0.1,0C197.3,58.3,196.3,58.6,195.4,58.6z"/>
				<path class="st0" d="M195.4,59.2c-0.6,0-1.1-0.1-1.7-0.3c-3-1.1-4.5-4.8-4.6-5.3c-3.8-10.6,3-13.6,3.1-13.6
					c0.2-0.1,0.4-0.1,0.6-0.1c0.2-0.2,0.4-0.4,0.7-0.4c6.5-0.5,8,2.8,8.2,3.2c4,9.3-2.9,15.3-3,15.4l-0.1,0.1
					C197.5,58.9,196.4,59.2,195.4,59.2z M193.4,41.6c-0.1,0.2-0.3,0.3-0.4,0.4c-0.2,0.1-5,2.3-1.9,11c0,0,1.2,3.2,3.4,4
					c0.9,0.3,2,0.2,3.2-0.5c0.5-0.5,5.6-5.2,2.3-12.9c0-0.1-1.1-2.4-6.1-1.9C193.6,41.6,193.5,41.6,193.4,41.6z M192.5,40.9
					C192.5,40.9,192.5,40.9,192.5,40.9C192.5,40.9,192.5,40.9,192.5,40.9z M193.6,40.5C193.6,40.5,193.6,40.5,193.6,40.5
					C193.6,40.5,193.6,40.5,193.6,40.5z"/>
			</g>
		</g>
	</g>
	<g>
		<path class="st0" d="M64.8,318.1c0.4,0.1,1,0.5,1,0.9c0,0.4-0.3,0.8-1.1,1.5c-1.8,8.6-5.1,17.9-9.9,25.9L51,345
			c5.1-11.9,5.4-22.7,5.5-29L64.8,318.1z M87.2,276.2c0.3,0.2,0.5,0.5,0.5,0.9c0,0.6-0.3,0.7-1.9,1.8c-5.5,8.3-11.7,15.9-18.2,23.2
			c0.3,0,12.2-1.3,13.6-1.4c-1-2.6-1.7-4.4-2.6-6.1l2.9-2.1c4.3,5,9.3,12.9,12,18.1l-7.9,4.7c-1.5-5.2-2.1-7.4-2.9-9.8l-6.7,1.5
			v43.5h-8.5v-41.8c-1.8,0.3-9.9,1.7-11.5,2.1c-0.6,1.3-1.1,2.1-1.6,2.1c-0.5,0-0.9-0.7-1-1.4l-1.9-8.3c2.5,0.2,6.2-0.1,9.5-0.4
			c3.2-4.5,4.4-6.5,5.5-8.4c-1.1-2.2-5.9-11.7-13.5-19.2l2.3-4c1.3,1,2.5,1.8,6.1,5c6-10.3,7.1-15.6,7.8-19.1l8.1,4.6
			c0.3,0.1,0.6,0.5,0.6,0.8c0,0.8-0.3,1.2-1.6,2c-3.6,6.2-9.6,13.8-11,15.4c2,2,4.2,4.4,5.9,6.6c5.5-9.9,6.4-12.5,7.3-15.2
			L87.2,276.2z M82.3,315.7c6,9.6,9.2,19.5,10,22.4l-8.9,4.7c-0.8-9-1.9-16-4.5-25.1L82.3,315.7z M130.2,298.2v4.5H121v16.4h9.3v4.5
			H121v17.9h12v4.5h-28.8v4.5h-8.7V286c-3.6,6-4.9,7.7-6.5,9.6l-4.1-2.7c5.1-7.4,11.2-21.4,13.3-35.3l9.3,4.1c0.3,0.2,0.8,0.6,0.8,1
			c0,1.4-0.8,1.6-1.7,2c-0.9,2.2-2.1,5-6.3,12.8h11c2.6-5.8,5.2-12.9,6.2-18.7l9,3.9c0.4,0.2,0.7,0.5,0.7,1.1c0,1-0.9,1.4-2,1.9
			c-2.9,5.3-4.8,8.2-7.4,11.8h14.4v4.5H121v16.2H130.2z M112.6,298.2V282h-8.4v16.2H112.6z M112.6,319.1v-16.4h-8.4v16.4H112.6z
			 M112.6,341.5v-17.9h-8.4v17.9H112.6z"/>
		<path class="st0" d="M156.9,279.6v-14.9c0-1.7-0.4-4.9-0.6-6.3l8.6,0.4c0.4,0,1.2,0.2,1.2,1.1c0,0.4-0.2,0.8-0.7,2.1v17.6h6.9v4.5
			h-6.9V308c3.2-1.7,3.6-1.9,6.6-3.6l0.3,4.8c-1.1,0.9-3.2,2.4-6.9,4.7v36.8h-8.5V319c-6.7,4.1-7.9,4.8-12.9,7.6
			c-0.2,1-0.3,2.1-1.1,2.1c-0.3,0-0.6-0.2-0.8-0.7l-3.4-8.5c6-1.4,11.9-4.1,18.2-7.3v-28.2h-6.7c-3.5,12.6-6.6,17.8-8,19.9l-3.6-1.9
			c4.3-9.2,6.4-26.2,6.4-31.7c0-2-0.3-4.1-0.5-5.7l8.8,1.8c0.8,0.2,1,0.6,1,0.8c0,0.6-0.4,1-1,1.8c-0.6,4-1.3,7.8-2,10.5H156.9z
			 M219.2,312v4.5h-10v25.4c0,7.5-2.6,8.2-8.6,8.2h-10.8l-1.6-5.4c3.8,0.9,6.7,1.1,8.8,1.1c3.2,0,3.3-1.3,3.3-4.8v-24.5h-27.9V312
			h27.9v-4.6c0-3.3-0.1-4.5-0.8-6.7l9.3,0.5c0.3,0,1,0.1,1,0.8c0,0.7-0.5,1.8-0.7,2.2v7.8H219.2z M217.3,273.4v4.5h-16.4v15.4h18.3
			v4.4h-46.5v-4.4h19.4v-15.4h-15.6v-4.5h15.6V265c0-0.5,0-3.9-0.6-6.7l9.1,0.4c0.7,0,1,0.3,1,0.9c0,0.5-0.3,1.1-0.7,2.1v11.7H217.3
			z M178.7,319c4.8,4.8,7.9,9.3,11.2,14.3l-8,6.4c-2-7.4-3.4-11.1-6.7-17.6L178.7,319z"/>
		<path class="st0" d="M297.2,277.5v28.3H291c6.6,3.9,11,7.2,15.4,11.5l-7.1,6.9c-2.9-5-6.1-9.6-11.9-15.5l2.9-2.9h-18.5
			c4.8,2.8,8.4,6.1,11,8.7l-6.7,5.6h18.4v30.3h-8.9v-2.5H247v2.5h-8.8V320h37.6c-3.5-6.1-5.6-9.1-7.9-11.7l3.1-2.5h-16.7
			c5,3.4,7.6,6.5,9.5,8.7l-8,5.1c-1.1-3.4-2.4-6.4-5.9-11.4l2.6-2.3h-12.1l2.6,1.9c-3.9,7-6.7,10.9-10.6,15.3l-7.4-6.9
			c5.5-2.8,9.3-5.5,13.3-10.3h-2.2v-22.6c-2.9,1.8-5.4,3-7.7,4.1l-2.8-3.5c20.3-11.1,27.5-24.7,28.3-27.3l9.2,3c0.3,0.1,1,0.4,1,1.1
			c0,0.7-0.3,0.9-2.2,2.1c-0.7,0.4-0.9,0.6-3.2,3h29.3c-4.5,5.6-9,9.3-12.9,11.8H297.2z M267,277.5c2.9-3.3,4.5-5.8,5.5-7.5h-18.4
			c-2.9,2.7-6,5.2-9.2,7.5H267z M245.3,289.5H262V282h-16.7V289.5z M262,301.4v-7.6h-16.7v7.6H262z M247,331.5h38.7v-7.1H247V331.5z
			 M285.7,336H247v7.5h38.7V336z M271.1,282v7.5h17V282H271.1z M288,301.4v-7.6h-17v7.6H288z"/>
		<path class="st0" d="M388.7,290.6c0.3,0.2,1,0.7,1,1.4c0,0.5-0.3,0.9-1.2,1.6c-1.9,7.5-5.7,21.1-13.1,32.4c0.3,1,4.2,12,7,12
			c2.4,0,3.8-7.1,4.8-12.4c1.4,1.9,2.2,2.8,6.4,5.4c-1,5.1-3.5,18.8-11.2,18.8c-3.1,0-8.4-3.7-13.2-15.6c-6.7,7-14.4,12.7-22.7,16.6
			l-2.5-3.8c13.1-6.8,21.2-18.2,22.7-20.3c-5.1-17.4-5.4-30-6.1-49.5h-34.2v8.8h30.7v4.5h-15.7l3.5,0.4c0.7,0.1,1,0.6,1,1
			c0,1-0.9,1.6-1.4,2c-0.6,2.6-1.6,5.5-2.3,8.1h14.2c-0.5,11-3.1,17.7-5,21.8c3.5,2,4.5,2.9,5.8,4l-4.7,7.8
			c-1.6-1.6-2.9-2.8-5.4-4.8c-3.4,4.5-8.3,9.5-18.1,15.1l-3.2-3.6c3.2-2.1,10.6-6.8,15.9-15.5c-3.4-2.2-5.8-3.8-13.5-7.2
			c1-2.1,1.6-3.6,4.8-13.1h-6.7c-0.6,11.1-1.5,27.8-13,44l-3.5-2.2c2.7-5.5,7.8-16,7.8-45.6v-29.8h42.8c-0.3-10.3-0.4-11.4-0.7-14
			l9.3,0.4c0.3,0,0.9,0.4,0.9,1.1c0,0.6-0.3,1.2-0.7,2c-0.3,2.6-0.4,5.3-0.4,10.5h13c-3.5-5.3-6.3-8-8.3-9.8l2.6-3.7
			c3.9,1.9,7.4,4,11.5,7.4l-4.6,6.2h8.9v4.5h-23.1c0,10.9,1,29.1,3.6,39.4c4.5-9.5,7.2-19.8,7.9-30.5L388.7,290.6z M334.6,301.8
			c0.6-2.1,2.3-7.9,3-11.4h-11.1v11.4H334.6z M341,306.3c-0.9,2.4-3,9.2-3.7,10.7c1.9,0.7,3.9,1.4,7.8,3.2c2.2-5.8,2.8-10.7,3-13.9
			H341z"/>
	</g>
	<g>
		<path class="st0" d="M12.8,381.4c1.3-3,4.3-10.8,4.8-12.5c0.1-0.3,0.2-0.7,0.2-0.9c0-0.2-0.1-0.4-0.3-0.5
			c-0.3-0.1-0.6-0.1-0.9-0.1c-0.1,0-0.2,0-0.2-0.1c0-0.1,0.1-0.2,0.5-0.2c0.9,0,1.9,0.1,2.2,0.1c0.1,0,1.1-0.1,1.8-0.1
			c0.2,0,0.4,0,0.4,0.2c0,0.1-0.1,0.2-0.3,0.2c-0.2,0-0.7,0-1.1,0.3c-0.3,0.2-0.6,0.6-1.2,2.1c-0.2,0.6-1.4,3.3-2.5,6.1
			c-1.4,3.3-2.4,5.7-2.9,6.8c-0.6,1.3-0.7,1.7-0.9,1.7c-0.3,0-0.4-0.3-0.8-1.4L6,369.3c-0.5-1.3-0.8-1.5-1.6-1.7
			c-0.3-0.1-0.7-0.1-0.9-0.1c-0.1,0-0.2-0.1-0.2-0.2c0-0.1,0.2-0.2,0.6-0.2c1.1,0,2.4,0.1,2.6,0.1c0.2,0,1.2-0.1,2.1-0.1
			c0.4,0,0.6,0,0.6,0.2c0,0.1-0.1,0.2-0.2,0.2c-0.2,0-0.7,0-0.9,0.1c-0.2,0.1-0.3,0.3-0.3,0.4c0,0.3,0.3,1,0.6,1.9L12.8,381.4z"/>
		<path class="st0" d="M59.5,378.6c0,1.8,0,3.3,0.1,4.1c0.1,0.6,0.1,0.9,0.7,1c0.3,0,0.7,0.1,0.9,0.1c0.1,0,0.2,0.1,0.2,0.2
			c0,0.1-0.1,0.2-0.3,0.2c-1.1,0-2.4-0.1-2.5-0.1c-0.1,0-1.3,0.1-2,0.1c-0.2,0-0.3,0-0.3-0.2c0-0.1,0-0.2,0.2-0.2
			c0.2,0,0.4,0,0.6-0.1c0.4-0.1,0.4-0.4,0.5-1c0.1-0.8,0.1-2.3,0.1-4.1v-3.4c0-3,0-3.5,0-4.1c0-0.7-0.2-0.9-0.6-1
			c-0.2,0-0.5-0.1-0.6-0.1c-0.1,0-0.2-0.1-0.2-0.2c0-0.1,0.1-0.2,0.3-0.2c0.7,0,1.9,0,2,0c0.1,0,1.4,0,2,0c0.2,0,0.3,0,0.3,0.2
			c0,0.1-0.1,0.2-0.2,0.2c-0.1,0-0.3,0-0.5,0c-0.5,0.1-0.7,0.4-0.7,1.1c0,0.6,0,1.1,0,4.1V378.6z"/>
		<path class="st0" d="M104.4,378.6c0,1.8,0,3.3,0.1,4.1c0.1,0.6,0.2,0.9,0.8,1c0.3,0,0.7,0.1,0.9,0.1c0.1,0,0.2,0.1,0.2,0.2
			c0,0.1-0.1,0.2-0.3,0.2c-1.1,0-2.3-0.1-2.4-0.1c-0.1,0-1.5,0.1-2,0.1c-0.2,0-0.3,0-0.3-0.2c0-0.1,0-0.1,0.2-0.1
			c0.2,0,0.4,0,0.6-0.1c0.4-0.1,0.5-0.5,0.6-1c0.1-0.8,0.1-2.3,0.1-4.1v-8l-2.9,0c-1.2,0-1.7,0.2-2,0.6c-0.2,0.3-0.2,0.5-0.3,0.6
			c0,0.2-0.1,0.2-0.2,0.2c0,0-0.1,0-0.1-0.2c0-0.2,0.4-1.9,0.4-2.1c0-0.1,0.1-0.4,0.2-0.4c0.1,0,0.3,0.2,0.9,0.2
			c0.6,0.1,1.3,0.1,1.5,0.1h7.5c0.7,0,1.1,0,1.4-0.1c0.3,0,0.5-0.1,0.6-0.1c0.1,0,0.1,0.1,0.1,0.2c0,0.6-0.1,2-0.1,2.2
			c0,0.2-0.1,0.2-0.2,0.2c-0.1,0-0.1-0.1-0.2-0.3l0-0.2c-0.1-0.6-0.5-1-2.4-1.1l-2.5,0V378.6z"/>
		<path class="st0" d="M147.4,375.2c0-3,0-3.5,0-4.1c0-0.7-0.2-1-0.8-1.1c-0.2,0-0.5,0-0.7,0c-0.1,0-0.2-0.1-0.2-0.2
			c0-0.1,0.1-0.2,0.3-0.2c0.9,0,2.2,0,2.3,0c0.2,0,1.9,0,2.5,0c1.3,0,2.6,0.1,3.7,0.8c0.5,0.4,1.4,1.3,1.4,2.6
			c0,1.4-0.6,2.8-2.4,4.4c1.6,2,3,3.7,4.1,4.9c1.1,1.1,1.7,1.3,2.2,1.3c0.4,0.1,0.6,0.1,0.7,0.1c0.1,0,0.2,0.1,0.2,0.2
			c0,0.1-0.1,0.2-0.5,0.2H159c-1.1,0-1.6-0.1-2.1-0.4c-0.9-0.4-1.6-1.4-2.7-2.8c-0.8-1-1.7-2.3-2.1-2.8c-0.1-0.1-0.1-0.1-0.3-0.1
			l-2.5,0c-0.1,0-0.1,0-0.1,0.2v0.4c0,1.8,0,3.3,0.1,4.1c0.1,0.6,0.2,0.9,0.8,1c0.3,0,0.7,0.1,0.9,0.1c0.1,0,0.2,0.1,0.2,0.2
			c0,0.1-0.1,0.2-0.3,0.2c-1.1,0-2.3-0.1-2.4-0.1c0,0-1.3,0.1-2,0.1c-0.2,0-0.3,0-0.3-0.2c0-0.1,0-0.2,0.2-0.2c0.2,0,0.4,0,0.6-0.1
			c0.4-0.1,0.4-0.4,0.5-1c0.1-0.8,0.1-2.3,0.1-4.1V375.2z M149.1,376.8c0,0.1,0,0.2,0.1,0.2c0.3,0.2,1.3,0.3,2.2,0.3
			c0.5,0,1,0,1.5-0.3c0.7-0.4,1.2-1.5,1.2-2.9c0-2.4-1.3-3.7-3.4-3.7c-0.6,0-1.2,0.1-1.4,0.1c-0.1,0-0.2,0.1-0.2,0.2V376.8z"/>
		<path class="st0" d="M195.2,375.2c0-3,0-3.5,0-4.1c0-0.6-0.2-1-0.8-1.1c-0.2,0-0.5,0-0.7,0c-0.1,0-0.2-0.1-0.2-0.2
			c0-0.1,0.1-0.2,0.3-0.2c0.9,0,2.1,0,2.3,0c0.2,0,1.4,0,2,0c0.2,0,0.3,0,0.3,0.2c0,0.1-0.1,0.2-0.2,0.2c-0.1,0-0.2,0-0.5,0
			c-0.5,0.1-0.6,0.4-0.7,1.1c0,0.6,0,1.1,0,4.1v2.7c0,2.8,0.6,3.9,1.5,4.7c1,0.9,1.8,1,2.9,1c1.2,0,2.4-0.5,3.1-1.3
			c0.9-1.1,1.1-2.7,1.1-4.6v-2.4c0-3,0-3.5,0-4.1c0-0.6-0.1-1-0.8-1.1c-0.2,0-0.5,0-0.7,0c-0.1,0-0.2-0.1-0.2-0.2
			c0-0.1,0.1-0.2,0.3-0.2c0.9,0,2,0,2.1,0c0.1,0,1.1,0,1.7,0c0.2,0,0.3,0,0.3,0.2c0,0.1-0.1,0.2-0.2,0.2c-0.1,0-0.2,0-0.5,0
			c-0.5,0.1-0.7,0.4-0.7,1.1c0,0.6,0,1.1,0,4.1v2c0,2.1-0.3,4.4-1.8,5.7c-1.4,1.2-3,1.4-4.1,1.4c-0.7,0-2.7,0-4.1-1.3
			c-1-0.9-1.7-2.2-1.7-5V375.2z"/>
		<path class="st0" d="M250.6,381.6c1.1-2.6,3.7-9.1,4.2-10.4c0.1-0.3,0.2-0.6,0.2-0.7c0-0.2-0.1-0.3-0.3-0.4
			c-0.2-0.1-0.4-0.1-0.7-0.1c-0.1,0-0.2-0.1-0.2-0.2c0-0.1,0.1-0.2,0.4-0.2c0.8,0,1.7,0,1.9,0c0.1,0,1,0,1.5,0c0.2,0,0.3,0,0.3,0.1
			c0,0.1-0.1,0.2-0.2,0.2c-0.1,0-0.6,0-0.9,0.2c-0.3,0.2-0.6,0.4-1.1,1.8c-0.2,0.5-1.2,2.8-2.2,5.2c-1.2,2.8-2.1,4.8-2.5,5.8
			c-0.5,1.1-0.7,1.4-0.9,1.4c-0.2,0-0.4-0.2-0.7-1.2l-4.8-11.7c-0.4-1.1-0.7-1.3-1.4-1.4c-0.3-0.1-0.7-0.1-0.8-0.1
			c-0.1,0-0.2-0.1-0.2-0.2c0-0.1,0.2-0.1,0.5-0.1c0.9,0,2.1,0,2.3,0c0.2,0,1.1,0,1.8,0c0.4,0,0.5,0,0.5,0.1c0,0.1-0.1,0.2-0.2,0.2
			c-0.2,0-0.5,0-0.7,0.1c-0.2,0.1-0.2,0.2-0.2,0.3c0,0.2,0.2,0.8,0.5,1.6L250.6,381.6z"/>
		<path class="st0" d="M296.4,378.6c0,1.8,0,3.3,0.1,4.1c0.1,0.6,0.1,0.9,0.7,1c0.3,0,0.7,0.1,0.9,0.1c0.1,0,0.2,0.1,0.2,0.2
			c0,0.1-0.1,0.2-0.3,0.2c-1.1,0-2.4-0.1-2.5-0.1c-0.1,0-1.3,0.1-2,0.1c-0.2,0-0.3,0-0.3-0.2c0-0.1,0-0.2,0.2-0.2
			c0.2,0,0.4,0,0.6-0.1c0.4-0.1,0.4-0.4,0.5-1c0.1-0.8,0.1-2.3,0.1-4.1v-3.4c0-3,0-3.5,0-4.1c0-0.7-0.2-0.9-0.6-1
			c-0.2,0-0.5-0.1-0.6-0.1c-0.1,0-0.2-0.1-0.2-0.2c0-0.1,0.1-0.2,0.3-0.2c0.7,0,1.9,0,2,0c0.1,0,1.4,0,2,0c0.2,0,0.3,0,0.3,0.2
			c0,0.1-0.1,0.2-0.2,0.2c-0.1,0-0.3,0-0.5,0c-0.5,0.1-0.7,0.4-0.7,1.1c0,0.6,0,1.1,0,4.1V378.6z"/>
		<path class="st0" d="M336,375.2c0-3,0-3.5,0-4.1c0-0.6-0.2-1-0.8-1.1c-0.2,0-0.5,0-0.7,0c-0.1,0-0.2-0.1-0.2-0.2
			c0-0.1,0.1-0.2,0.3-0.2c0.9,0,2.1,0,2.3,0c0.2,0,1.4,0,2,0c0.2,0,0.3,0,0.3,0.2c0,0.1-0.1,0.2-0.2,0.2c-0.1,0-0.2,0-0.5,0
			c-0.5,0.1-0.6,0.4-0.7,1.1c0,0.6,0,1.1,0,4.1v2.7c0,2.8,0.6,3.9,1.5,4.7c1,0.9,1.8,1,2.9,1c1.2,0,2.4-0.5,3.1-1.3
			c0.9-1.1,1.1-2.7,1.1-4.6v-2.4c0-3,0-3.5,0-4.1c0-0.6-0.1-1-0.8-1.1c-0.2,0-0.5,0-0.7,0c-0.1,0-0.2-0.1-0.2-0.2
			c0-0.1,0.1-0.2,0.3-0.2c0.9,0,2,0,2.1,0c0.1,0,1.1,0,1.7,0c0.2,0,0.3,0,0.3,0.2c0,0.1-0.1,0.2-0.2,0.2c-0.1,0-0.2,0-0.5,0
			c-0.5,0.1-0.7,0.4-0.7,1.1c0,0.6,0,1.1,0,4.1v2c0,2.1-0.3,4.4-1.8,5.7c-1.4,1.2-3,1.4-4.1,1.4c-0.7,0-2.7,0-4.1-1.3
			c-1-0.9-1.7-2.2-1.7-5V375.2z"/>
		<path class="st0" d="M385.4,383.9c-0.3-0.1-0.3-0.2-0.3-0.7c0-0.9,0.1-1.7,0.1-2c0-0.2,0-0.3,0.2-0.3c0.1,0,0.2,0.1,0.2,0.2
			c0,0.2,0,0.4,0.1,0.7c0.3,1.4,1.8,1.9,3.1,1.9c2,0,3-1.1,3-2.5c0-1.4-0.7-2-2.5-3.3l-0.9-0.7c-2.1-1.6-2.8-2.8-2.8-4.1
			c0-2.2,1.8-3.6,4.4-3.6c0.8,0,1.6,0.1,2,0.2c0.4,0.1,0.5,0.1,0.7,0.1c0.2,0,0.2,0,0.2,0.1c0,0.1-0.1,0.7-0.1,2
			c0,0.3,0,0.4-0.2,0.4c-0.1,0-0.2-0.1-0.2-0.2c0-0.2-0.2-0.7-0.3-0.9c-0.1-0.2-0.8-0.9-2.6-0.9c-1.4,0-2.6,0.7-2.6,2.1
			c0,1.2,0.6,1.9,2.6,3.2l0.6,0.4c2.4,1.6,3.2,3,3.2,4.6c0,1.1-0.4,2.3-1.8,3.3c-0.8,0.5-2.1,0.7-3.1,0.7
			C387.4,384.4,386.2,384.2,385.4,383.9z"/>
	</g>
	<g>
		<path class="st0" d="M38.5,284.8v16.8h-6.1v-2.1H16.1v2.1H9.9v-12.7c-3.3,3.3-6.3,5.1-8,6.1L0,292.8c1.9-1.2,6.8-4.6,10.7-11.7
			H4.3v-2.5h7.6c1.3-3.2,1.8-5.2,2-6.2H0.8v-2.5h13.5c0.1-0.9,0.4-2.7,0.5-5.9H4.3v-2.4h32.3v8.3h5.5v2.5h-5.5v8.7H16.2
			c-1.2,2-2,2.9-2.5,3.7H38.5z M32.4,297.1v-9.8H16.1v9.8H32.4z M19.9,272.4c-1,3.6-1.9,5.3-2.3,6.2h12.9v-6.2H19.9z M21.3,264.1
			c0,1.2-0.1,2.9-0.8,5.9h9.9v-5.9H21.3z"/>
		<path class="st0" d="M39.7,324.5v13H9.4v5.7c0,2.8,0.2,3.5,4,3.5h17.5c3.4,0,5.4,0,6-7c1.1,0.4,2.3,0.8,3.2,1
			c0.5,0.1,1.6,0.4,2.2,0.5c-1.7,7.9-4.3,7.9-9.6,7.9H9.9c-6.3,0-6.7-2.4-6.7-6.3v-18.3H39.7z M37.2,310.4v11.3H5.7v-11.3H37.2z
			 M18.2,327H9.4v8.1h8.9V327z M11.9,312.9v6.3h19.1v-6.3H11.9z M24.5,335h9V327h-9V335z"/>
	</g>
	<g>
		<g>
			<path class="st0" d="M154.2,213.2c0,0.1-1.5,2.5-4.5,7.2c-2.4,3.7-4.1,6.5-5,8.2c-0.9,1.8-1.6,3.6-2.1,5.4
				c-0.5-0.1-0.9-0.2-1.2-0.2c-0.4,0-1.1,0.1-2.1,0.2c0.9-2.6,3.6-6.7,8.2-12.3c2.8-3.4,4.7-5.8,5.6-7.3c-3.4,4.1-6.9,7.4-10.4,10.1
				c-2.2,1.7-3.6,2.6-4,2.6c-0.1,0-0.2,0-0.2-0.1c0-0.1,0.1-0.2,0.2-0.2c3.4-1.5,8.2-5.8,14.6-12.9l0.3-0.3
				C153.9,213.3,154,213.2,154.2,213.2C154.1,213.2,154.2,213.2,154.2,213.2z"/>
			<path class="st0" d="M138.3,234.8l0.3-0.9c0.9-2.5,3.3-6.2,7.4-11.3c-1,0.9-2,1.7-3,2.4c-3.1,2.4-3.9,2.7-4.4,2.7
				c-0.5,0-0.7-0.4-0.7-0.7c0-0.2,0.1-0.6,0.6-0.8c3.3-1.5,8.1-5.8,14.4-12.8l0.3-0.3c0.4-0.4,0.6-0.6,0.9-0.6h0.6l0.1,0.7
				c0,0.2,0,0.4-4.6,7.5c-2.4,3.7-4.1,6.5-5,8.2c-0.9,1.7-1.6,3.5-2,5.2l-0.1,0.5l-0.6-0.1c-0.4-0.1-0.8-0.1-1.1-0.1
				c-0.4,0-1,0.1-2.1,0.2L138.3,234.8z M147.6,222.6c-3.8,4.7-6.3,8.3-7.5,10.8c1-0.1,1.4-0.1,2,0c0.5-1.7,1.1-3.3,2-4.9
				C144.8,227,146,225.1,147.6,222.6z"/>
		</g>
		<g>
			<path class="st0" d="M155.7,231.5c0,0.6-0.3,1.2-0.8,1.7c-0.5,0.5-1.1,0.8-1.7,0.8c-0.6,0-0.9-0.3-0.9-0.9c0-0.5,0.3-1.1,0.9-1.6
				c0.6-0.5,1.1-0.8,1.7-0.8C155.5,230.7,155.7,231,155.7,231.5z M159.3,225.7c0,0.6-0.3,1.2-0.8,1.7c-0.5,0.5-1.1,0.8-1.7,0.8
				c-0.6,0-0.9-0.3-0.9-0.9c0-0.5,0.3-1.1,0.8-1.6c0.6-0.5,1.1-0.8,1.7-0.8C159,224.9,159.3,225.2,159.3,225.7z"/>
			<path class="st0" d="M153.2,234.6c-0.9,0-1.4-0.6-1.4-1.5c0-0.7,0.3-1.4,1-2.1c0.7-0.6,1.4-1,2.1-1c0.8,0,1.4,0.5,1.4,1.4
				c0,0.8-0.3,1.5-1,2.1C154.7,234.3,154,234.6,153.2,234.6z M154.9,231.3c-0.4,0-0.9,0.2-1.3,0.7c-0.4,0.4-0.7,0.8-0.7,1.2
				c0,0.3,0.1,0.3,0.3,0.3c0.4,0,0.8-0.2,1.3-0.6c0.4-0.4,0.6-0.9,0.6-1.3c0-0.2,0-0.2,0-0.2l0,0C155.1,231.3,155,231.3,154.9,231.3
				z M156.8,228.8c-0.9,0-1.4-0.6-1.4-1.5c0-0.7,0.3-1.4,1-2c0.7-0.6,1.4-1,2.1-1c0.8,0,1.4,0.5,1.4,1.4c0,0.8-0.3,1.5-1,2.1
				C158.3,228.5,157.5,228.8,156.8,228.8z M158.5,225.5c-0.4,0-0.9,0.2-1.3,0.6c-0.4,0.4-0.7,0.8-0.7,1.2c0,0.3,0.1,0.3,0.3,0.3
				c0.4,0,0.8-0.2,1.3-0.6c0.4-0.4,0.6-0.9,0.6-1.3c0-0.2,0-0.2,0-0.2l0,0C158.7,225.5,158.6,225.5,158.5,225.5z"/>
		</g>
		<g>
			<path class="st0" d="M182.7,213.2c0,0.1-1.5,2.5-4.5,7.2c-2.4,3.7-4.1,6.5-5,8.2c-0.9,1.8-1.6,3.6-2.1,5.4
				c-0.5-0.1-0.9-0.2-1.2-0.2c-0.4,0-1.1,0.1-2.1,0.2c0.9-2.6,3.6-6.7,8.2-12.3c2.8-3.4,4.7-5.8,5.6-7.3c-3.4,4.1-6.9,7.4-10.4,10.1
				c-2.2,1.7-3.6,2.6-4,2.6c-0.1,0-0.2,0-0.2-0.1c0-0.1,0.1-0.2,0.2-0.2c3.4-1.5,8.2-5.8,14.6-12.9l0.3-0.3
				C182.4,213.3,182.6,213.2,182.7,213.2C182.7,213.2,182.7,213.2,182.7,213.2z"/>
			<path class="st0" d="M166.9,234.8l0.3-0.9c0.9-2.5,3.3-6.2,7.4-11.3c-1,0.9-2,1.7-3,2.4c-3.1,2.4-3.9,2.7-4.4,2.7
				c-0.5,0-0.7-0.4-0.7-0.7c0-0.2,0.1-0.6,0.6-0.8c3.3-1.5,8.1-5.8,14.4-12.8l0.3-0.3c0.4-0.4,0.6-0.6,0.9-0.6h0.6l0.1,0.7
				c0,0.2,0,0.3-4.6,7.5c-2.4,3.7-4.1,6.5-5,8.2c-0.9,1.7-1.6,3.5-2,5.2l-0.1,0.5l-0.6-0.1c-0.4-0.1-0.8-0.1-1.1-0.1
				c-0.4,0-1,0.1-2.1,0.2L166.9,234.8z M176.1,222.6c-3.8,4.7-6.3,8.3-7.5,10.8c1.1-0.1,1.4-0.1,2,0c0.5-1.7,1.1-3.3,2-4.9
				C173.4,227,174.5,225.1,176.1,222.6z"/>
		</g>
		<g>
			<path class="st0" d="M184.2,231.5c0,0.6-0.3,1.2-0.8,1.7c-0.5,0.5-1.1,0.8-1.7,0.8c-0.6,0-0.9-0.3-0.9-0.9c0-0.5,0.3-1.1,0.9-1.6
				c0.6-0.5,1.1-0.8,1.7-0.8C184,230.7,184.2,231,184.2,231.5z"/>
			<path class="st0" d="M181.8,234.6c-0.9,0-1.4-0.6-1.4-1.5c0-0.7,0.3-1.4,1-2c0.7-0.6,1.4-1,2.1-1c0.8,0,1.4,0.5,1.4,1.4
				c0,0.8-0.3,1.5-1,2.1C183.2,234.3,182.5,234.6,181.8,234.6z M183.5,231.3c-0.4,0-0.9,0.2-1.3,0.7c-0.4,0.4-0.7,0.8-0.7,1.2
				c0,0.3,0.1,0.3,0.3,0.3c0.4,0,0.8-0.2,1.2-0.6c0.4-0.4,0.6-0.9,0.6-1.3c0-0.1,0-0.2,0-0.2h0C183.6,231.3,183.6,231.3,183.5,231.3
				z"/>
		</g>
		<g>
			<path class="st0" d="M212.7,210.6c0,0.1-0.1,0.2-0.4,0.2h-0.4c-2.4,0-5.3,1.7-8.7,5c-3.5,3.4-6.1,7-7.8,11
				c1.3-2.1,2.9-3.9,4.6-5.2c1.8-1.3,3.4-2,5-2c1.3,0,2.4,0.4,3.2,1.2c0.8,0.8,1.2,1.9,1.2,3.2c0,2.3-1.3,4.6-3.9,6.9
				c-2.6,2.2-5.2,3.3-7.9,3.3c-1.5,0-2.7-0.5-3.5-1.4c-0.9-1-1.3-2.2-1.3-3.9c0-2.4,1-4.9,3-7.5c2-2.6,4.7-5.1,8.3-7.5
				c1.4-1,3-1.8,4.6-2.5c1.6-0.7,2.8-1.1,3.6-1.1C212.6,210.4,212.7,210.5,212.7,210.6z M207.8,222.6c0-1.8-1-2.7-3-2.7
				c-2.1,0-4.3,1.2-6.7,3.7c-2.4,2.5-3.6,4.8-3.6,7c0,1,0.3,1.9,0.8,2.5c0.5,0.6,1.2,0.9,2.1,0.9c2.1,0,4.3-1.3,6.7-4
				C206.6,227.3,207.8,224.8,207.8,222.6z"/>
			<path class="st0" d="M197.7,234.8c-1.6,0-3-0.5-4-1.6c-1-1.1-1.5-2.5-1.5-4.3c0-2.5,1-5.2,3.1-7.9c2-2.7,4.8-5.2,8.4-7.6
				c1.4-1,3-1.8,4.7-2.5c1.7-0.7,3-1.1,3.8-1.1c0.7,0,0.9,0.4,0.9,0.8c0,0.1,0,0.8-1,0.8h-0.4c-2.2,0-5,1.6-8.3,4.9
				c-1.8,1.8-3.4,3.6-4.7,5.5c0.3-0.2,0.5-0.5,0.8-0.7c1.9-1.4,3.7-2.1,5.3-2.1c1.5,0,2.7,0.5,3.6,1.4c0.9,0.9,1.4,2.1,1.4,3.6
				c0,2.5-1.4,5-4.1,7.3C203.4,233.7,200.6,234.8,197.7,234.8z M204.9,220.5c-1.9,0-4.1,1.2-6.3,3.5c-2.3,2.3-3.4,4.6-3.4,6.6
				c0,0.9,0.2,1.6,0.6,2.1c0.4,0.5,0.9,0.7,1.6,0.7c1.9,0,4-1.3,6.3-3.8c2.3-2.6,3.5-4.9,3.5-7C207.2,221.1,206.5,220.5,204.9,220.5
				z M208.4,221.8c0,0.2,0.1,0.5,0.1,0.7c0,2.4-1.3,5-3.8,7.8c-0.7,0.8-1.4,1.5-2.1,2c1-0.5,1.9-1.2,2.8-2c2.4-2.1,3.7-4.3,3.7-6.4
				C209,223.2,208.8,222.5,208.4,221.8z M202.2,216c-2.4,1.8-4.4,3.8-5.9,5.7c-1.9,2.5-2.8,4.9-2.8,7.2c0,1.1,0.2,2,0.6,2.8
				c-0.1-0.4-0.1-0.7-0.1-1.1c0-1.3,0.4-2.6,1.1-3.9l-0.2-0.1C196.5,222.8,199,219.3,202.2,216z"/>
		</g>
		<g>
			<path class="st0" d="M230.6,213.2c0,0.1-1.5,2.5-4.5,7.2c-2.4,3.7-4.1,6.5-5,8.2c-0.9,1.8-1.6,3.6-2.1,5.4
				c-0.5-0.1-0.9-0.2-1.2-0.2c-0.4,0-1.1,0.1-2.1,0.2c0.9-2.6,3.6-6.7,8.2-12.3c2.8-3.4,4.7-5.8,5.6-7.3c-3.4,4.1-6.9,7.4-10.4,10.1
				c-2.2,1.7-3.6,2.6-4,2.6c-0.1,0-0.2,0-0.2-0.1c0-0.1,0.1-0.2,0.2-0.2c3.4-1.5,8.2-5.8,14.6-12.9l0.3-0.3
				C230.4,213.3,230.5,213.2,230.6,213.2C230.6,213.2,230.6,213.2,230.6,213.2z"/>
			<path class="st0" d="M214.8,234.8l0.3-0.9c0.9-2.5,3.3-6.2,7.4-11.3c-1,0.9-2,1.7-3,2.4c-3.1,2.4-3.9,2.7-4.4,2.7
				c-0.5,0-0.7-0.4-0.7-0.7c0-0.2,0.1-0.6,0.6-0.8c3.3-1.5,8.1-5.8,14.4-12.8l0.3-0.3c0.4-0.4,0.6-0.6,0.9-0.6h0.6l0.1,0.7
				c0,0.3,0,0.3-4.6,7.5c-2.4,3.7-4.1,6.4-5,8.2c-0.9,1.7-1.6,3.5-2,5.2l-0.1,0.5l-0.6-0.1c-0.4-0.1-0.8-0.1-1.1-0.1
				c-0.3,0-1,0.1-2.1,0.2L214.8,234.8z M224.1,222.5c-3.8,4.7-6.3,8.3-7.5,10.8c1-0.1,1.4-0.1,2,0c0.5-1.7,1.1-3.3,2-4.9
				C221.3,227,222.5,225,224.1,222.5z"/>
		</g>
		<g>
			<path class="st0" d="M251.6,215.4c0,2.3-2.8,4.3-8.4,6c1.2,1.2,2.1,2.1,2.5,2.8c0.4,0.7,0.6,1.5,0.6,2.4c0,2-1,3.7-3,5.3
				c-2,1.6-4.3,2.3-6.8,2.3c-1.8,0-3.3-0.4-4.4-1.2c-1.1-0.8-1.7-1.9-1.7-3.3c0-1.6,0.8-3,2.4-4.2c1.6-1.2,4.3-2.4,8.1-3.7
				c-1.3-1.3-2-2.5-2-3.7c0-1.5,0.9-3,2.6-4.2c1.7-1.3,3.6-1.9,5.7-1.9c1.3,0,2.4,0.3,3.3,1C251.2,213.7,251.6,214.4,251.6,215.4z
				 M244.3,227.9c0-1.1-0.4-2.2-1.1-3.2c-0.2-0.3-1-1.2-2.3-2.6c-6,2.2-9,5-9,8.4c0,2.4,1.5,3.6,4.6,3.6c2.1,0,4-0.6,5.5-1.8
				C243.5,231,244.3,229.5,244.3,227.9z M250.3,214.8c0-0.7-0.3-1.3-0.9-1.7c-0.6-0.5-1.4-0.7-2.3-0.7c-1.7,0-3.2,0.5-4.4,1.5
				c-1.3,1-1.9,2.1-1.9,3.4c0,0.7,0.3,1.5,0.8,2.2c0.2,0.3,0.7,0.9,1.6,1.8c2.2-0.8,3.9-1.7,5.3-2.9
				C249.7,217.2,250.3,216,250.3,214.8z"/>
			<path class="st0" d="M236.5,234.8c-1.9,0-3.6-0.5-4.8-1.4c-1.3-0.9-1.9-2.2-1.9-3.7c0-1.8,0.9-3.4,2.6-4.6
				c1.5-1.1,3.9-2.3,7.4-3.5c-1-1.2-1.5-2.3-1.5-3.4c0-1.7,0.9-3.3,2.8-4.7c1.8-1.3,3.8-2,6-2c1.4,0,2.6,0.4,3.6,1.1
				c1,0.8,1.6,1.7,1.6,2.8c0,2.5-2.6,4.5-7.9,6.2c0.9,0.9,1.5,1.7,1.9,2.3c0.5,0.8,0.7,1.7,0.7,2.7c0,2.2-1.1,4.1-3.2,5.8
				C241.6,234,239.2,234.8,236.5,234.8z M240.7,222.7c-5.5,2.1-8.2,4.7-8.2,7.7c0,1.3,0.4,3,4,3c2,0,3.7-0.6,5.2-1.7
				c1.4-1.1,2.1-2.4,2.1-3.9c0-1-0.3-2-1-2.9C242.6,224.8,241.9,224,240.7,222.7z M233.2,226C233.1,226,233.1,226,233.2,226
				c-1.5,1.1-2.2,2.4-2.2,3.8c0,0.7,0.2,1.3,0.5,1.8c-0.1-0.4-0.1-0.7-0.1-1.1C231.3,228.8,231.9,227.3,233.2,226z M241.8,222.1
				c1.4,1.6,1.8,2,1.9,2.2c0.8,1.1,1.2,2.3,1.2,3.6c0,0.8-0.1,1.5-0.4,2.2c0.9-1.1,1.3-2.2,1.3-3.4c0-0.8-0.2-1.5-0.6-2.1
				c-0.4-0.7-1.2-1.6-2.4-2.7l-0.7-0.7l0.1,0c-0.6-0.7-1-1.1-1.1-1.4c-0.6-0.9-0.9-1.7-0.9-2.6c0-0.5,0.1-1,0.3-1.5
				c-0.7,0.8-1,1.6-1,2.5c0,1,0.6,2.1,1.8,3.2L241.8,222.1L241.8,222.1z M247.1,212.9c-1.6,0-2.9,0.4-4.1,1.3
				c-1.1,0.9-1.7,1.8-1.7,2.9c0,0.6,0.2,1.2,0.7,1.9c0.2,0.2,0.6,0.7,1.3,1.5c1.9-0.7,3.5-1.6,4.7-2.6c1.2-1,1.8-2.1,1.8-3.1
				c0-0.5-0.2-0.9-0.7-1.3C248.5,213.1,247.9,212.9,247.1,212.9z M250.9,214.5c0,0.1,0,0.1,0,0.2c0,1-0.4,2-1.1,2.9
				c0.9-0.7,1.3-1.5,1.3-2.3C251.1,215.1,251,214.8,250.9,214.5z"/>
		</g>
	</g>
</g>
</svg>
