<?xml version="1.0" encoding="utf-8"?>
<!-- Generator: Adobe Illustrator 25.2.3, SVG Export Plug-In . SVG Version: 6.00 Build 0)  -->
<svg version="1.1" id="圖層_1" xmlns="http://www.w3.org/2000/svg" xmlns:xlink="http://www.w3.org/1999/xlink" x="0px" y="0px"
	 viewBox="0 0 830 117" style="enable-background:new 0 0 830 117;" xml:space="preserve">
<style type="text/css">
	.st0{fill:#FFFFFF;}
</style>
<g>
	<g>
		<g>
			<path class="st0" d="M56.1,42.5h-3.2c-1.2,3.1-3,5.8-5.3,8c2.6,1.3,5.6,2.3,9.1,2.8c-1.3,1.2-2.9,3.6-3.6,5.2
				c-4-0.9-7.4-2.4-10.3-4.4c-2.9,1.7-6.3,2.9-10.1,3.7c-0.6-1.3-2.1-3.6-3.2-4.7c3.4-0.6,6.4-1.5,9-2.9c-1-1.2-1.9-2.4-2.7-3.7
				c-0.8,0.9-1.6,1.8-2.4,2.5c-0.8-0.9-2.3-2.3-3.6-3.2c-0.5,12.2-1.1,12.3-10.3,12c-0.1-0.8-0.3-1.9-0.7-2.8h-5.3v1.5H9.1v-6.4
				c-0.5,0.5-0.9,0.9-1.5,1.4c-0.8-1.2-2.4-2.9-3.5-3.6c3.1-2.4,5.1-5.6,6.3-8.4l0.5,0.1v-0.5H5.3V35h5.6v-2.4l6.7,0.4
				c-0.1,0.5-0.4,0.8-1.3,0.9V35h4.2v-2.4l6.8,0.4c-0.1,0.5-0.4,0.8-1.3,0.9V35h5.6v4.1H26v2h-5.5v-2h-4.2v1.4h0.1
				c0,0.1-0.1,0.2-0.1,0.3V41c-0.2,0-0.9,0.2-1,0.2l-0.4,0.9h10.9l1.3-0.1l3,0.2l-0.1,2.4c3.1-3,5.7-7.6,7.1-12.2l6.7,1.9
				C43.5,34.8,43,35,42.3,35c-0.3,0.9-0.7,1.8-1.1,2.8h14.9V42.5z M33.8,69.8V72h22v4.7h-22v1.8c0,5.4-2.5,6.1-12.4,6.1
				c-0.4-1.6-1.3-3.9-2.1-5.3c2.7,0.1,5.9,0.1,6.8,0.1c0.9,0,1.2-0.2,1.2-0.9v-1.7h-22V72h22v-2.1H9.5v-4.5h17.8v-1.9
				c-4.4,0.2-8.9,0.2-13,0.1c-0.1-1.2-0.7-3-1.2-4.1c10.5,0.1,23-0.4,30-1.5l4,4c-0.2,0.1-0.4,0.2-0.7,0.2c-0.2,0-0.3,0-0.6-0.1
				c-3.2,0.5-7.4,0.9-12,1.1v2.2h18.2v4.5H33.8z M21.8,53.9c0.8,0,1.2,0,1.6-0.5c0.5-0.6,0.8-2.6,0.9-7.8H12.9
				c-0.3,0.4-0.6,0.9-0.9,1.3h9.8V53.9z M17.3,52.2v-2.3h-3.8v2.3H17.3z M39,42.5c1,1.8,2.3,3.4,3.8,4.8c1.5-1.4,2.6-3,3.5-4.8H39z"
				/>
		</g>
		<g>
			<path class="st0" d="M107.3,60H88.8c3.6,9.2,10.3,15.5,21.8,18.1c-1.5,1.5-3.6,4.5-4.6,6.4c-10.7-3-17.2-8.9-21.5-17.7
				c-3,7.2-9.4,13.8-22.4,17.8c-0.7-1.7-2.8-4.6-4.1-5.9C72.3,74.5,77.5,67.2,79.3,60h-18v-6.8h18.9V43.1H59.6v-6.8h49.2v6.8H87.2
				v10.2h20V60z"/>
		</g>
		<g>
			<path class="st0" d="M163.1,48.5h-21.8v10h16v25.8h-6.8v-2.3h-24.7v2.5h-6.5v-26h15v-10h-21.7V42h21.7v-9.5l8.5,0.4
				c-0.1,0.6-0.5,0.9-1.6,1.1V42h21.8V48.5z M150.5,75.6V64.7h-24.7v10.9H150.5z"/>
		</g>
		<g>
			<path class="st0" d="M217.4,65.5v6.2h-15.6c5.6,2.7,11.6,6,15.2,8.3l-6.3,4.6c-3.5-2.5-9.7-6.4-15.4-9.1l4.1-3.7h-16.6l5.7,3.7
				c-0.2,0.2-0.6,0.3-1.1,0.4c-3.6,2.9-10.6,6.8-16.3,8.8c-1.3-1.4-3.6-3.6-5.3-4.9c5.5-1.8,12-5.2,15.6-8h-15.7v-6.2h5.5V38.9h11.4
				v-6.5l7.6,0.4c-0.1,0.6-0.4,0.8-1.4,1v5.1h5.3v-6.5l7.7,0.4c-0.1,0.6-0.4,0.8-1.4,1v5.1h12.1v26.5H217.4z M182.5,45.1h-5v7.1h5
				V45.1z M177.5,58.3v7.2h5v-7.2H177.5z M194,45.1h-5.3v7.1h5.3V45.1z M194,65.5v-7.2h-5.3v7.2H194z M205.7,45.1h-5.4v7.1h5.4V45.1
				z M200.3,58.3v7.2h5.4v-7.2H200.3z"/>
		</g>
		<g>
			<path class="st0" d="M269.3,50.2v12.4h-5.6v11.4c0,5.8-2.4,6.7-11.4,6.7c-0.2-1.8-1-4.3-1.8-6.1c1.4,0.1,2.9,0.1,4,0.1
				c2.5,0,2.8,0,2.8-0.8v-7h-8.8v17.4h-6.7V67h-8.3v13.4h-6.3V62.7h-5.9V50.2h12.4c-0.5-1.8-1.4-3.9-2.4-5.5l3.6-0.9h-11.4V38h18.2
				v-5.4l8.5,0.5c-0.1,0.6-0.4,0.9-1.5,1V38h18.8v5.8H257l4.2,1.3c-0.2,0.4-0.7,0.6-1.5,0.6c-0.8,1.4-1.8,3.1-2.9,4.6H269.3z
				 M259.9,61.2h2.9v-5.1h-35.3v5.1h14.3v-4.5l8.1,0.4c-0.1,0.6-0.4,0.9-1.5,1.1v2.9L259.9,61.2L259.9,61.2z M250.2,49.8
				c0.9-1.7,2-4,2.8-6h-15.4c1.2,1.9,2.3,4.3,2.7,6l-1.5,0.4h12.7L250.2,49.8z"/>
		</g>
		<g>
			<path class="st0" d="M286.4,52.8c1.5,2.1,5.7,8.6,6.5,10.1l-3.4,4.7c-0.7-1.8-1.9-4.3-3.1-6.8v23.7h-6V63.5
				c-1.4,4.3-3.1,8.3-5.1,11.1c-0.6-1.8-2-4.3-2.9-5.8c3.1-4.3,6.1-12,7.5-18.6h-6.2v-6.1h6.7V32.6l7.4,0.4c-0.1,0.5-0.4,0.8-1.4,1
				v10.1h5.5v6.1h-5.5V52.8z M303.4,74.7c-0.1,0.3-0.6,0.5-1.2,0.4c-1.9,2.6-5.1,6-8.2,8.1c-0.9-1.3-2.7-3-4.1-4
				c2.9-1.9,5.9-5,7.7-7.7L303.4,74.7z M324.7,71.1h-13.3v7.6c0,5.2-2.3,5.9-9.2,5.9c-0.2-1.7-1-3.8-1.8-5.3c1,0.1,2.1,0.1,2.9,0.1
				c1.9,0,2-0.1,2-0.7v-7.5h-13.2v-5.3h32.6V71.1z M301.7,42.7v-2.6h-9.3v-5.2h32.2v5.2h-9.7v2.6h8.3v14.1H294V42.7H301.7z
				 M321.8,63.6h-26.1v-4.8h26.1V63.6z M299.4,47.5V52h2.9v-4.6H299.4z M309.8,47.5h-3.1V52h3.1V47.5z M309.8,42.7v-2.6h-3v2.6
				H309.8z M320.2,83.2c-1.4-2.3-4.5-5.9-7.1-8.5l4.7-3.1c2.6,2.4,5.9,5.8,7.4,8.1L320.2,83.2z M317.5,52v-4.6h-3.2V52H317.5z"/>
		</g>
		<g>
			<path class="st0" d="M351.2,31h2.5v55h-2.5V31z"/>
		</g>
		<g>
			<path class="st0" d="M422.6,84h-10.7l-3.8-14h-14.2l-3.7,14h-10.4l15-53.1h12.8L422.6,84z M406.7,62.3l-3.2-12.1
				c-0.8-3.3-1.7-7.6-2.4-10.8h-0.2c-0.7,3.3-1.6,7.7-2.3,10.8l-3.2,12.1H406.7z"/>
		</g>
		<g>
			<path class="st0" d="M426.4,31.8h32.5v6.3L439.1,84h-10.5l19.8-43.6v-0.1h-22.1V31.8z"/>
		</g>
		<g>
			<path class="st0" d="M497.5,75.6c0,1.8,0.3,2,2.3,2h5.5c1.8,0,2.1-0.9,2.4-6.7c1.3,1,4.2,2,5.9,2.5c-0.7,8-2.4,10.1-7.7,10.1
				h-7.1c-6.4,0-8-1.9-8-7.9V65.1h-6.1c-0.2,0.3-0.7,0.6-1.3,0.6c-1.7,8.1-4.1,14.9-18,18.8c-0.6-1.8-2.4-4.5-3.8-5.9
				c11.5-2.6,13.7-7.2,14.7-13.5h-13.2v-6.2h49.6v6.2h-15.2V75.6z M471,45.1V52h-6.7V38.9h19.9v-6.3l8.6,0.4
				c-0.1,0.6-0.5,0.9-1.6,1.1v4.8h20.2V52h-7v-6.9H471z M502.1,55h-28.6v-5.9h28.6V55z"/>
		</g>
		<g>
			<path class="st0" d="M566.9,71.5h-18.4c3.9,4.2,10.2,6.3,19.6,6.9c-1.4,1.5-3.1,4.3-4,6.1c-11.6-1.3-18.3-5-22.6-12.4
				c-2.8,5.8-8.5,9.9-22.7,12.3c-0.5-1.8-2.1-4.5-3.3-5.9c10.5-1.4,15.8-3.6,18.5-7h-17.6v-5.8h20.1c0.2-1,0.4-2.2,0.5-3.4h-20.6
				v-5.9H538v-2.8h-15.8v-5.6H538v-2.7h-18.8v-5.8h10c-0.8-1.6-1.9-3.4-3-4.7l5.7-2.3c1.8,1.9,3.5,4.5,4.1,6.4l-1.4,0.6h12.7
				l-0.9-0.3c1.4-1.9,3.1-4.7,4-6.7l7.7,2.5c-0.2,0.4-0.7,0.6-1.5,0.6c-0.8,1.2-2,2.6-3.1,3.9H564v5.8h-19.1v2.7h16.3v5.6h-16.3v2.8
				h21.8v5.9h-21.2c-0.2,0.4-0.7,0.7-1.4,0.8l-0.5,2.6h23.3V71.5z"/>
		</g>
		<g>
			<path class="st0" d="M596.7,74.4c0,2.5,0.5,2.8,3.8,2.8h9.4c3,0,3.5-1.2,3.9-7.7c1.6,1.2,4.6,2.3,6.6,2.8
				c-0.9,8.9-3,11.4-10,11.4h-10.7c-8.1,0-10.3-2.1-10.3-9.2v-6.1l-18.1,1.9l-0.9-6.3l19-2v-5.9c-4.1,0.8-8.3,1.4-12.3,2
				c-0.3-1.7-1.3-4.2-2.1-5.7c0.7-0.1,1.3-0.1,1.9-0.2V52h-5.4V38.9h19.9v-6.3l8.6,0.4c-0.1,0.6-0.5,0.9-1.6,1.1v4.8h20.2V52h-7
				v-6.9h-33.5v6.7c9.4-1.4,19.1-3.8,25.1-6.6l5.6,5.6c-0.3,0.3-0.4,0.3-1.5,0.3c-2.9,1.2-6.3,2.3-10,3.2l0.8,0.1
				c-0.1,0.6-0.5,0.9-1.5,1.1v5.9l22.8-2.4l0.9,6.1l-23.7,2.5V74.4z"/>
		</g>
		<g>
			<path class="st0" d="M647.6,31h2.5v55h-2.5V31z"/>
		</g>
		<g>
			<path class="st0" d="M710.6,84H678v-6.3l5.8-6.2c9.9-10.2,15.7-16.9,15.7-23.9c0-4.6-2.4-8.3-8.1-8.3c-3.8,0-7.3,2-9.7,3.8
				l-2.8-7.3c3.2-2.5,8.6-4.7,14.6-4.7c11.2,0,16.3,7.1,16.3,15.6c0,9.2-6.3,16.8-13.9,24.5l-4.3,4.3v0.1h19.2V84z"/>
		</g>
		<g>
			<path class="st0" d="M715.1,59.4H734v7h-18.9V59.4z"/>
		</g>
		<g>
			<path class="st0" d="M766.6,84h-9.5V71.1h-21v-6.6l19-32.6h11.5v31.5h6v7.7h-6V84z M745.2,63.4h11.9v-13c0-3,0.2-6.3,0.4-9.5
				h-0.3c-1.6,3.3-2.8,6.2-4.4,9.2l-7.7,13.1V63.4z"/>
		</g>
		<g>
			<path class="st0" d="M824.9,65.1h-22.7c-0.2,1-0.3,2.1-0.6,3.1h12.8l1.4-0.1l3.7,0.6c-0.1,0.6-0.1,1.2-0.3,1.7
				c-1.2,14.4-2.1,14.4-13.9,14.1c-0.1-1.7-0.8-4-1.7-5.5c2.3,0.2,4.6,0.3,5.6,0.3c0.8,0,1.4-0.1,1.8-0.6c0.6-0.6,1-2.1,1.4-5.4
				h-12.4c-2,4.7-5.9,8.6-14.3,11.2c-0.6-1.5-2.3-4-3.6-5.2c10.2-2.7,12.5-7.5,13.4-14.2h-9.5c-0.8,6.7-2.8,13.7-7.2,18.8
				c-1.2-1.2-4.1-3-5.7-3.7c6.2-6.9,6.8-17,6.8-24.4V43.5H820v13.3h-13c-0.2,0.3-0.7,0.6-1.4,0.7v2.8h19.3V65.1z M824.6,35.2V41
				h-49.4v-5.9H824.6z M799,56.7h-12.3c0,1.1-0.1,2.3-0.1,3.4H799V56.7z M813.5,48.3h-26.8v3.5h26.8V48.3z"/>
		</g>
	</g>
	<g>
		<rect x="0.2" y="114.7" class="st0" width="829.8" height="2"/>
	</g>
	<g>
		<rect x="0.2" y="0.3" class="st0" width="829.8" height="2"/>
	</g>
</g>
</svg>
