<?xml version="1.0" encoding="utf-8"?>
<!-- Generator: Adobe Illustrator 25.2.3, SVG Export Plug-In . SVG Version: 6.00 Build 0)  -->
<svg version="1.1" id="圖層_1" xmlns="http://www.w3.org/2000/svg" xmlns:xlink="http://www.w3.org/1999/xlink" x="0px" y="0px"
	 viewBox="0 0 393.4 139.8" style="enable-background:new 0 0 393.4 139.8;" xml:space="preserve">
<style type="text/css">
	.st0{fill:#FFFFFF;}
</style>
<g>
	<g>
		<path class="st0" d="M80.1,26.6h-3.2c-1.2,3.1-2.9,5.6-5.1,7.8c2.5,1.3,5.5,2.2,8.8,2.7c-1.2,1.2-2.8,3.5-3.5,5
			c-3.9-0.9-7.2-2.3-10-4.3c-2.8,1.6-6.1,2.8-9.8,3.6c-0.6-1.3-2-3.5-3.1-4.6c3.3-0.6,6.3-1.5,8.8-2.8c-1-1.1-1.8-2.4-2.6-3.6
			c-0.8,0.9-1.6,1.7-2.4,2.5c-0.8-0.9-2.3-2.3-3.5-3.1c-0.5,11.9-1.1,12-10.1,11.7c-0.1-0.8-0.3-1.8-0.6-2.7h-5.1v1.4h-4.2v-6.3
			c-0.5,0.5-0.9,0.9-1.4,1.3c-0.8-1.1-2.4-2.8-3.4-3.5c3-2.4,5-5.5,6.1-8.2l0.5,0.1v-0.5h-5.4v-4h5.4v-2.4l6.5,0.4
			c-0.1,0.5-0.4,0.8-1.3,0.9v1.1h4.1v-2.4l6.7,0.4c-0.1,0.5-0.4,0.8-1.3,0.9v1.1h5.4v4h-5.4v1.9h-5.4v-1.9h-4.1v1.3h0.1
			c0,0.1-0.1,0.2-0.1,0.3v0.3c-0.2,0-0.9,0.2-1,0.2l-0.4,0.9h10.6l1.2-0.1l2.9,0.2l-0.1,2.4c3.1-2.9,5.6-7.4,6.9-11.9l6.5,1.8
			c-0.2,0.4-0.6,0.6-1.3,0.6c-0.3,0.9-0.7,1.8-1.1,2.7h14.5V26.6z M58.4,53.2v2.1h21.4v4.6H58.4v1.8c0,5.3-2.5,5.9-12.1,5.9
			c-0.4-1.6-1.2-3.8-2-5.2c2.6,0.1,5.8,0.1,6.6,0.1c0.9,0,1.1-0.2,1.1-0.9v-1.6H30.6v-4.6H52v-2.1H34.7v-4.3H52V47
			c-4.3,0.2-8.6,0.2-12.7,0.1c-0.1-1.1-0.6-2.9-1.1-4c10.2,0.1,22.4-0.4,29.2-1.4l3.9,3.9c-0.2,0.1-0.4,0.2-0.7,0.2
			c-0.2,0-0.3,0-0.5-0.1c-3.2,0.5-7.2,0.9-11.7,1.1v2.1h17.8v4.3H58.4z M46.7,37.7c0.8,0,1.2,0,1.6-0.5c0.5-0.6,0.8-2.6,0.9-7.6H38
			c-0.3,0.4-0.6,0.9-0.9,1.3h9.6V37.7z M42.3,36.1v-2.3h-3.7v2.3H42.3z M63.5,26.6c1,1.8,2.2,3.3,3.7,4.7c1.4-1.3,2.6-2.9,3.4-4.7
			H63.5z"/>
	</g>
	<g>
		<path class="st0" d="M135.1,43.7h-18c3.5,9,10.1,15.1,21.2,17.6c-1.5,1.4-3.5,4.4-4.5,6.3c-10.4-2.9-16.7-8.6-20.9-17.3
			c-2.9,7-9.1,13.4-21.8,17.3c-0.7-1.7-2.7-4.5-4-5.8c13.8-4,18.9-11.2,20.6-18.2H90.3v-6.6h18.4v-9.9H88.6v-6.7h47.9v6.7h-21v9.9
			h19.5V43.7z"/>
	</g>
	<g>
		<path class="st0" d="M195.1,32.4h-21.3v9.7h15.6v25.2h-6.7V65h-24v2.5h-6.3V42.1h14.6v-9.7h-21.1v-6.3h21.1v-9.2l8.3,0.4
			c-0.1,0.5-0.5,0.9-1.6,1.1v7.7h21.3V32.4z M182.8,58.9V48.2h-24v10.7H182.8z"/>
	</g>
	<g>
		<path class="st0" d="M253.5,49v6.1h-15.2c5.5,2.6,11.3,5.8,14.8,8l-6.2,4.5c-3.4-2.5-9.4-6.2-15-8.9l4-3.6h-16.2l5.5,3.6
			c-0.2,0.2-0.5,0.3-1.1,0.4c-3.5,2.8-10.3,6.6-15.9,8.6c-1.2-1.3-3.5-3.5-5.2-4.8c5.4-1.7,11.7-5,15.2-7.8H203V49h5.4V23.1h11.1
			v-6.4l7.4,0.4c-0.1,0.5-0.4,0.8-1.4,1v5h5.2v-6.4l7.5,0.4c-0.1,0.5-0.4,0.8-1.4,1v5h11.8V49H253.5z M219.5,29.1h-4.9V36h4.9V29.1z
			 M214.6,42v7h4.9v-7H214.6z M230.7,29.1h-5.2V36h5.2V29.1z M230.7,49v-7h-5.2v7H230.7z M242.1,29.1h-5.3V36h5.3V29.1z M236.8,42v7
			h5.3v-7H236.8z"/>
	</g>
	<g>
		<path class="st0" d="M309.4,34.1v12.1h-5.5v11.2c0,5.7-2.3,6.5-11.1,6.5c-0.2-1.8-1-4.2-1.8-5.9c1.3,0.1,2.8,0.1,3.9,0.1
			c2.4,0,2.7,0,2.7-0.8v-6.9H289v16.9h-6.5V50.4h-8v13h-6.2V46.3h-5.7V34.1h12.1c-0.5-1.7-1.4-3.8-2.4-5.4l3.5-0.9h-11.2v-5.7h17.7
			v-5.3l8.3,0.5c-0.1,0.5-0.4,0.9-1.4,1v3.8h18.3v5.7h-10l4.1,1.2c-0.2,0.4-0.7,0.5-1.4,0.5c-0.8,1.4-1.8,3.1-2.8,4.5H309.4z
			 M300.2,44.9h2.8v-5h-34.4v4.9h13.9v-4.3l7.9,0.4c-0.1,0.6-0.4,0.9-1.4,1.1v2.8L300.2,44.9L300.2,44.9z M290.8,33.7
			c0.9-1.7,2-3.9,2.7-5.8h-15c1.2,1.9,2.3,4.2,2.6,5.8l-1.4,0.4H292L290.8,33.7z"/>
	</g>
	<g>
		<path class="st0" d="M331.6,36.6c1.5,2.1,5.5,8.4,6.4,9.9l-3.3,4.6c-0.6-1.7-1.9-4.2-3.1-6.7v23.1h-5.8V47.1
			c-1.4,4.2-3.1,8-4.9,10.8c-0.6-1.8-1.9-4.2-2.8-5.7c3.1-4.2,5.9-11.7,7.3-18.1h-6.1v-6h6.5V16.9l7.2,0.4c-0.1,0.5-0.4,0.8-1.4,1
			v9.8h5.4v6h-5.4V36.6z M348.2,58c-0.1,0.3-0.5,0.5-1.1,0.4c-1.8,2.6-5,5.8-8,7.9c-0.9-1.2-2.6-2.9-4-3.9c2.8-1.8,5.8-4.9,7.5-7.5
			L348.2,58z M369,54.5h-13v7.4c0,5.1-2.2,5.7-9,5.7c-0.2-1.6-1-3.7-1.7-5.2c1,0.1,2,0.1,2.8,0.1c1.8,0,1.9-0.1,1.9-0.7v-7.3h-12.9
			v-5.1H369V54.5z M346.5,26.8v-2.5h-9.1v-5.1h31.4v5.1h-9.4v2.5h8v13.8H339V26.8H346.5z M366.1,47.2h-25.4v-4.7h25.4V47.2z
			 M344.3,31.5v4.5h2.8v-4.5H344.3z M354.5,31.5h-3v4.5h3V31.5z M354.5,26.8v-2.5h-2.9v2.5H354.5z M364.6,66.3
			c-1.3-2.3-4.4-5.8-6.9-8.3l4.6-3c2.6,2.4,5.7,5.6,7.2,7.9L364.6,66.3z M362,35.9v-4.5h-3.2v4.5H362z"/>
	</g>
	<g>
		<path class="st0" d="M57.1,121.8h-8.3l-2.9-10.9h-11L32,121.8h-8l11.7-41.2h10L57.1,121.8z M44.8,104.9l-2.5-9.4
			c-0.6-2.6-1.3-5.9-1.9-8.4h-0.2c-0.5,2.6-1.2,5.9-1.8,8.4l-2.5,9.4H44.8z"/>
	</g>
	<g>
		<path class="st0" d="M60,81.3h25.2v4.9l-15.3,35.6h-8.1l15.4-33.9v-0.1H60V81.3z"/>
	</g>
	<g>
		<path class="st0" d="M115.2,115.2c0,1.4,0.3,1.6,1.8,1.6h4.3c1.4,0,1.7-0.7,1.8-5.2c1,0.8,3.2,1.6,4.6,2c-0.6,6.2-1.9,7.9-6,7.9
			h-5.5c-5,0-6.2-1.5-6.2-6.2v-8.2h-4.7c-0.2,0.2-0.5,0.4-1,0.5c-1.3,6.3-3.2,11.6-14,14.6c-0.5-1.4-1.9-3.5-2.9-4.6
			c8.9-2,10.6-5.6,11.4-10.5H88.6v-4.8h38.5v4.8h-11.8V115.2z M94.7,91.6v5.4h-5.2V86.7h15.5v-4.9l6.7,0.3c0,0.5-0.4,0.7-1.2,0.9
			v3.7h15.7v10.2h-5.5v-5.4H94.7z M118.8,99.3H96.6v-4.6h22.2V99.3z"/>
	</g>
	<g>
		<path class="st0" d="M169.1,112.1h-14.3c3,3.3,7.9,4.9,15.2,5.4c-1.1,1.2-2.4,3.3-3.1,4.7c-9-1-14.2-3.9-17.6-9.6
			c-2.1,4.5-6.6,7.7-17.6,9.5c-0.4-1.4-1.6-3.5-2.6-4.6c8.2-1.1,12.3-2.8,14.4-5.4H130v-4.5h15.6c0.2-0.8,0.3-1.7,0.4-2.6h-16v-4.6
			h16.7v-2.2h-12.3v-4.3h12.3v-2.1h-14.6v-4.5h7.8c-0.6-1.2-1.5-2.6-2.3-3.7l4.4-1.8c1.4,1.5,2.7,3.5,3.2,5l-1.1,0.5h9.9l-0.7-0.3
			c1.1-1.5,2.4-3.6,3.1-5.2l6,2c-0.2,0.3-0.6,0.5-1.2,0.5c-0.6,0.9-1.5,2-2.4,3h8.1v4.5H152v2.1h12.6v4.3H152v2.2h17v4.6h-16.5
			c-0.2,0.3-0.5,0.6-1.1,0.6l-0.4,2h18.1V112.1z"/>
	</g>
	<g>
		<path class="st0" d="M192.3,114.3c0,1.9,0.4,2.2,2.9,2.2h7.3c2.3,0,2.7-0.9,3-6c1.2,0.9,3.6,1.8,5.1,2.1c-0.7,6.9-2.3,8.9-7.7,8.9
			h-8.3c-6.3,0-8-1.7-8-7.2v-4.7l-14.1,1.5l-0.7-4.9l14.8-1.5v-4.6c-3.2,0.6-6.4,1.1-9.5,1.5c-0.3-1.3-1-3.2-1.6-4.4
			c0.5-0.1,1-0.1,1.5-0.2v0h-4.2V86.7h15.5v-4.9l6.7,0.3c0,0.5-0.4,0.7-1.2,0.9v3.7h15.7v10.2H204v-5.4h-26v5.2
			c7.3-1.1,14.8-2.9,19.5-5.1l4.3,4.3c-0.2,0.2-0.3,0.2-1.2,0.2c-2.2,0.9-4.9,1.8-7.8,2.5l0.6,0c0,0.4-0.4,0.7-1.2,0.9v4.6l17.7-1.8
			l0.7,4.7l-18.4,2V114.3z"/>
	</g>
	<g>
		<path class="st0" d="M231.8,80.6h2v42.7h-2V80.6z"/>
	</g>
	<g>
		<path class="st0" d="M280.7,121.8h-25.3v-4.9l4.5-4.8c7.7-7.9,12.2-13.1,12.2-18.6c0-3.5-1.9-6.5-6.3-6.5c-2.9,0-5.7,1.6-7.6,2.9
			l-2.2-5.7c2.5-1.9,6.7-3.6,11.4-3.6c8.7,0,12.6,5.5,12.6,12.1c0,7.2-4.9,13.1-10.8,19l-3.4,3.3v0.1h14.9V121.8z"/>
	</g>
	<g>
		<path class="st0" d="M284.2,102.7h14.7v5.5h-14.7V102.7z"/>
	</g>
	<g>
		<path class="st0" d="M324.2,121.8h-7.3v-10h-16.3v-5.1l14.7-25.3h8.9v24.5h4.7v6h-4.7V121.8z M307.6,105.7h9.3V95.7
			c0-2.4,0.2-4.9,0.3-7.3H317c-1.2,2.6-2.2,4.8-3.4,7.1l-5.9,10.2V105.7z"/>
	</g>
	<g>
		<path class="st0" d="M369.4,107.1h-17.6c-0.1,0.8-0.3,1.6-0.4,2.4h9.9l1.1-0.1l2.9,0.4c0,0.4-0.1,0.9-0.2,1.3
			c-0.9,11.1-1.7,11.1-10.8,11c-0.1-1.3-0.6-3.1-1.3-4.3c1.8,0.2,3.5,0.2,4.3,0.2c0.6,0,1.1-0.1,1.4-0.4c0.5-0.4,0.8-1.6,1.1-4.2
			h-9.7c-1.6,3.7-4.6,6.7-11.1,8.7c-0.5-1.2-1.8-3.1-2.8-4c7.9-2.1,9.7-5.9,10.4-11h-7.3c-0.6,5.2-2.1,10.6-5.6,14.6
			c-0.9-0.9-3.2-2.3-4.4-2.9c4.8-5.4,5.3-13.2,5.3-18.9v-9.6h30.9v10.3h-10.1c-0.2,0.3-0.5,0.4-1.1,0.5v2.1h15V107.1z M369.2,83.8
			v4.6h-38.3v-4.6H369.2z M349.4,100.6h-9.6c0,0.9,0,1.8-0.1,2.6h9.7V100.6z M360.6,94h-20.8v2.7h20.8V94z"/>
	</g>
</g>
<g>
	<rect x="0" y="137.8" class="st0" width="393.4" height="2"/>
</g>
<g>
	<rect x="0" y="0.3" class="st0" width="393.4" height="2"/>
</g>
</svg>
