<?xml version="1.0" encoding="utf-8"?>
<!-- Generator: Adobe Illustrator 25.2.3, SVG Export Plug-In . SVG Version: 6.00 Build 0)  -->
<svg version="1.1" id="圖層_1" xmlns="http://www.w3.org/2000/svg" xmlns:xlink="http://www.w3.org/1999/xlink" x="0px" y="0px"
	 viewBox="0 0 94 399.2" style="enable-background:new 0 0 94 399.2;" xml:space="preserve">
<style type="text/css">
	.st0{fill:#E95513;}
	.st1{fill:#FFFFFF;}
	.st2{fill:#FDFDFD;}
</style>
<g>
	<g>
		<path class="st0" d="M33.5,0.4c-18.4,0-33.4,15-33.4,33.4S15,67.1,33.4,67.1h61.4V0.4H33.5z"/>
		<path class="st0" d="M33.5,111.2c-18.4,0-33.3,14.9-33.3,33.3s14.9,33.3,33.3,33.3h61.4v-66.7L33.5,111.2L33.5,111.2z"/>
		<path class="st0" d="M33.5,221.9c-18.4,0-33.3,14.9-33.3,33.3s14.9,33.3,33.3,33.3h61.4v-66.7L33.5,221.9L33.5,221.9z"/>
		<path class="st1" d="M69.6,248.8c0-9.4-7.6-17.1-17.1-17.1c-9.4,0-17.1,7.6-17.1,17.1c0,3.7,1.2,7.1,3.1,9.9l0,0l13.9,20.1
			l13.9-20.1l0,0C68.4,255.8,69.6,252.4,69.6,248.8z"/>
		<circle class="st0" cx="52.5" cy="248.8" r="10.1"/>
		<g>
			<path class="st1" d="M64.8,52.9c1.1-2.4,0.1-3.2-3-6.1c-2.9-2.6-3.9-4.1-6.8-2.4c-1.5,0.9-2.5,2.4-5.4,0.8
				C46.7,43.6,45,42.1,43,39s-2.7-5.3-2.9-8.6c-0.3-3.4,1.5-3.6,2.9-4.6c2.7-1.9,1.9-3.1,0.7-6.8c-1.3-4-1.8-5.5-4.4-5.5
				c-8.7,0-11.5,13.2-1.3,28.9C48.1,58.1,61.2,60.8,64.8,52.9z"/>
			<path class="st1" d="M70.6,39.2c0,0.3,0.1,0.7,0.2,0.9c0.2,0.4,0.7,0.6,1.1,0.7c0.8,0.1,1.5-0.6,1.6-1.4C74,33.1,72.4,27,69,21.7
				c-3.3-5.1-8-8.9-13.6-11.1c-0.8-0.3-1.6,0.1-1.9,0.8c-0.3,0.8,0.1,1.6,0.9,1.9c5,2,9.3,5.4,12.2,10C69.6,28.1,71,33.6,70.6,39.2z
				"/>
			<path class="st1" d="M51.2,17.1c-0.3,0.8,0.1,1.6,0.9,1.9c3.9,1.5,7.1,4.1,9.3,7.6c2.3,3.6,3.4,7.7,3.1,12c0,0.3,0.1,0.7,0.2,0.9
				c0.3,0.4,0.7,0.6,1.2,0.7c0.8,0.1,1.5-0.6,1.6-1.4c0.3-4.9-0.9-9.7-3.6-13.8c-2.6-4-6.3-7.1-10.8-8.8
				C52.4,16,51.5,16.3,51.2,17.1z"/>
			<path class="st1" d="M61.5,38.7c0.3-3.7-0.6-7.3-2.6-10.5c-1.9-3-4.7-5.2-8-6.5c-0.8-0.3-1.6,0.1-1.9,0.9
				c-0.3,0.8,0.1,1.6,0.9,1.9c2.7,1,5,2.9,6.6,5.3c1.7,2.6,2.4,5.5,2.1,8.6c0,0.3,0.1,0.7,0.2,0.9c0.2,0.4,0.7,0.6,1.1,0.7
				C60.7,40.2,61.4,39.6,61.5,38.7z"/>
		</g>
		<g>
			<g>
				<path class="st2" d="M57,147.1c1.9,0,3.8,0,5.7,0c0.1,0,0.2,0,0.3,0c0.2,0,0.3-0.1,0.3-0.3c0.3-2.3,0.7-4.6,1-6.9
					c0.1-0.4,0.1-0.8,0.2-1.1c-0.2-0.1-0.3-0.1-0.5-0.1c-2.3,0-4.7,0-7,0c-0.1,0-0.2,0-0.3,0c-0.2,0-0.2-0.1-0.2-0.2
					c0-0.1,0-0.1,0-0.2c0-1.6,0-3.3,0-4.9c0-0.5,0-1,0.2-1.5c0.4-1.6,1.4-2.6,3-3c0.5-0.1,1-0.2,1.5-0.2c1.1,0,2.2,0,3.4,0
					c0.3,0,0.4,0,0.4-0.4c0-2.1,0-4.3,0-6.4c0-0.4,0-0.4-0.4-0.5c-1-0.1-1.9-0.3-2.9-0.3c-1.3-0.1-2.7-0.2-4-0.1
					c-2,0.1-3.9,0.6-5.6,1.7c-2.1,1.4-3.4,3.3-4.1,5.7c-0.4,1.3-0.5,2.7-0.5,4.1c0,1.9,0,3.8,0,5.7c0,0.1,0,0.2,0,0.3
					c0,0.2-0.1,0.2-0.2,0.2c-0.1,0-0.2,0-0.3,0c-2.1,0-4.2,0-6.4,0c-0.5,0-0.5,0-0.5,0.5c0,2.5,0,5,0,7.5c0,0.1,0,0.1,0,0.2
					c0,0.2,0.1,0.2,0.2,0.2c0.1,0,0.2,0,0.3,0c2.1,0,4.2,0,6.3,0c0.1,0,0.2,0,0.3,0c0.2,0,0.3,0,0.3,0.2c0,0.1,0,0.2,0,0.3
					c0,6.4,0,14,0,20.4h9.1c0-6.4,0-14,0-20.4C56.5,147,56.4,147.1,57,147.1z"/>
			</g>
		</g>
		<path class="st0" d="M33.5,332.6c-18.4,0-33.3,14.9-33.3,33.3s14.9,33.3,33.3,33.3h61.4v-66.7H33.5V332.6z"/>
		<g>
			<path class="st1" d="M59.9,385.2c-8.5,0-17,0-25.5,0c-0.1,0-0.2-0.1-0.3-0.1c-1.4-0.3-2.3-1.2-2.8-2.5c-0.1-0.2-0.1-0.5-0.2-0.7
				c0-12.1,0-24.2,0-36.3c0-0.1,0.1-0.1,0.1-0.2c0.5-2,1.9-3.1,3.9-3.1c8,0,16.1,0,24.1,0c2.4,0,4,1.6,4,4c0,3.3,0,6.7,0,10
				c0,0.3-0.1,0.5-0.3,0.7c-3.4,3.4-6.8,6.8-10.2,10.2c-0.3,0.3-0.7,0.7-0.9,1.2c-1.2,2.4-2.3,4.8-3.4,7.3c-0.5,1-0.4,2,0,3
				c0.9,2,3.1,2.8,5.1,1.9c2.2-1,4.5-2.1,6.7-3.1c0.6-0.3,1.1-0.7,1.6-1.1c0.5-0.4,0.9-0.8,1.3-1.3c0,0.1,0,0.1,0,0.2
				c0,2.1,0,4.2,0,6.3c0,1.2-0.5,2.2-1.5,2.8C61.1,384.8,60.5,384.9,59.9,385.2z M47.1,353c3.1,0,6.2,0,9.2,0c0.6,0,1-0.2,1.3-0.8
				c0.4-0.9-0.2-1.8-1.2-1.8c-4.4,0-8.9,0-13.3,0c-1.7,0-3.5,0-5.2,0c-0.6,0-1,0.2-1.2,0.7c-0.4,0.9,0.2,1.8,1.2,1.8
				C40.9,353,44,353,47.1,353z M45.1,359.7c2.4,0,4.8,0,7.2,0c0.6,0,1-0.2,1.3-0.7c0.4-0.9-0.2-1.8-1.2-1.8c-2.4,0-4.8,0-7.2,0
				c-2.4,0-4.9,0-7.3,0c-0.6,0-1,0.2-1.2,0.7c-0.4,0.9,0.2,1.8,1.2,1.8C40.3,359.7,42.7,359.7,45.1,359.7z M43.1,366.4
				c1.8,0,3.5,0,5.3,0c0.6,0,1-0.2,1.2-0.8c0.4-0.9-0.3-1.7-1.3-1.7c-3.5,0-6.9,0-10.4,0c-0.9,0-1.5,0.5-1.4,1.3
				c0,0.7,0.6,1.2,1.4,1.2C39.7,366.4,41.4,366.4,43.1,366.4z"/>
			<path class="st1" d="M73.9,360.2c-0.2,0.8-0.7,1.3-1.2,1.8c-0.5,0.5-1,1-1.4,1.5c-1.9-1.9-3.8-3.8-5.6-5.6
				c0.7-0.7,1.3-1.5,2.1-2.2c0.9-0.8,2.3-0.7,3.2,0.1c0.8,0.7,1.6,1.5,2.3,2.3c0.3,0.3,0.4,0.8,0.6,1.2
				C73.9,359.6,73.9,359.9,73.9,360.2z"/>
			<path class="st1" d="M63.7,359.8c1.9,1.9,3.7,3.7,5.6,5.6c-0.4,0.4-0.9,0.9-1.3,1.3c-2.6,2.6-5.2,5.2-7.9,7.7
				c-0.3,0.3-0.8,0.6-1.2,0.8c-2.2,1-4.3,2-6.5,3c-0.5,0.2-0.9,0.2-1.4-0.1c-0.4-0.3-0.5-0.7-0.5-1.2c0-0.2,0.1-0.3,0.2-0.5
				c1.1-2.3,2.1-4.6,3.2-6.9c0.1-0.2,0.2-0.4,0.4-0.5C57.4,366,60.5,362.9,63.7,359.8C63.7,359.8,63.7,359.8,63.7,359.8z"/>
		</g>
	</g>
</g>
</svg>
