<?xml version="1.0" encoding="utf-8"?>
<!-- Generator: Adobe Illustrator 25.2.3, SVG Export Plug-In . SVG Version: 6.00 Build 0)  -->
<svg version="1.1" id="圖層_1" xmlns="http://www.w3.org/2000/svg" xmlns:xlink="http://www.w3.org/1999/xlink" x="0px" y="0px"
	 viewBox="0 0 639 188" style="enable-background:new 0 0 639 188;" xml:space="preserve">
<style type="text/css">
	.st0{fill-rule:evenodd;clip-rule:evenodd;fill:#1967B2;}
	.st1{fill:#FFFFFF;}
	.st2{fill:#1967B2;}
</style>
<rect x="1.6" y="0.5" class="st0" width="637" height="69.2"/>
<g>
	<path class="st1" d="M62.4,24.2h-2.6c-0.9,2.4-2.4,4.3-4.2,6c2,1.1,4.4,2,7.1,2.5c-0.8,0.7-1.7,2-2.1,2.8c-3-0.7-5.6-1.8-7.7-3.4
		c-2.2,1.3-4.8,2.3-7.8,3c-0.4-0.8-1.2-2-1.8-2.6c2.7-0.5,5.2-1.4,7.2-2.5c-1-1.1-1.9-2.2-2.6-3.5c-0.7,0.9-1.5,1.7-2.2,2.4
		c-0.5-0.5-1.5-1.4-2.2-1.9c-0.5,7.5-0.9,8.1-4.9,8.1c-0.7,0-1.6,0-2.5,0c0-0.6-0.3-1.5-0.6-2.1h-4.1v1.2h-2.6v-4.8
		c-0.4,0.4-0.9,0.9-1.3,1.3c-0.5-0.6-1.4-1.6-2.1-2c2.3-1.8,3.8-4.3,4.6-6.3l0.5,0.1v-0.5H26v-2.3h4.4v-1.9l4,0.3
		c0,0.3-0.3,0.5-0.8,0.6v1.1h3.8v-1.9l4,0.3c0,0.3-0.3,0.5-0.8,0.6v1.1h4.4v2.3h-4.4v1.5h-3.2v-1.5h-3.8v1.5h-0.8
		c-0.1,0.3-0.3,0.6-0.4,0.9h8.9l0.7,0l1.7,0.1c0,0.3,0,0.6,0,0.9l-0.1,1.4c2.4-2.1,4.4-5.5,5.6-9.1l3.9,1.1
		c-0.1,0.3-0.4,0.4-0.9,0.4c-0.3,0.8-0.7,1.7-1.1,2.5h11.4V24.2z M45.9,42.9v2h16.3v2.6H45.9v1.9c0,3.1-1.3,3.5-8.5,3.5
		c-0.2-0.9-0.8-2.1-1.2-2.9c1.3,0,2.7,0.1,3.6,0.1c2.2,0,2.4,0,2.4-0.7v-1.8H25.9v-2.6h16.4v-2H28.9v-2.5h13.4v-1.8
		c-3.4,0.2-6.8,0.2-10,0.2c0-0.7-0.4-1.7-0.7-2.3c7.6,0,16.9-0.4,21.9-1.2l2.4,2.3c-0.1,0.1-0.3,0.1-0.5,0.1c-0.1,0-0.2,0-0.4,0
		c-2.4,0.4-5.6,0.6-9.1,0.9v2h13.6v2.5H45.9z M37.9,32.8c1,0,1.3,0,1.6-0.3c0.4-0.5,0.7-2.1,0.8-6.3h-9.2c-0.2,0.4-0.5,0.8-0.8,1.2
		h7.6V32.8z M35.2,31.2v-2h-3.8v2H35.2z M49.8,24.2c0.8,1.5,1.9,2.9,3.3,4.1c1.3-1.1,2.4-2.5,3.1-4.1H49.8z"/>
	<path class="st1" d="M99.4,35.8h-14c2.6,7,7.7,11.8,16.2,13.8c-0.9,0.8-2,2.4-2.6,3.4c-8-2.1-12.9-6.6-16-13.3
		c-1.9,5.2-6.5,10.2-16.6,13.3c-0.4-0.9-1.5-2.5-2.3-3.2c11-3.3,14.6-8.7,15.8-14H66.3v-3.7h14.1c0-0.6,0-1.1,0-1.7V24H65v-3.7h35.4
		V24h-16v6.4c0,0.6,0,1.1,0,1.7h15V35.8z"/>
	<path class="st1" d="M139.6,27.8h-16.2v7.6h11.8v17.3h-3.8V51h-19.4v1.9h-3.7V35.4h11.2v-7.6h-16v-3.5h16v-6.7l4.9,0.3
		c0,0.3-0.3,0.5-1,0.6v5.8h16.2V27.8z M131.3,47.6v-8.7h-19.4v8.7H131.3z"/>
	<path class="st1" d="M175,40.6h3.6V44h-37.1v-3.4h4V22.1h8.4v-4.6l4.4,0.3c0,0.3-0.3,0.5-0.9,0.6v3.7h5v-4.6l4.5,0.3
		c0,0.3-0.3,0.5-0.9,0.6v3.7h8.9V40.6z M157.3,46.5c-0.2,0.2-0.4,0.2-0.8,0.3c-2.6,2.1-7.6,4.7-11.7,6.3c-0.7-0.8-2.1-2-3-2.7
		c4.2-1.4,9.2-4,11.7-6.1L157.3,46.5z M154,25.4h-4.8v6h4.8V25.4z M149.2,34.7v6h4.8v-6H149.2z M162.5,25.4h-5v6h5V25.4z
		 M162.5,40.6v-6h-5v6H162.5z M174.7,53c-2.5-1.8-7.1-4.4-11.2-6.4l2.7-2.4c4.4,1.9,9.2,4.5,12.1,6.3L174.7,53z M171.2,25.4h-5.1v6
		h5.1V25.4z M166.1,34.7v6h5.1v-6H166.1z"/>
	<path class="st1" d="M209.9,25.6c-0.1,0.3-0.5,0.4-1,0.4c-0.6,1.1-1.6,2.7-2.5,3.9h9.5v7.8h-3.7V33h-26.9v4.6h-3.6v-7.8h9.2
		c-0.4-1.4-1.2-3.1-2.2-4.4l2.7-0.7h-8.6v-3.2h13.8v-3.8l4.9,0.3c0,0.3-0.3,0.5-1,0.6v2.9h14.3v3.2h-8.1L209.9,25.6z M211.9,37v9.3
		c0,3.5-1.8,3.8-7.9,3.8c-0.1-1-0.6-2.3-1.1-3.3c1.2,0,2.3,0.1,3.2,0.1c1.7,0,2.1,0,2.1-0.6v-6.1h-7.6v12.7h-3.8V40.1h-7.2v9.8h-3.6
		V37h10.9v-3.3l4.7,0.2c0,0.3-0.3,0.5-1,0.6V37H211.9z M202.8,29.4c0.8-1.3,1.8-3.2,2.4-4.7h-12.9c1.1,1.5,2.1,3.4,2.4,4.7l-1.5,0.5
		h10.8L202.8,29.4z"/>
	<path class="st1" d="M228.2,31.3c1.1,1.4,4.1,5.8,4.8,6.8l-2,2.6c-0.6-1.2-1.7-3.4-2.8-5.2v17.3h-3.5V36.6c-1.2,3.7-2.7,7-4.4,9.3
		c-0.4-0.9-1.2-2.3-1.8-3.1c2.4-3.1,4.7-8.8,5.8-13.7h-5v-3.3h5.3v-8.1l4.4,0.2c0,0.3-0.3,0.5-0.9,0.6v7.3h4.3V29h-4.3V31.3z
		 M240.3,45.8c-0.1,0.2-0.4,0.3-0.8,0.3c-1.4,1.8-3.8,4.1-6.1,5.7c-0.6-0.7-1.5-1.6-2.3-2.2c2.2-1.4,4.6-3.6,5.9-5.5L240.3,45.8z
		 M256,43.5H246v6.1c0,3.1-1.4,3.4-6.5,3.4c-0.1-0.9-0.6-2.1-1.1-2.9c0.8,0,1.6,0,2.2,0c1.7,0,1.9,0,1.9-0.5v-6h-9.9v-2.9H256V43.5z
		 M239.7,24.4v-2.3h-7v-2.9H256v2.9h-7.2v2.3h6.2v9.3h-21v-9.3H239.7z M253.9,38.4h-18.8v-2.7h18.8V38.4z M237.1,27.1v4h2.9v-4
		H237.1z M245.8,24.4v-2.3h-3.1v2.3H245.8z M245.8,27.1h-3.1v4h3.1V27.1z M253.5,51.8c-1.1-1.6-3.4-4.1-5.4-5.9l2.7-1.7
		c2,1.7,4.4,4.1,5.6,5.7L253.5,51.8z M251.7,31.1v-4h-3.3v4H251.7z"/>
	<path class="st1" d="M275.3,16.4h1.7v37.7h-1.7V16.4z"/>
	<path class="st1" d="M326.6,52.9h-6.1l-3.4-10.6h-11.6l-3.3,10.6h-5.9l11.6-36.2h7.1L326.6,52.9z M316.1,38l-3-9.5
		c-0.7-2.4-1.3-4.9-1.9-7.1h-0.1c-0.5,2.2-1.1,4.9-1.8,7.1l-3,9.5H316.1z"/>
	<path class="st1" d="M329.5,17.3h22.6v3.4l-14.9,32.1h-5.9l14.9-31v-0.1h-16.7V17.3z"/>
	<path class="st1" d="M379.5,47.5c0,1.2,0.3,1.4,1.8,1.4h5c1.4,0,1.7-0.6,1.8-4.9c0.8,0.6,2.4,1.1,3.4,1.4c-0.4,5.4-1.5,6.7-4.9,6.7
		h-5.8c-4.1,0-5.2-1.1-5.2-4.6v-8.4h-5.6c-0.2,0.1-0.4,0.2-0.7,0.2c-1.1,6-3,10.9-12.8,13.5c-0.4-0.9-1.4-2.4-2.2-3.1
		c8.4-1.9,10.2-5.6,11-10.7h-10.1v-3.4h35.7v3.4h-11.5V47.5z M360.1,25.5v5.1h-3.8v-8.5h14.8v-4.5l5,0.3c0,0.3-0.3,0.6-1,0.6v3.6h15
		v8.5h-4v-5.1H360.1z M383.8,32.3h-21.2V29h21.2V32.3z"/>
	<path class="st1" d="M430.1,43.5h-14.3c2.7,3.7,7.7,5.5,15,6.1c-0.8,0.8-1.8,2.3-2.3,3.3c-8.6-1-13.7-3.8-16.7-9.3
		c-2,4.5-6.1,7.6-16.7,9.3c-0.3-0.9-1.2-2.4-1.9-3.2c8.5-1.1,12.4-3.1,14.4-6.1h-13.8v-3.1h15.1c0.2-0.9,0.4-2,0.6-3.1h-15.6v-3.2
		h15.9v-2.6h-11.9v-3.1h11.9v-2.6h-14.1v-3.2h7.9c-0.6-1.3-1.7-2.8-2.7-3.9l3.2-1.2c1.4,1.4,2.7,3.2,3.3,4.6l-1.2,0.5h10.5l-1-0.4
		c1.1-1.3,2.5-3.4,3.3-4.8l4.4,1.5c-0.1,0.3-0.4,0.3-1,0.3c-0.7,1-1.8,2.3-2.9,3.4h8.5v3.2h-14.3v2.6H426v3.1h-12.3v2.6h16.1v3.2
		h-15.6c-0.1,0.3-0.4,0.5-0.9,0.5c-0.2,0.9-0.3,1.7-0.5,2.6h17.3V43.5z"/>
	<path class="st1" d="M450.9,46.7c0,1.7,0.4,1.9,2.9,1.9h7.8c2.3,0,2.6-0.9,2.9-5.5c0.9,0.6,2.6,1.2,3.8,1.5
		c-0.6,5.9-1.7,7.6-6.4,7.6h-8.4c-5.2,0-6.7-1.2-6.7-5.4v-5.4l-13.6,1.5l-0.5-3.4l14.1-1.5v-5.1c-3.2,0.7-6.6,1.2-9.8,1.7
		c-0.2-0.9-0.7-2.3-1.2-3.1c7.7-1.2,16.1-3.1,21-5.3l3.3,3.1c-0.1,0.1-0.3,0.2-0.6,0.2c-0.1,0-0.2,0-0.4,0c-2.2,0.9-4.9,1.7-7.9,2.4
		l0.7,0c0,0.3-0.3,0.6-1,0.7v5l17.3-1.9l0.5,3.3l-17.8,2V46.7z M437.5,25.5v5.1h-3.8v-8.5h14.8v-4.5l5,0.3c0,0.3-0.3,0.6-1,0.6v3.6
		h15v8.5h-4v-5.1H437.5z"/>
	<path class="st1" d="M488.4,16.4h1.7v37.7h-1.7V16.4z"/>
	<path class="st1" d="M533.2,52.9h-22.8v-3.4l3.9-3.9c7.9-7.7,12.3-12.6,12.3-18c0-3.4-1.7-6.5-6.5-6.5c-2.9,0-5.5,1.5-7.2,2.8
		l-1.7-3.9c2.3-1.8,5.9-3.3,10.1-3.3c7.7,0,11.1,5,11.1,10.3c0,6.5-4.7,12-11.2,18.2l-3.1,3v0.1h15.1V52.9z"/>
	<path class="st1" d="M536.5,36.6h13.7v3.9h-13.7V36.6z"/>
	<path class="st1" d="M572.8,52.9h-5.4v-9.4h-15.7v-3.5l14.7-22.6h6.4v22h4.7v4.2h-4.7V52.9z M557.1,39.3h10.2V28.6
		c0-2,0.1-4.2,0.2-6.2h-0.2c-1.1,2.3-2.1,4-3.1,5.9L557.1,39.3L557.1,39.3z"/>
	<path class="st1" d="M615.2,39.3h-17.1c-0.1,0.9-0.3,1.8-0.5,2.6h10.6l0.8-0.1l2.1,0.3c0,0.3-0.1,0.6-0.2,1c-0.9,9.7-1.8,9.8-7,9.8
		c-0.9,0-1.9,0-3-0.1c-0.1-0.9-0.5-2.2-1-3c1.9,0.2,3.8,0.2,4.5,0.2c0.7,0,1-0.1,1.4-0.3c0.5-0.5,0.9-1.9,1.2-5h-10.4
		c-1.5,3.6-4.4,6.4-10.6,8.3c-0.4-0.8-1.3-2.1-2.1-2.8c7.7-2,9.6-5.7,10.3-10.9h-7.9c-0.6,4.6-1.9,9.5-5.2,13
		c-0.6-0.6-2.3-1.6-3.2-2c4.4-4.9,4.9-11.8,4.9-16.9v-8.5h28.6v8.6h-10.2c-0.1,0.2-0.4,0.4-0.9,0.5v2.4h14.6V39.3z M614.9,19.5v3.2
		h-35.4v-3.2H614.9z M596.9,33.6h-10c0,0.9,0,1.9-0.1,2.9h10.1V33.6z M608,27.6h-21.2v3.2H608V27.6z"/>
</g>
<g>
	<path class="st2" d="M43.3,99.7H31c-0.2,0.3-0.5,0.5-1.2,0.5l-1.3,2.7h14.2v4.4h-4.7c-0.8,2.5-1.9,4.6-3.2,6.3
		c2.8,1.3,5.5,2.6,7.3,3.8l-3.5,3.9c-1.8-1.4-4.6-2.9-7.7-4.3c-3.3,2-7.8,3.3-14.1,4.2c-0.3-1.4-1.2-3.3-1.9-4.3
		c4.5-0.3,8-1,10.7-2.1c-0.9-0.3-1.8-0.7-2.6-1l-0.4,0.7l-4.5-1.4c0.9-1.6,1.9-3.6,2.9-5.8h-4.9V104l-3.7,1v10.3
		c0,4.8-1.7,5.8-8.4,5.8c-0.1-1.4-0.8-3.6-1.4-5c0.9,0,1.7,0,2.5,0c2.3,0,2.4,0,2.4-0.8v-8.9l-3.8,1c-0.1,0.4-0.4,0.7-0.8,0.7
		l-1.2-5.8c1.6-0.3,3.6-0.7,5.8-1.2v-8H2.3v-4.9h5.2v-8.5l6.1,0.3c0,0.4-0.3,0.7-1.1,0.8v7.3H17v4.9h-4.4v6.9l3-0.7v-4.3h6.6
		c-0.1-1.6-0.6-3.9-1.2-5.7l4.3-0.9h-7.7v-4.4h9.2v-4.4l6.5,0.3c0,0.4-0.3,0.7-1.2,0.8v3.2h9.8v4.4h-6.5l3.8,0.8
		C39,89.8,38.6,90,38,90c-0.6,1.5-1.4,3.6-2.2,5.2h7.5V99.7z M17.2,102.8h5.9l1.4-3.1h-7.6L17.2,102.8z M31.4,94.7
		c0.7-1.7,1.4-4.2,1.8-6h-7.7c0.7,1.9,1.4,4.3,1.4,5.9l-3.3,0.7h9.7L31.4,94.7z M26.5,107.2c-0.5,0.9-0.9,1.8-1.4,2.7
		c1.6,0.5,3.4,1.1,5.2,1.7c1.1-1.2,1.9-2.7,2.5-4.5H26.5z"/>
	<path class="st2" d="M50.2,104.6c-1,1.4-2.1,2.6-3.1,3.7c-0.5-1.1-1.8-3.6-2.5-4.7c3.2-3.3,7-8.9,9.3-14.1l5.4,2.1
		C59,92,58.6,92.2,58,92.1c-0.9,1.7-1.8,3.5-2.9,5.2l1.1,0.4c-0.1,0.3-0.4,0.7-1.1,0.7v22.6h-4.9V104.6z M58.4,82.1
		c-0.2,0.3-0.6,0.5-1.2,0.4c-2.4,3.1-6.5,7.4-9.9,10.2c-0.6-1-1.9-2.9-2.8-3.8c3-2.3,6.6-6.1,8.5-9L58.4,82.1z M85.5,93.9v4.7H58.1
		v-4.7h11v-4.7h-8.7v-4.5h8.7v-4.9l6.3,0.3c0,0.4-0.4,0.7-1.1,0.8v3.7h8.8v4.5h-8.8v4.7H85.5z M58.6,102.9h15.5v-4.2l6.3,0.3
		c-0.1,0.4-0.3,0.7-1.2,0.8v3.1H85v4.6h-5.8v8.2c0,4.5-1.6,5.5-9.8,5.5c-0.2-1.4-0.9-3.5-1.6-4.9c1.4,0.1,2.9,0.1,4,0.1
		c2,0,2.3,0,2.3-0.8v-8.1H58.6V102.9z M65.4,116.7c-0.7-1.9-2.7-4.7-4.5-6.7l3.9-2.2c1.9,2,3.9,4.6,4.7,6.5L65.4,116.7z"/>
	<path class="st2" d="M92.6,93.2c-1,0.4-2.1,0.8-3.1,1.2c-0.6-1.1-1.7-3-2.7-4c7.3-2.3,14.6-6.6,18.3-10.6l6.6,0.3
		c-0.1,0.3-0.5,0.7-1.1,0.7c4.3,4,12,7.5,18.3,9.1c-1.1,1.2-2.3,3-3.1,4.4c-0.8-0.3-1.7-0.6-2.6-1v11.2H92.6V93.2z M100.1,89.4
		c-1.9,1.1-4,2.2-6.2,3.2h27.6c-2-0.9-4-1.9-5.9-3v1.5h-15.5V89.4z M95.5,121.1V106h24.8V121H115v-1h-14.2v1.2H95.5z M97,101.4h3.1
		c-0.2-1.4-0.8-3.2-1.5-4.6l3.4-1h-5V101.4z M115,109.5h-14.2v1.7H115V109.5z M100.7,116.5H115v-1.8h-14.2V116.5z M105.5,101.4v-5.5
		h-3.4c0.8,1.5,1.5,3.4,1.7,4.7l-2.8,0.8H105.5z M112.5,87.7c-1.8-1.2-3.5-2.5-4.9-3.8c-1.2,1.2-2.8,2.5-4.7,3.8H112.5z
		 M113.6,101.4c-0.7-0.3-1.6-0.6-2.3-0.9c0.7-1.4,1.4-3.2,1.8-4.7h-3.4v5.5H113.6z M118.7,101.4v-5.5H114l4.1,1.3
		c-0.1,0.3-0.5,0.4-1,0.4c-0.6,1.1-1.4,2.7-2.2,3.8H118.7z"/>
	<path class="st2" d="M167.5,104.1h-11.9v2.3h13.7v14.5h-4.9v-1.4h-8.8v1.7h-4.8V92.6h-2.6V89l-2.4,2.1c-1.1-1.6-3.4-3.8-5.5-5.7
		c-0.6,1-1.3,2-2.1,3.1l5.3,0.3c0,0.4-0.3,0.7-1,0.7v2.7h5v15.1h-10v6c1.4-0.3,2.8-0.5,4.2-0.8c-0.6-1-1.3-2.1-1.9-3l4-2
		c2.3,3.1,4.9,7.2,5.8,10l-4.3,2.3c-0.3-1-0.8-2.2-1.4-3.4c-4.3,1.1-8.7,2.2-11.7,2.9c-0.1,0.4-0.4,0.7-0.7,0.7l-1.8-5.3
		c0.9-0.2,2-0.3,3.1-0.6V93.9c-0.9-1-2.3-2.2-3.2-2.8c3.9-3.4,6.7-7.7,8.3-11.3l5.6,0.9c-0.1,0.4-0.4,0.7-1,0.7l0,0
		c2,1.5,4.2,3.5,5.8,5.1v-1.7h8.4v-4.9l6.2,0.3c0,0.4-0.3,0.7-1.1,0.8v3.8h8.7v7.7h-2.8V104.1z M138.3,92.2v-3.7
		c-0.9,1.2-1.9,2.5-3,3.7H138.3z M142.8,97.9V96h-5.2v1.9H142.8z M137.6,103.5h5.2v-2h-5.2V103.5z M165.6,89h-12.8v2.8h12.8V89z
		 M162.7,99.9V96h-7.1v3.9H162.7z M164.5,110.7h-8.8v4.3h8.8V110.7z"/>
	<path class="st2" d="M192.1,78.6h2v43.7h-2V78.6z"/>
	<path class="st2" d="M233.5,86.2c1,2.1,2,4.5,2.7,6.7v-13l5.9,0.3c0,0.4-0.3,0.7-1.1,0.8v17.4c0,8.4-1.4,17.7-9.7,22.9
		c-0.7-1-2.3-2.9-3.4-3.8c4.9-2.4,6.9-6.5,7.8-11c-1.5,1.4-3,2.7-4.1,3.6c0,0.4-0.2,0.8-0.5,1l-2.6-5.1l-0.4,0.5
		c-0.5-1.2-1.4-3-2.3-4.7v19.1h-4.8v-16.6c-1.1,3.5-2.5,6.6-4,8.8c-0.5-1.4-1.6-3.5-2.3-4.6c2.5-3.5,4.8-9.5,5.9-14.8h-4.9V89h5.3
		v-9.1l5.9,0.3c0,0.4-0.3,0.7-1.1,0.8v8h4.2v4.9h-4.2v1.9c1.1,1.5,4.2,6,5,7.1c-0.7,0.9-1.4,1.8-2.1,2.9c0.1,0,3.1-1.9,7.4-5
		c0-0.7,0-1.5,0-2.3V96l-3.3,1.4c-0.5-2.6-1.9-6.6-3.2-9.6L233.5,86.2z M248.6,113.7c0,2,0.1,2.2,0.8,2.2h2.1c0.7,0,0.9-1.1,1-5.1
		c1.1,0.8,2.9,1.7,4.4,2.1c-0.5,5.6-1.7,7.8-4.9,7.8h-3.5c-3.8,0-4.8-1.5-4.8-7V79.9l6.1,0.3c0,0.4-0.3,0.7-1.1,0.8v12.6
		c1.1-2.4,2.3-5.5,3-7.8l5.3,2.4c-0.2,0.3-0.6,0.5-1.2,0.4c-1,2.5-2.8,6.1-4.2,8.3l-2.8-1.5v4.3l1.1-1c2.4,2.4,5.6,5.8,7.1,7.9
		l-3.4,3.2c-1-1.6-2.9-3.9-4.9-6.1V113.7z"/>
	<path class="st2" d="M259.5,81.6h37.6v39.5H292v-1.6h-27.6v1.6h-4.9V81.6z M264.4,114.8H292V86.3h-27.6V114.8z M287.6,103.7
		l3.6,2.4c-0.2,0.2-0.5,0.3-1.1,0.3c-1,0.7-2.5,1.6-3.8,2.4c1.6,0.8,3.4,1.4,5.2,1.8c-0.9,0.7-2.1,2.3-2.7,3.3c-3.2-1-6.4-2.8-8.9-5
		v5h-4.6v-4.5c-2.4,1.4-5.1,2.6-7.6,3.5c-0.6-0.8-1.8-2.4-2.6-3.1c3.5-1,7.3-2.7,10.2-4.8h-6.4v-7.3h18.5v6.3L287.6,103.7z
		 M290.4,93.4v3h-24.5v-3h9.8v-1.7h-7.6v-2.9h7.6v-2l5.9,0.3c0,0.3-0.3,0.6-1.1,0.7v0.9h7.7v2.9h-7.7v1.7H290.4z M273.2,100.2v2.1
		h9.5v-2.1H273.2z M281.2,105l-0.3,0.3c0.6,0.7,1.4,1.3,2.2,1.8c1-0.6,2-1.4,3-2.1H281.2z"/>
	<path class="st2" d="M341.2,85.5v5.1H324v0h0.7c0,0.4-0.4,0.7-1.2,0.8v3.8h13.9v14.9c0,4.9-2,5.7-10.2,5.7c-0.2-1.5-1-3.8-1.7-5.2
		c2.2,0.1,4.8,0.1,5.5,0.1c0.7,0,1-0.2,1-0.7v-9.7h-8.4v20.8H318v-20.8h-7.7v15.5H305V95.2h13v-4.6h-17.2v-5.1H318v-5.8l6.8,0.4
		c0,0.4-0.4,0.7-1.2,0.9v4.5H341.2z"/>
	<path class="st2" d="M381.2,97.5v16.2c0.9,0.4,2,0.7,2.9,0.9c-0.6,4.7-1.9,6.2-7.1,6.2h-11.2c-6.2,0-8-1.4-8.1-6.5h-1.8v3.1h-10
		v-2.1h6.3v-1.6H344v-2.4h8.2v-1.3H346v-2.2h9.8v3h1.8v-7.3h-1.8v3h-10v-2.1h6.3v-1.3H344v-2.5h8.1v-1.2H346V97h9.8v2.9h1.8v-4.2
		h-9.5v-4.5c-0.7,0.4-1.4,0.8-2.1,1.3c-0.7-1-2.2-2.6-3.2-3.3c5.4-2.7,9.3-6.3,11.5-9.4l5.5,1.1c-0.1,0.3-0.4,0.6-1,0.6l-0.5,0.6
		h8.3l0.7-0.3l3.6,2.3c-0.2,0.3-0.5,0.4-0.9,0.5c-0.7,0.8-1.5,1.7-2.4,2.7h11.2v8.4H369v1.7H381.2z M352.9,92.7h4.8v-2.2h-4.8V92.7z
		 M362.1,87.3c0.5-0.6,1-1.3,1.6-1.9h-8.3c-0.6,0.7-1.3,1.3-2.1,1.9H362.1z M362.2,90.4v9.5h2.4v-9.5H362.2z M362.2,103.4v7.3h2.4
		v-7.3H362.2z M362.2,114.3c0,2.4,0.6,2.9,3.8,2.9h10.6c2.1,0,2.9-0.5,3.3-2.5H369v1.7h-4.5v-2H362.2z M374.2,92.7v-2.2H369v2.2
		H374.2z M377.1,100.8H369v3.2l1.4-1.7c0.7,0.4,1.4,0.9,2.1,1.4c0.3-0.8,0.7-1.6,0.9-2.4l3.4,1c-0.1,0.3-0.4,0.5-0.9,0.4
		c-0.3,0.9-0.7,1.8-1.2,2.8c0.9,0.8,1.7,1.6,2.2,2.2l-1.7,2.3c-0.5-0.6-1.1-1.3-1.9-2c-0.7,1.1-1.4,2.1-2.2,2.9
		c-0.4-0.5-1.4-1.4-2.1-1.7c0.7-0.8,1.5-1.8,2.2-3c-0.7-0.6-1.6-1.2-2.3-1.7v6.9h8.1V100.8z"/>
	<path class="st2" d="M418.7,90.5l6.6,0.3c0,0.4-0.4,0.7-1.2,0.9v28.8h-5.5v-2.8h-25.1v2.9h-5.4v-30l6.6,0.4c0,0.4-0.3,0.7-1.2,0.8
		v20.5h9.6V81.1l6.7,0.4c0,0.4-0.4,0.7-1.2,0.8v29.9h10V90.5z"/>
	<path class="st2" d="M469.1,114.6v4.8h-33.6v1.7h-5.1V81.4h37.5V86h-32.4v28.6H469.1z M438.2,112.4v-11.9h12.1v11.9H438.2z
		 M442.4,104.1v4.8h3.4v-4.8H442.4z M460,88.1v10.5h-17.3V88.1H460z M454.8,95.2v-3.6h-7.2v3.6H454.8z M464.7,100.5v11.9h-12.5
		v-11.9H464.7z M460.2,108.9v-4.8h-3.6v4.8H460.2z"/>
	<path class="st2" d="M511.6,92h-8.5l3.1,1c-0.3,0.4-0.7,0.6-1.4,0.6c-2.4,6-5.4,10.9-9.2,15c4.5,3.4,10.1,5.9,16.8,7.3
		c-1.3,1.2-2.9,3.8-3.8,5.3c-7.1-1.8-12.8-4.6-17.5-8.5c-4.8,3.7-10.5,6.5-17.3,8.5c-0.6-1.4-2.1-3.7-3-4.9
		c6.4-1.6,11.8-4.1,16.3-7.4c-4-4.4-7-9.7-9.4-16l2.8-0.9h-9.1v-5.1h17.3v-7l6.6,0.4c0,0.4-0.3,0.7-1.2,0.8v5.8h17.5V92z M483.1,92
		c1.9,5,4.7,9.4,8.3,13c3.4-3.6,6.1-7.9,8-13H483.1z"/>
	<path class="st2" d="M554,90.5h-17.4v4.8h14.2v4.8h-33.4v-4.8h13.8v-4.8h-17.1v-4.9h17.1v-5.8l6.6,0.4c0,0.4-0.4,0.7-1.2,0.8v4.5
		H554V90.5z M519.8,121.1v-17.7h28.5v17.7h-5.4v-1.5H525v1.5H519.8z M542.8,108.1H525v6.7h17.9V108.1z"/>
	<path class="st2" d="M591.8,83.9l3.4,1.5c-0.1,0.3-0.3,0.5-0.6,0.7c-1.3,4.2-3.3,8-5.9,11.1c2.5,2.1,5.6,3.8,9.1,4.9
		c-1,1-2.6,3.1-3.3,4.4l-0.2-0.1v14.5h-5v-1.5h-8.3v1.6h-4.9v-14.2l-1,0.4c-0.3-0.7-0.9-1.4-1.4-2.2v0.7h-5.3v6l5.7-1.3l0.5,4.4
		c-6,1.6-12.3,3.1-16.4,4.2c0,0.4-0.4,0.7-0.7,0.8l-2-5.5l2-0.4V99.3l5.3,0.3c0,0.4-0.3,0.6-1,0.7v12.8l1.9-0.4V96.2h-5.9V81.6h15.2
		v10.9c3.1-3,5.9-7.8,7.4-12.6l5.7,1.7c-0.2,0.4-0.7,0.5-1.2,0.5c-0.3,0.7-0.5,1.4-0.8,2.1h6.6L591.8,83.9z M562.6,86.1v5.6h5.8
		v-5.6H562.6z M573.9,101.2v1.4c3-1.3,5.8-3.2,8.3-5.5c-1.1-1.4-2.1-2.8-2.9-4.2c-1,1.3-2,2.4-3.1,3.4c-0.7-0.7-1.9-1.9-3-2.7v2.5
		h-4.6v5.1H573.9z M591,104.8c-2-1.2-3.8-2.5-5.5-4.1c-1.7,1.5-3.5,2.9-5.4,4.1H591z M581.2,115h8.3v-5.7h-8.3V115z M581.9,89
		c0.9,1.6,2,3.2,3.3,4.8c1.2-1.6,2.3-3.4,3.1-5.2h-6.2L581.9,89z"/>
	<path class="st2" d="M639.1,105.3h-22c-0.1,0.9-0.3,1.8-0.5,2.6h12.7l1.2-0.1l3.2,0.6c0,0.4-0.2,0.9-0.3,1.3
		c-1,10.5-2.2,11.3-9.1,11.3c-1.3,0-2.7,0-4.2-0.1c-0.1-1.4-0.7-3.2-1.5-4.5c2.4,0.3,4.9,0.3,6,0.3c0.8,0,1.4-0.1,1.8-0.4
		c0.6-0.4,1-1.7,1.3-4.2H615c-2,3.8-5.6,6.9-13.3,9c-0.5-1.3-1.8-3.4-2.9-4.5c9.7-2.1,11.9-6,12.8-11.3h-12.4v-4.5h17.1V97l6.6,0.3
		c0,0.4-0.4,0.7-1.2,0.9v2.6h17.3V105.3z M609.4,91.8c-0.4-1.2-0.9-2.4-1.4-3.5l1.2-0.3h-8.7v-4.5h15.9v-3.5l6.7,0.4
		c0,0.4-0.3,0.7-1.2,0.8v2.3h16V88h-7.3l1.6,0.4c-0.2,0.3-0.5,0.5-1.1,0.5c-0.4,0.9-1,1.9-1.6,2.8h8.4v8h-5.2v-3.5H606v3.5H601v-8
		H609.4z M613.2,88c0.7,1.2,1.2,2.7,1.5,3.8h9.1c0.5-1.1,1.1-2.5,1.6-3.8H613.2z"/>
</g>
<g>
	<path class="st2" d="M14.3,155.2v18c3.3,5.8,9.9,5.8,20.8,5.8c6.7,0,14.5-0.2,19.8-0.7c-0.7,1.5-1.7,4.4-2,6.2
		c-4.2,0.2-10.4,0.4-16,0.4c-13.5,0-20.2,0-25.3-6.5c-2.1,2.2-4.3,4.3-6.2,6.1c0,0.6-0.2,0.9-0.7,1.1L1.5,179
		c2.1-1.4,4.5-3.3,6.6-5.2v-12.4H2.3v-6.2H14.3z M7.2,134.6c2.9,2.7,6.5,6.5,7.9,9.2l-5.7,3.8c-1.3-2.8-4.6-6.8-7.5-9.7L7.2,134.6z
		 M32.9,168.6c-5.1,1.6-10.3,3.2-13.7,4.2c-0.1,0.4-0.4,0.8-0.8,0.9l-2.6-6.5c1.1-0.2,2.3-0.5,3.6-0.8v-28.5l2.4,0.6
		c2.9-1.4,6-3.3,7.9-5.1l4.2,4.5v-1.1h17.8v28.5c0,4.9-1.4,6.3-8.9,6.3c-0.2-1.6-1-4.1-1.7-5.6c1.6,0.1,3.2,0.1,3.8,0.1
		c0.6,0,0.7-0.2,0.7-0.8v-22.9h-5.6v34.8h-6.1v-38.3c-0.2,0.1-0.4,0.1-0.7,0c-2.1,1.3-5,2.7-7.8,3.8V165l6.8-1.7L32.9,168.6z"/>
	<path class="st2" d="M100.3,177.5h-7.1c5.3,1.6,10.7,3.3,14.3,4.6c-2.2,1.4-4.1,2.6-6,3.8c-3.7-1.7-10.2-4-16.7-5.9l3.1-2.6H76.8
		l3.7,2.4c-0.2,0.2-0.6,0.3-1.1,0.4c-3.8,2.2-11.7,4.6-18.3,5.6c-0.9-1.2-2.8-3.3-4.2-4.5c5.3-0.8,11.3-2.3,15.4-4h-7.1v-15.2
		c-2.1,0.3-4.1,0.5-6.1,0.7c-0.6-1.4-2.1-3.9-3.1-5.1c2.4-0.2,4.9-0.4,7.4-0.7c-0.9-1.1-2.3-2.6-3.2-3.3c3.5-1,7.2-2.8,9.4-4.7h-2.5
		v-4.6h30.3v4.6h-0.1c3,1.6,6.3,3.6,8.2,5.1l-4.4,3.5c-2.1-1.8-6.5-4.6-10-6.4l2.8-2.2h-9v3.4c1.1-0.4,2.1-0.9,3-1.4l6.3,3.1
		c-0.3,0.4-0.9,0.6-1.6,0.4c-1.8,1-3.8,1.9-6.1,2.8h13.5V177.5z M65.1,142.7v5.3h-6v-10.7h19.9v-3.8l8.2,0.4
		c-0.1,0.6-0.4,0.9-1.4,1.1v2.3H106V148h-6.3v-5.3H65.1z M71.7,149.1l4.8,1.7c-0.2,0.4-0.6,0.6-1.3,0.5c-2.2,1.9-5.5,4-8.7,5.5v0.1
		c4.5-0.6,9-1.4,12.9-2.4v-5.3H71.7z M72.4,161.1l-0.7,0.1v1.7h21.8v-1.8H72.4z M93.5,168.4v-1.8H71.7v1.8H93.5z M71.7,171.9v1.9
		h21.8v-1.9H71.7z"/>
	<path class="st2" d="M162.3,168.8v5.3h-12.5v5.5c0,5.7-2.1,6.5-12.5,6.5c-0.3-1.8-1.1-4.2-1.9-5.8c2.7,0.1,5.9,0.1,6.8,0.1
		c0.9-0.1,1.2-0.2,1.2-0.9V174h-15.9c2.4,1.7,4.7,3.6,6,5.2l-4.9,4.2c-1.7-2.2-5.4-5.3-8.5-7.5l2.3-1.9h-11.2v-5.3h32.1v-2.2
		c-10.3,0.3-20.1,0.4-27,0.6c-0.2,0.4-0.6,0.7-1,0.8l-1.7-5.6c2.8,0.1,16.6,0,19.8,0v-2.1h-14.9v-16.2h14.9v-1.9H112v-5.1h21.3v-3.7
		l8.1,0.4c-0.1,0.6-0.4,0.9-1.5,1.1v2.2h21.6v5.1h-21.6v1.9h15.5v16.2H153c2.8,1.5,5.5,3.2,7.3,4.5l-4.1,3.5
		c-0.7-0.6-1.6-1.3-2.5-1.9l-2.8,0.1c-0.2,0.2-0.6,0.4-1.2,0.5v1.9H162.3z M124.7,148.2v2.1h8.6v-2.1H124.7z M124.7,156.2h8.6v-2.2
		h-8.6V156.2z M148.8,148.2h-8.9v2.1h8.9V148.2z M139.9,156.2h8.9v-2.2h-8.9V156.2z M139.9,160.3v2l7.1-0.1
		c-0.8-0.4-1.6-0.7-2.3-1.1l1.2-0.9H139.9z"/>
	<path class="st2" d="M204.3,160c0,1.7,1.6,5.3,2.3,7c1.9-1.9,4-4,5.3-5.7c5.7,4.5,5.8,4.6,6,4.7c-0.2,0.3-0.6,0.4-1.1,0.4
		c-0.2,0-0.4,0-0.6-0.1c-1.7,1.6-4.4,3.7-6.8,5.4c2.2,3,5,5.6,8.7,7.3c-1.2,1.2-3.1,3.7-4,5.4c-4.4-2.6-7.6-6.5-9.8-10.8v6
		c0,5.4-1.9,6.3-9.8,6.3c-0.2-1.7-0.9-4.1-1.6-5.7c1.9,0.1,4,0.1,4.6,0.1c0.7,0,0.9-0.2,0.9-0.8v-13.6c-1.8,8.9-5.8,15.2-11.5,18.6
		c-0.8-1.3-2.9-3.6-4.1-4.5c4-2.2,7.1-5.8,8.8-10.7h-5.6v-5.1l-3.4,1.5c-0.2-0.8-0.4-1.8-0.8-2.8l-2.8,0.2v22.8h-5.8v-18
		c-0.3,0.4-0.7,0.5-1.2,0.4c-0.6,4.6-1.7,9.9-3.2,13.3c-1.2-0.8-3.3-1.7-4.7-2.3c1.4-3.1,2.2-8.3,2.7-13.1l6.3,1.5v-4.3
		c-2.5,0.2-4.7,0.3-6.6,0.3c-0.2,0.6-0.6,0.8-1,0.8l-1.3-6.7h4c0.9-1.1,1.8-2.3,2.7-3.6c-1.6-2.4-4.2-5.5-6.6-7.6l3.2-4.6l1.2,1.1
		c1.6-3.1,3.2-6.8,4.2-9.8l6.5,2.7c-0.2,0.3-0.8,0.6-1.5,0.6c-1.4,3.1-3.7,7.2-5.6,10.3c0.7,0.8,1.3,1.6,1.9,2.3
		c1.9-3.2,3.8-6.4,5.1-9.2l6.3,2.8c-0.3,0.4-0.8,0.6-1.6,0.6c-2.6,4.3-6.5,9.9-10.1,14.3l5.7-0.1c-0.7-1.5-1.4-2.9-2.1-4.3l4.8-2
		c2.2,3.7,4.5,8.6,5.2,11.9l-0.9,0.4h7.3l1-0.2l3.1,1.2V160H188v-21h8.1c0.8-1.9,1.7-4,2.1-5.6l8.1,1.8c-0.2,0.4-0.7,0.7-1.5,0.7
		l-1.7,3.2h12v21H204.3z M184,166.3c1.3,3,2.6,6.8,3.2,9.3c-1.6,0.6-3.2,1.2-5.2,1.9c-0.4-2.6-1.8-6.6-2.9-9.6L184,166.3z
		 M194,144.2v2.9h14.8v-2.9H194z M194,151.9v2.9h14.8v-2.9H194z"/>
	<path class="st2" d="M244,131.9h2.6v55.6H244V131.9z"/>
	<path class="st2" d="M274,160.6c0-15.2,5.6-26,16.9-26c11.8,0,16.4,11.7,16.4,25.6c0,16.6-6.2,26.1-16.7,26.1
		C278.9,186.3,274,174.6,274,160.6z M290.7,178.5c4.5,0,6.8-6.4,6.8-18.1c0-11.3-2.1-18-6.7-18c-4.2,0-7,6.1-7,18
		C283.8,172.3,286.3,178.5,290.7,178.5L290.7,178.5z"/>
	<path class="st2" d="M331.2,158.6c5.6,1.3,10.2,5.8,10.2,12.6c0,8.4-6.7,15.1-18.4,15.1c-5.3,0-10.1-1.4-12.6-3l2.2-7.4
		c1.9,1.2,5.9,2.7,9.7,2.7c6,0,9-3.7,9-7.8c0-5.6-4.9-8.3-10.3-8.3h-3.4v-6.9h3.2c3.9,0,9-2.2,9-7c0-3.5-2.3-6.1-7-6.1
		c-3.4,0-6.8,1.5-8.8,2.7l-2.1-7c2.6-1.7,7.7-3.4,13.1-3.4c9.6,0,14.7,5.6,14.7,12.3c0,5.2-3.1,9.5-8.6,11.5V158.6z"/>
	<path class="st2" d="M346.5,162h18.2v6.8h-18.2V162z"/>
	<path class="st2" d="M399.4,185.6h-31.4v-6l5.6-6c9.5-9.8,15-16.2,15-23c0-4.4-2.3-8-7.8-8c-3.6,0-7,1.9-9.3,3.6l-2.7-7
		c3.1-2.4,8.3-4.5,14.1-4.5c10.7,0,15.6,6.8,15.6,15c0,8.9-6,16.2-13.3,23.5l-4.2,4.1v0.1h18.4V185.6z"/>
	<path class="st2" d="M405.1,135.4h31.2v6.1l-19,44h-10.1l19-41.9v-0.1h-21.2V135.4z"/>
	<path class="st2" d="M454.2,185.6v-41.4h-0.1l-8.6,4.5l-2.1-7l12.2-6.2h8.2v50.1H454.2z"/>
	<path class="st2" d="M476.3,162h18.2v6.8h-18.2V162z"/>
	<path class="st2" d="M525.8,185.6h-9.1v-12.4h-20.2v-6.4l18.2-31.4h11.1v30.3h5.8v7.4h-5.8V185.6z M505.3,165.7h11.5v-12.5
		c0-2.9,0.2-6.1,0.4-9.1h-0.3c-1.5,3.2-2.7,6-4.2,8.8l-7.4,12.6V165.7z"/>
	<path class="st2" d="M554.6,158.6c5.6,1.3,10.2,5.8,10.2,12.6c0,8.4-6.7,15.1-18.4,15.1c-5.3,0-10.1-1.4-12.6-3l2.2-7.4
		c1.9,1.2,5.9,2.7,9.7,2.7c6,0,9-3.7,9-7.8c0-5.6-4.9-8.3-10.3-8.3h-3.4v-6.9h3.2c3.9,0,9-2.2,9-7c0-3.5-2.3-6.1-7-6.1
		c-3.4,0-6.8,1.5-8.8,2.7l-2.1-7c2.6-1.7,7.7-3.4,13.1-3.4c9.6,0,14.7,5.6,14.7,12.3c0,5.2-3.1,9.5-8.6,11.5V158.6z"/>
	<path class="st2" d="M590.9,158.6c5.6,1.3,10.2,5.8,10.2,12.6c0,8.4-6.7,15.1-18.4,15.1c-5.3,0-10.1-1.4-12.6-3l2.2-7.4
		c1.9,1.2,5.9,2.7,9.7,2.7c6,0,9-3.7,9-7.8c0-5.6-4.9-8.3-10.3-8.3h-3.4v-6.9h3.2c3.9,0,9-2.2,9-7c0-3.5-2.3-6.1-7-6.1
		c-3.4,0-6.8,1.5-8.8,2.7l-2.1-7c2.6-1.7,7.7-3.4,13.1-3.4c9.6,0,14.7,5.6,14.7,12.3c0,5.2-3.1,9.5-8.6,11.5V158.6z"/>
	<path class="st2" d="M614.9,159.2c-4.6-2.6-7.1-6.8-7.1-11c0-8.3,6.8-13.6,15.5-13.6c9.9,0,14.7,6.3,14.7,12.6
		c0,4-2.3,8.5-7.4,11.3v0.1c4.9,2.3,9,6.6,9,12.8c0,9-7,14.9-17,14.9c-10.7,0-16.4-6.6-16.4-13.7c0-6.2,3.6-10.6,8.7-13.1V159.2z
		 M629.7,172.2c0-4.9-3.3-8-7.7-9.5c-3.8,1.4-6,4.9-6,8.9c0,4.2,2.6,8,6.8,8C627.3,179.6,629.7,176.2,629.7,172.2z M617,147.8
		c0,3.8,2.8,6.5,6.7,8c2.8-1.1,5.1-4.2,5.1-7.6c0-3.4-1.7-6.9-5.8-6.9C618.6,141.2,617,144.6,617,147.8z"/>
</g>
</svg>
